<ttFont>
    <TTGlyph name="A" xMin="25" yMin="0" xMax="410" yMax="720">
      <contour>
        <pt x="405" y="0" on="1"/>
        <pt x="360" y="0" on="0"/>
        <pt x="343" y="12" on="0"/>
        <pt x="335" y="46" on="1"/>
        <pt x="291" y="245" on="1"/>
        <pt x="139" y="245" on="1"/>
        <pt x="85" y="0" on="1"/>
        <pt x="69" y="0" on="0"/>
        <pt x="45" y="0" on="0"/>
        <pt x="29" y="4" on="0"/>
        <pt x="25" y="10" on="0"/>
        <pt x="25" y="24" on="0"/>
        <pt x="183" y="720" on="1"/>
        <pt x="247" y="720" on="1"/>
        <pt x="410" y="0" on="1"/>
      </contour>
      <contour>
        <pt x="284" y="300" on="1"/>
        <pt x="275" y="325" on="1"/>
        <pt x="225" y="592" on="1"/>
        <pt x="206" y="592" on="1"/>
        <pt x="157" y="325" on="1"/>
        <pt x="148" y="300" on="1"/>
      </contour>
    </TTGlyph>
    <TTGlyph name="AE" xMin="49" yMin="0" xMax="590" yMax="720">
      <contour>
        <pt x="590" y="0" on="1"/>
        <pt x="307" y="0" on="1"/>
        <pt x="307" y="220" on="1"/>
        <pt x="311" y="245" on="1"/>
        <pt x="163" y="245" on="1"/>
        <pt x="109" y="0" on="1"/>
        <pt x="93" y="0" on="0"/>
        <pt x="69" y="0" on="0"/>
        <pt x="53" y="4" on="0"/>
        <pt x="49" y="10" on="0"/>
        <pt x="49" y="24" on="0"/>
        <pt x="54" y="46" on="1"/>
        <pt x="197" y="720" on="1"/>
        <pt x="580" y="720" on="1"/>
        <pt x="580" y="667" on="1"/>
        <pt x="369" y="667" on="1"/>
        <pt x="373" y="642" on="1"/>
        <pt x="373" y="443" on="1"/>
        <pt x="369" y="418" on="1"/>
        <pt x="566" y="418" on="1"/>
        <pt x="566" y="361" on="1"/>
        <pt x="369" y="361" on="1"/>
        <pt x="373" y="336" on="1"/>
        <pt x="373" y="82" on="1"/>
        <pt x="369" y="57" on="1"/>
        <pt x="590" y="57" on="1"/>
      </contour>
      <contour>
        <pt x="307" y="667" on="1"/>
        <pt x="240" y="667" on="1"/>
        <pt x="181" y="325" on="1"/>
        <pt x="172" y="300" on="1"/>
        <pt x="311" y="300" on="1"/>
        <pt x="307" y="325" on="1"/>
      </contour>
    </TTGlyph>
    <TTGlyph name="Aacute" xMin="25" yMin="0" xMax="410" yMax="927">
      <contour>
        <pt x="405" y="0" on="1"/>
        <pt x="360" y="0" on="0"/>
        <pt x="343" y="12" on="0"/>
        <pt x="335" y="46" on="1"/>
        <pt x="291" y="245" on="1"/>
        <pt x="139" y="245" on="1"/>
        <pt x="85" y="0" on="1"/>
        <pt x="69" y="0" on="0"/>
        <pt x="45" y="0" on="0"/>
        <pt x="29" y="4" on="0"/>
        <pt x="25" y="10" on="0"/>
        <pt x="25" y="24" on="0"/>
        <pt x="183" y="720" on="1"/>
        <pt x="247" y="720" on="1"/>
        <pt x="410" y="0" on="1"/>
      </contour>
      <contour>
        <pt x="284" y="300" on="1"/>
        <pt x="275" y="325" on="1"/>
        <pt x="225" y="592" on="1"/>
        <pt x="206" y="592" on="1"/>
        <pt x="157" y="325" on="1"/>
        <pt x="148" y="300" on="1"/>
      </contour>
      <contour>
        <pt x="263" y="894" on="1"/>
        <pt x="296" y="927" on="0"/>
        <pt x="304" y="927" on="1"/>
        <pt x="314" y="927" on="0"/>
        <pt x="345" y="896" on="1"/>
        <pt x="230" y="782" on="1"/>
        <pt x="195" y="818" on="1"/>
      </contour>
    </TTGlyph>
    <TTGlyph name="Acircumflex" xMin="25" yMin="0" xMax="410" yMax="927">
      <component glyphName="A" x="0" y="0" flags="0x1004"/>
      <component glyphName="circumflex" x="42" y="195" flags="0x1004"/>
    </TTGlyph>
    <TTGlyph name="Adieresis" xMin="25" yMin="0" xMax="410" yMax="914">
      <contour>
        <pt x="405" y="0" on="1"/>
        <pt x="360" y="0" on="0"/>
        <pt x="343" y="12" on="0"/>
        <pt x="335" y="46" on="1"/>
        <pt x="291" y="245" on="1"/>
        <pt x="139" y="245" on="1"/>
        <pt x="85" y="0" on="1"/>
        <pt x="69" y="0" on="0"/>
        <pt x="45" y="0" on="0"/>
        <pt x="29" y="4" on="0"/>
        <pt x="25" y="10" on="0"/>
        <pt x="25" y="24" on="0"/>
        <pt x="183" y="720" on="1"/>
        <pt x="247" y="720" on="1"/>
        <pt x="410" y="0" on="1"/>
      </contour>
      <contour>
        <pt x="284" y="300" on="1"/>
        <pt x="275" y="325" on="1"/>
        <pt x="225" y="592" on="1"/>
        <pt x="206" y="592" on="1"/>
        <pt x="157" y="325" on="1"/>
        <pt x="148" y="300" on="1"/>
      </contour>
      <contour>
        <pt x="162" y="823" on="0"/>
        <pt x="124" y="823" on="0"/>
        <pt x="97" y="850" on="0"/>
        <pt x="97" y="888" on="0"/>
        <pt x="124" y="914" on="0"/>
        <pt x="162" y="914" on="0"/>
        <pt x="189" y="888" on="0"/>
        <pt x="189" y="850" on="0"/>
      </contour>
      <contour>
        <pt x="305" y="823" on="0"/>
        <pt x="267" y="823" on="0"/>
        <pt x="240" y="850" on="0"/>
        <pt x="240" y="888" on="0"/>
        <pt x="267" y="914" on="0"/>
        <pt x="305" y="914" on="0"/>
        <pt x="332" y="888" on="0"/>
        <pt x="332" y="850" on="0"/>
      </contour>
    </TTGlyph>
    <TTGlyph name="Agrave" xMin="25" yMin="0" xMax="410" yMax="927">
      <component glyphName="A" x="0" y="0" flags="0x1004"/>
      <component glyphName="grave" x="62" y="195" flags="0x1004"/>
    </TTGlyph>
    <TTGlyph name="Aring" xMin="25" yMin="0" xMax="410" yMax="914">
      <contour>
        <pt x="405" y="0" on="1"/>
        <pt x="360" y="0" on="0"/>
        <pt x="343" y="12" on="0"/>
        <pt x="335" y="46" on="1"/>
        <pt x="291" y="245" on="1"/>
        <pt x="139" y="245" on="1"/>
        <pt x="85" y="0" on="1"/>
        <pt x="69" y="0" on="0"/>
        <pt x="45" y="0" on="0"/>
        <pt x="29" y="4" on="0"/>
        <pt x="25" y="10" on="0"/>
        <pt x="25" y="24" on="0"/>
        <pt x="183" y="720" on="1"/>
        <pt x="247" y="720" on="1"/>
        <pt x="410" y="0" on="1"/>
      </contour>
      <contour>
        <pt x="284" y="300" on="1"/>
        <pt x="275" y="325" on="1"/>
        <pt x="225" y="592" on="1"/>
        <pt x="206" y="592" on="1"/>
        <pt x="157" y="325" on="1"/>
        <pt x="148" y="300" on="1"/>
      </contour>
      <contour>
        <pt x="297" y="867" on="0"/>
        <pt x="297" y="799" on="0"/>
        <pt x="248" y="751" on="0"/>
        <pt x="180" y="751" on="0"/>
        <pt x="131" y="799" on="0"/>
        <pt x="131" y="867" on="0"/>
        <pt x="180" y="914" on="0"/>
        <pt x="248" y="914" on="0"/>
      </contour>
      <contour>
        <pt x="231" y="792" on="0"/>
        <pt x="255" y="816" on="0"/>
        <pt x="255" y="849" on="0"/>
        <pt x="231" y="873" on="0"/>
        <pt x="197" y="873" on="0"/>
        <pt x="173" y="850" on="0"/>
        <pt x="173" y="816" on="0"/>
        <pt x="197" y="792" on="0"/>
      </contour>
    </TTGlyph>
    <TTGlyph name="Atilde" xMin="25" yMin="0" xMax="410" yMax="847">
      <contour>
        <pt x="405" y="0" on="1"/>
        <pt x="360" y="0" on="0"/>
        <pt x="343" y="12" on="0"/>
        <pt x="335" y="46" on="1"/>
        <pt x="291" y="245" on="1"/>
        <pt x="139" y="245" on="1"/>
        <pt x="85" y="0" on="1"/>
        <pt x="69" y="0" on="0"/>
        <pt x="45" y="0" on="0"/>
        <pt x="29" y="4" on="0"/>
        <pt x="25" y="10" on="0"/>
        <pt x="25" y="24" on="0"/>
        <pt x="183" y="720" on="1"/>
        <pt x="247" y="720" on="1"/>
        <pt x="410" y="0" on="1"/>
      </contour>
      <contour>
        <pt x="284" y="300" on="1"/>
        <pt x="275" y="325" on="1"/>
        <pt x="225" y="592" on="1"/>
        <pt x="206" y="592" on="1"/>
        <pt x="157" y="325" on="1"/>
        <pt x="148" y="300" on="1"/>
      </contour>
      <contour>
        <pt x="172" y="847" on="1"/>
        <pt x="292" y="843" on="1"/>
        <pt x="316" y="843" on="0"/>
        <pt x="335" y="847" on="1"/>
        <pt x="348" y="845" on="1"/>
        <pt x="348" y="824" on="1"/>
        <pt x="348" y="802" on="0"/>
        <pt x="333" y="794" on="0"/>
        <pt x="289" y="794" on="1"/>
        <pt x="170" y="798" on="1"/>
        <pt x="145" y="798" on="0"/>
        <pt x="126" y="794" on="1"/>
        <pt x="113" y="796" on="1"/>
        <pt x="113" y="817" on="1"/>
        <pt x="113" y="840" on="0"/>
        <pt x="128" y="847" on="0"/>
      </contour>
    </TTGlyph>
    <TTGlyph name="B" xMin="75" yMin="-7" xMax="384" yMax="732">
      <contour>
        <pt x="353" y="602" on="0"/>
        <pt x="354" y="570" on="0"/>
        <pt x="354" y="492" on="0"/>
        <pt x="353" y="472" on="1"/>
        <pt x="350" y="419" on="0"/>
        <pt x="323" y="395" on="1"/>
        <pt x="366" y="371" on="0"/>
        <pt x="376" y="311" on="1"/>
        <pt x="384" y="267" on="0"/>
        <pt x="384" y="162" on="0"/>
        <pt x="383" y="128" on="0"/>
        <pt x="376" y="77" on="0"/>
        <pt x="362" y="51" on="0"/>
        <pt x="335" y="19" on="0"/>
        <pt x="316" y="12" on="1"/>
        <pt x="267" y="-7" on="0"/>
        <pt x="199" y="-7" on="1"/>
        <pt x="75" y="0" on="1"/>
        <pt x="75" y="722" on="1"/>
        <pt x="179" y="732" on="1"/>
        <pt x="290" y="732" on="0"/>
        <pt x="322" y="692" on="1"/>
        <pt x="334" y="676" on="0"/>
        <pt x="347" y="652" on="0"/>
      </contour>
      <contour>
        <pt x="169" y="419" on="1"/>
        <pt x="221" y="419" on="0"/>
        <pt x="252" y="427" on="0"/>
        <pt x="268" y="432" on="0"/>
        <pt x="280" y="450" on="0"/>
        <pt x="285" y="461" on="0"/>
        <pt x="289" y="493" on="0"/>
        <pt x="289" y="504" on="1"/>
        <pt x="289" y="537" on="1"/>
        <pt x="289" y="627" on="0"/>
        <pt x="274" y="644" on="1"/>
        <pt x="253" y="668" on="0"/>
        <pt x="199" y="675" on="0"/>
        <pt x="169" y="675" on="1"/>
        <pt x="134" y="675" on="1"/>
        <pt x="138" y="650" on="1"/>
        <pt x="138" y="444" on="1"/>
        <pt x="134" y="419" on="1"/>
      </contour>
      <contour>
        <pt x="199" y="50" on="1"/>
        <pt x="260" y="50" on="0"/>
        <pt x="293" y="72" on="1"/>
        <pt x="315" y="86" on="0"/>
        <pt x="318" y="140" on="1"/>
        <pt x="319" y="157" on="0"/>
        <pt x="319" y="188" on="1"/>
        <pt x="319" y="228" on="1"/>
        <pt x="319" y="274" on="0"/>
        <pt x="315" y="290" on="0"/>
        <pt x="310" y="319" on="0"/>
        <pt x="302" y="328" on="0"/>
        <pt x="290" y="346" on="0"/>
        <pt x="274" y="351" on="0"/>
        <pt x="264" y="356" on="1"/>
        <pt x="248" y="362" on="0"/>
        <pt x="209" y="362" on="1"/>
        <pt x="134" y="362" on="1"/>
        <pt x="138" y="337" on="1"/>
        <pt x="138" y="75" on="1"/>
        <pt x="134" y="50" on="1"/>
      </contour>
    </TTGlyph>
    <TTGlyph name="C" xMin="65" yMin="-7" xMax="337" yMax="732">
      <contour>
        <pt x="326" y="8" on="0"/>
        <pt x="259" y="-7" on="0"/>
        <pt x="208" y="-7" on="0"/>
        <pt x="162" y="6" on="0"/>
        <pt x="129" y="25" on="0"/>
        <pt x="103" y="64" on="0"/>
        <pt x="86" y="96" on="0"/>
        <pt x="74" y="157" on="0"/>
        <pt x="68" y="197" on="0"/>
        <pt x="65" y="276" on="0"/>
        <pt x="65" y="298" on="1"/>
        <pt x="65" y="427" on="1"/>
        <pt x="65" y="503" on="0"/>
        <pt x="72" y="555" on="0"/>
        <pt x="80" y="612" on="0"/>
        <pt x="93" y="642" on="0"/>
        <pt x="111" y="682" on="0"/>
        <pt x="136" y="703" on="0"/>
        <pt x="152" y="714" on="1"/>
        <pt x="182" y="732" on="0"/>
        <pt x="236" y="732" on="1"/>
        <pt x="336" y="712" on="1"/>
        <pt x="336" y="683" on="0"/>
        <pt x="314" y="669" on="0"/>
        <pt x="291" y="669" on="0"/>
        <pt x="286" y="669" on="1"/>
        <pt x="236" y="675" on="1"/>
        <pt x="194" y="675" on="0"/>
        <pt x="174" y="650" on="1"/>
        <pt x="162" y="637" on="0"/>
        <pt x="146" y="611" on="0"/>
        <pt x="137" y="559" on="0"/>
        <pt x="131" y="522" on="0"/>
        <pt x="128" y="451" on="0"/>
        <pt x="128" y="430" on="1"/>
        <pt x="128" y="303" on="1"/>
        <pt x="128" y="228" on="0"/>
        <pt x="137" y="174" on="0"/>
        <pt x="146" y="122" on="0"/>
        <pt x="162" y="96" on="0"/>
        <pt x="174" y="82" on="1"/>
        <pt x="194" y="57" on="0"/>
        <pt x="236" y="57" on="1"/>
        <pt x="259" y="57" on="0"/>
        <pt x="323" y="66" on="0"/>
        <pt x="337" y="67" on="1"/>
        <pt x="337" y="10" on="1"/>
      </contour>
    </TTGlyph>
    <TTGlyph name="Ccedilla" xMin="65" yMin="-154" xMax="337" yMax="732">
      <contour>
        <pt x="337" y="10" on="1"/>
        <pt x="259" y="-6" on="1"/>
        <pt x="259" y="-108" on="1"/>
        <pt x="259" y="-138" on="0"/>
        <pt x="244" y="-154" on="0"/>
        <pt x="214" y="-154" on="1"/>
        <pt x="179" y="-154" on="1"/>
        <pt x="139" y="-154" on="0"/>
        <pt x="126" y="-142" on="0"/>
        <pt x="126" y="-108" on="1"/>
        <pt x="213" y="-108" on="1"/>
        <pt x="213" y="-6" on="1"/>
        <pt x="170" y="-2" on="0"/>
        <pt x="134" y="24" on="1"/>
        <pt x="116" y="37" on="0"/>
        <pt x="65" y="142" on="0"/>
        <pt x="65" y="302" on="1"/>
        <pt x="65" y="427" on="1"/>
        <pt x="65" y="503" on="0"/>
        <pt x="72" y="555" on="0"/>
        <pt x="80" y="612" on="0"/>
        <pt x="93" y="642" on="0"/>
        <pt x="111" y="682" on="0"/>
        <pt x="136" y="703" on="0"/>
        <pt x="152" y="714" on="1"/>
        <pt x="182" y="732" on="0"/>
        <pt x="236" y="732" on="1"/>
        <pt x="336" y="712" on="1"/>
        <pt x="336" y="683" on="0"/>
        <pt x="314" y="669" on="0"/>
        <pt x="291" y="669" on="0"/>
        <pt x="286" y="669" on="1"/>
        <pt x="236" y="675" on="1"/>
        <pt x="194" y="675" on="0"/>
        <pt x="174" y="650" on="1"/>
        <pt x="162" y="637" on="0"/>
        <pt x="146" y="611" on="0"/>
        <pt x="137" y="559" on="0"/>
        <pt x="131" y="522" on="0"/>
        <pt x="128" y="451" on="0"/>
        <pt x="128" y="430" on="1"/>
        <pt x="128" y="303" on="1"/>
        <pt x="128" y="228" on="0"/>
        <pt x="137" y="174" on="0"/>
        <pt x="146" y="122" on="0"/>
        <pt x="162" y="96" on="0"/>
        <pt x="174" y="82" on="1"/>
        <pt x="194" y="57" on="0"/>
        <pt x="236" y="57" on="1"/>
        <pt x="259" y="57" on="0"/>
        <pt x="323" y="66" on="0"/>
        <pt x="337" y="67" on="1"/>
      </contour>
    </TTGlyph>
    <TTGlyph name="D" xMin="75" yMin="-7" xMax="407" yMax="732">
      <contour>
        <pt x="407" y="427" on="1"/>
        <pt x="407" y="298" on="1"/>
        <pt x="407" y="217" on="0"/>
        <pt x="398" y="157" on="0"/>
        <pt x="386" y="96" on="0"/>
        <pt x="369" y="64" on="0"/>
        <pt x="343" y="25" on="0"/>
        <pt x="326" y="16" on="1"/>
        <pt x="287" y="-7" on="0"/>
        <pt x="236" y="-7" on="1"/>
        <pt x="75" y="0" on="1"/>
        <pt x="75" y="722" on="1"/>
        <pt x="236" y="732" on="1"/>
        <pt x="290" y="732" on="0"/>
        <pt x="336" y="703" on="0"/>
        <pt x="361" y="682" on="0"/>
        <pt x="379" y="642" on="0"/>
        <pt x="392" y="612" on="0"/>
        <pt x="400" y="555" on="0"/>
        <pt x="402" y="536" on="1"/>
        <pt x="407" y="503" on="0"/>
      </contour>
      <contour>
        <pt x="236" y="50" on="1"/>
        <pt x="277" y="50" on="0"/>
        <pt x="298" y="76" on="1"/>
        <pt x="310" y="90" on="0"/>
        <pt x="326" y="118" on="0"/>
        <pt x="335" y="171" on="0"/>
        <pt x="341" y="208" on="0"/>
        <pt x="344" y="281" on="0"/>
        <pt x="344" y="302" on="1"/>
        <pt x="344" y="430" on="1"/>
        <pt x="344" y="504" on="0"/>
        <pt x="335" y="559" on="0"/>
        <pt x="326" y="611" on="0"/>
        <pt x="310" y="637" on="0"/>
        <pt x="298" y="650" on="1"/>
        <pt x="278" y="675" on="0"/>
        <pt x="236" y="675" on="1"/>
        <pt x="134" y="675" on="1"/>
        <pt x="138" y="650" on="1"/>
        <pt x="138" y="75" on="1"/>
        <pt x="134" y="50" on="1"/>
      </contour>
    </TTGlyph>
    <TTGlyph name="E" xMin="75" yMin="0" xMax="348" yMax="720">
      <contour>
        <pt x="348" y="0" on="1"/>
        <pt x="75" y="0" on="1"/>
        <pt x="75" y="720" on="1"/>
        <pt x="338" y="720" on="1"/>
        <pt x="338" y="667" on="1"/>
        <pt x="137" y="667" on="1"/>
        <pt x="141" y="642" on="1"/>
        <pt x="141" y="443" on="1"/>
        <pt x="137" y="418" on="1"/>
        <pt x="324" y="418" on="1"/>
        <pt x="324" y="361" on="1"/>
        <pt x="137" y="361" on="1"/>
        <pt x="141" y="336" on="1"/>
        <pt x="141" y="82" on="1"/>
        <pt x="137" y="57" on="1"/>
        <pt x="348" y="57" on="1"/>
      </contour>
    </TTGlyph>
    <TTGlyph name="E_S" xMin="75" yMin="-7" xMax="679" yMax="732">
      <contour>
        <pt x="75" y="0" on="1"/>
        <pt x="75" y="720" on="1"/>
        <pt x="318" y="720" on="1"/>
        <pt x="318" y="667" on="1"/>
        <pt x="137" y="667" on="1"/>
        <pt x="141" y="642" on="1"/>
        <pt x="141" y="443" on="1"/>
        <pt x="137" y="418" on="1"/>
        <pt x="304" y="418" on="1"/>
        <pt x="304" y="361" on="1"/>
        <pt x="137" y="361" on="1"/>
        <pt x="141" y="336" on="1"/>
        <pt x="141" y="84" on="1"/>
        <pt x="137" y="59" on="1"/>
        <pt x="509" y="59" on="1"/>
        <pt x="577" y="59" on="0"/>
        <pt x="596" y="89" on="1"/>
        <pt x="603" y="101" on="0"/>
        <pt x="611" y="116" on="0"/>
        <pt x="614" y="152" on="0"/>
        <pt x="615" y="169" on="0"/>
        <pt x="614" y="213" on="0"/>
        <pt x="614" y="221" on="1"/>
        <pt x="614" y="270" on="0"/>
        <pt x="526" y="346" on="1"/>
        <pt x="490" y="377" on="0"/>
        <pt x="416" y="443" on="0"/>
        <pt x="365" y="525" on="0"/>
        <pt x="365" y="596" on="0"/>
        <pt x="366" y="621" on="0"/>
        <pt x="371" y="666" on="0"/>
        <pt x="383" y="685" on="0"/>
        <pt x="406" y="713" on="0"/>
        <pt x="424" y="718" on="1"/>
        <pt x="472" y="732" on="0"/>
        <pt x="527" y="732" on="1"/>
        <pt x="633" y="712" on="1"/>
        <pt x="633" y="674" on="0"/>
        <pt x="613" y="671" on="1"/>
        <pt x="605" y="670" on="0"/>
        <pt x="589" y="671" on="1"/>
        <pt x="533" y="677" on="1"/>
        <pt x="461" y="677" on="0"/>
        <pt x="444" y="646" on="1"/>
        <pt x="434" y="630" on="0"/>
        <pt x="429" y="600" on="0"/>
        <pt x="429" y="545" on="0"/>
        <pt x="466" y="488" on="0"/>
        <pt x="522" y="441" on="0"/>
        <pt x="586" y="385" on="0"/>
        <pt x="642" y="334" on="0"/>
        <pt x="679" y="267" on="0"/>
        <pt x="679" y="233" on="1"/>
        <pt x="679" y="130" on="0"/>
        <pt x="670" y="95" on="1"/>
        <pt x="643" y="-7" on="0"/>
        <pt x="508" y="-7" on="1"/>
        <pt x="349" y="0" on="1"/>
      </contour>
    </TTGlyph>
    <TTGlyph name="E_s" xMin="75" yMin="-4" xMax="584" yMax="720">
      <contour>
        <pt x="75" y="0" on="1"/>
        <pt x="75" y="720" on="1"/>
        <pt x="328" y="720" on="1"/>
        <pt x="328" y="667" on="1"/>
        <pt x="137" y="667" on="1"/>
        <pt x="141" y="642" on="1"/>
        <pt x="141" y="443" on="1"/>
        <pt x="137" y="418" on="1"/>
        <pt x="284" y="418" on="1"/>
        <pt x="284" y="361" on="1"/>
        <pt x="137" y="361" on="1"/>
        <pt x="141" y="336" on="1"/>
        <pt x="141" y="82" on="1"/>
        <pt x="137" y="57" on="1"/>
        <pt x="348" y="57" on="1"/>
        <pt x="468" y="54" on="1"/>
        <pt x="524" y="54" on="0"/>
        <pt x="524" y="158" on="1"/>
        <pt x="524" y="165" on="0"/>
        <pt x="524" y="172" on="1"/>
        <pt x="523" y="204" on="0"/>
        <pt x="401" y="297" on="0"/>
        <pt x="343" y="367" on="0"/>
        <pt x="343" y="439" on="0"/>
        <pt x="345" y="467" on="0"/>
        <pt x="357" y="509" on="0"/>
        <pt x="369" y="518" on="1"/>
        <pt x="400" y="543" on="0"/>
        <pt x="463" y="543" on="1"/>
        <pt x="558" y="529" on="1"/>
        <pt x="558" y="485" on="0"/>
        <pt x="522" y="485" on="1"/>
        <pt x="515" y="485" on="0"/>
        <pt x="508" y="486" on="1"/>
        <pt x="467" y="492" on="1"/>
        <pt x="418" y="492" on="0"/>
        <pt x="407" y="470" on="1"/>
        <pt x="398" y="451" on="0"/>
        <pt x="398" y="378" on="0"/>
        <pt x="476" y="316" on="1"/>
        <pt x="512" y="289" on="0"/>
        <pt x="549" y="257" on="0"/>
        <pt x="584" y="205" on="0"/>
        <pt x="584" y="156" on="0"/>
        <pt x="582" y="121" on="0"/>
        <pt x="575" y="73" on="0"/>
        <pt x="560" y="41" on="0"/>
        <pt x="548" y="26" on="1"/>
        <pt x="524" y="-4" on="0"/>
        <pt x="469" y="-4" on="1"/>
        <pt x="348" y="0" on="1"/>
      </contour>
    </TTGlyph>
    <TTGlyph name="Eacute" xMin="75" yMin="0" xMax="348" yMax="927">
      <contour>
        <pt x="348" y="0" on="1"/>
        <pt x="75" y="0" on="1"/>
        <pt x="75" y="720" on="1"/>
        <pt x="338" y="720" on="1"/>
        <pt x="338" y="667" on="1"/>
        <pt x="137" y="667" on="1"/>
        <pt x="141" y="642" on="1"/>
        <pt x="141" y="443" on="1"/>
        <pt x="137" y="418" on="1"/>
        <pt x="324" y="418" on="1"/>
        <pt x="324" y="361" on="1"/>
        <pt x="137" y="361" on="1"/>
        <pt x="141" y="336" on="1"/>
        <pt x="141" y="82" on="1"/>
        <pt x="137" y="57" on="1"/>
        <pt x="348" y="57" on="1"/>
      </contour>
      <contour>
        <pt x="254" y="894" on="1"/>
        <pt x="287" y="927" on="0"/>
        <pt x="295" y="927" on="1"/>
        <pt x="305" y="927" on="0"/>
        <pt x="336" y="896" on="1"/>
        <pt x="221" y="782" on="1"/>
        <pt x="186" y="818" on="1"/>
      </contour>
    </TTGlyph>
    <TTGlyph name="Ecircumflex" xMin="75" yMin="0" xMax="348" yMax="927">
      <contour>
        <pt x="348" y="0" on="1"/>
        <pt x="75" y="0" on="1"/>
        <pt x="75" y="720" on="1"/>
        <pt x="338" y="720" on="1"/>
        <pt x="338" y="667" on="1"/>
        <pt x="137" y="667" on="1"/>
        <pt x="141" y="642" on="1"/>
        <pt x="141" y="443" on="1"/>
        <pt x="137" y="418" on="1"/>
        <pt x="324" y="418" on="1"/>
        <pt x="324" y="361" on="1"/>
        <pt x="137" y="361" on="1"/>
        <pt x="141" y="336" on="1"/>
        <pt x="141" y="82" on="1"/>
        <pt x="137" y="57" on="1"/>
        <pt x="348" y="57" on="1"/>
      </contour>
      <contour>
        <pt x="322" y="812" on="1"/>
        <pt x="204" y="878" on="1"/>
        <pt x="87" y="812" on="1"/>
        <pt x="87" y="867" on="1"/>
        <pt x="191" y="927" on="1"/>
        <pt x="217" y="927" on="1"/>
        <pt x="322" y="866" on="1"/>
      </contour>
    </TTGlyph>
    <TTGlyph name="Edieresis" xMin="75" yMin="0" xMax="348" yMax="915">
      <contour>
        <pt x="348" y="0" on="1"/>
        <pt x="75" y="0" on="1"/>
        <pt x="75" y="720" on="1"/>
        <pt x="338" y="720" on="1"/>
        <pt x="338" y="667" on="1"/>
        <pt x="137" y="667" on="1"/>
        <pt x="141" y="642" on="1"/>
        <pt x="141" y="443" on="1"/>
        <pt x="137" y="418" on="1"/>
        <pt x="324" y="418" on="1"/>
        <pt x="324" y="361" on="1"/>
        <pt x="137" y="361" on="1"/>
        <pt x="141" y="336" on="1"/>
        <pt x="141" y="82" on="1"/>
        <pt x="137" y="57" on="1"/>
        <pt x="348" y="57" on="1"/>
      </contour>
      <contour>
        <pt x="163" y="824" on="0"/>
        <pt x="125" y="824" on="0"/>
        <pt x="98" y="851" on="0"/>
        <pt x="98" y="889" on="0"/>
        <pt x="125" y="915" on="0"/>
        <pt x="163" y="915" on="0"/>
        <pt x="190" y="889" on="0"/>
        <pt x="190" y="851" on="0"/>
      </contour>
      <contour>
        <pt x="306" y="824" on="0"/>
        <pt x="268" y="824" on="0"/>
        <pt x="241" y="851" on="0"/>
        <pt x="241" y="889" on="0"/>
        <pt x="268" y="915" on="0"/>
        <pt x="306" y="915" on="0"/>
        <pt x="333" y="889" on="0"/>
        <pt x="333" y="851" on="0"/>
      </contour>
    </TTGlyph>
    <TTGlyph name="Egrave" xMin="75" yMin="0" xMax="348" yMax="927">
      <contour>
        <pt x="348" y="0" on="1"/>
        <pt x="75" y="0" on="1"/>
        <pt x="75" y="720" on="1"/>
        <pt x="338" y="720" on="1"/>
        <pt x="338" y="667" on="1"/>
        <pt x="137" y="667" on="1"/>
        <pt x="141" y="642" on="1"/>
        <pt x="141" y="443" on="1"/>
        <pt x="137" y="418" on="1"/>
        <pt x="324" y="418" on="1"/>
        <pt x="324" y="361" on="1"/>
        <pt x="137" y="361" on="1"/>
        <pt x="141" y="336" on="1"/>
        <pt x="141" y="82" on="1"/>
        <pt x="137" y="57" on="1"/>
        <pt x="348" y="57" on="1"/>
      </contour>
      <contour>
        <pt x="128" y="896" on="1"/>
        <pt x="159" y="927" on="0"/>
        <pt x="177" y="927" on="0"/>
        <pt x="210" y="894" on="1"/>
        <pt x="278" y="818" on="1"/>
        <pt x="243" y="782" on="1"/>
      </contour>
    </TTGlyph>
    <TTGlyph name="Eth" xMin="60" yMin="-7" xMax="412" yMax="732">
      <contour>
        <pt x="412" y="427" on="1"/>
        <pt x="412" y="298" on="1"/>
        <pt x="412" y="217" on="0"/>
        <pt x="403" y="157" on="0"/>
        <pt x="391" y="96" on="0"/>
        <pt x="374" y="64" on="0"/>
        <pt x="348" y="25" on="0"/>
        <pt x="332" y="16" on="1"/>
        <pt x="292" y="-7" on="0"/>
        <pt x="241" y="-7" on="1"/>
        <pt x="60" y="0" on="1"/>
        <pt x="60" y="722" on="1"/>
        <pt x="241" y="732" on="1"/>
        <pt x="295" y="732" on="0"/>
        <pt x="341" y="703" on="0"/>
        <pt x="366" y="682" on="0"/>
        <pt x="384" y="642" on="0"/>
        <pt x="397" y="612" on="0"/>
        <pt x="405" y="555" on="0"/>
        <pt x="408" y="536" on="1"/>
        <pt x="412" y="503" on="0"/>
      </contour>
      <contour>
        <pt x="241" y="50" on="1"/>
        <pt x="282" y="50" on="0"/>
        <pt x="304" y="76" on="1"/>
        <pt x="315" y="90" on="0"/>
        <pt x="331" y="118" on="0"/>
        <pt x="340" y="171" on="0"/>
        <pt x="346" y="208" on="0"/>
        <pt x="349" y="281" on="0"/>
        <pt x="349" y="302" on="1"/>
        <pt x="349" y="430" on="1"/>
        <pt x="349" y="504" on="0"/>
        <pt x="340" y="559" on="0"/>
        <pt x="331" y="611" on="0"/>
        <pt x="315" y="637" on="0"/>
        <pt x="304" y="650" on="1"/>
        <pt x="283" y="675" on="0"/>
        <pt x="241" y="675" on="1"/>
        <pt x="114" y="675" on="1"/>
        <pt x="123" y="636" on="1"/>
        <pt x="123" y="454" on="1"/>
        <pt x="118" y="420" on="1"/>
        <pt x="246" y="420" on="1"/>
        <pt x="246" y="369" on="1"/>
        <pt x="118" y="369" on="1"/>
        <pt x="123" y="331" on="1"/>
        <pt x="123" y="78" on="1"/>
        <pt x="118" y="50" on="1"/>
      </contour>
    </TTGlyph>
    <TTGlyph name="Euro" xMin="29" yMin="-6" xMax="334" yMax="545">
      <contour>
        <pt x="109" y="203" on="1"/>
        <pt x="89" y="204" on="0"/>
        <pt x="54" y="204" on="0"/>
        <pt x="42" y="202" on="1"/>
        <pt x="29" y="204" on="1"/>
        <pt x="29" y="225" on="1"/>
        <pt x="29" y="248" on="0"/>
        <pt x="44" y="255" on="0"/>
        <pt x="88" y="255" on="1"/>
        <pt x="108" y="255" on="1"/>
        <pt x="104" y="267" on="1"/>
        <pt x="104" y="293" on="1"/>
        <pt x="108" y="302" on="1"/>
        <pt x="89" y="303" on="0"/>
        <pt x="56" y="303" on="0"/>
        <pt x="45" y="301" on="1"/>
        <pt x="32" y="303" on="1"/>
        <pt x="32" y="324" on="1"/>
        <pt x="32" y="346" on="0"/>
        <pt x="47" y="354" on="0"/>
        <pt x="91" y="354" on="1"/>
        <pt x="108" y="354" on="1"/>
        <pt x="104" y="369" on="1"/>
        <pt x="107" y="468" on="0"/>
        <pt x="158" y="545" on="0"/>
        <pt x="235" y="545" on="1"/>
        <pt x="334" y="538" on="1"/>
        <pt x="334" y="504" on="0"/>
        <pt x="322" y="492" on="0"/>
        <pt x="284" y="492" on="1"/>
        <pt x="235" y="492" on="1"/>
        <pt x="194" y="492" on="0"/>
        <pt x="164" y="437" on="0"/>
        <pt x="162" y="366" on="1"/>
        <pt x="156" y="350" on="1"/>
        <pt x="225" y="344" on="0"/>
        <pt x="284" y="344" on="0"/>
        <pt x="294" y="346" on="1"/>
        <pt x="307" y="344" on="1"/>
        <pt x="307" y="323" on="1"/>
        <pt x="307" y="300" on="0"/>
        <pt x="292" y="293" on="0"/>
        <pt x="215" y="293" on="0"/>
        <pt x="158" y="298" on="1"/>
        <pt x="162" y="288" on="1"/>
        <pt x="162" y="263" on="1"/>
        <pt x="158" y="250" on="1"/>
        <pt x="225" y="245" on="0"/>
        <pt x="282" y="245" on="0"/>
        <pt x="291" y="247" on="1"/>
        <pt x="304" y="245" on="1"/>
        <pt x="304" y="224" on="1"/>
        <pt x="304" y="202" on="0"/>
        <pt x="289" y="194" on="0"/>
        <pt x="224" y="194" on="0"/>
        <pt x="158" y="198" on="1"/>
        <pt x="162" y="186" on="1"/>
        <pt x="164" y="109" on="0"/>
        <pt x="193" y="47" on="0"/>
        <pt x="235" y="47" on="1"/>
        <pt x="334" y="47" on="1"/>
        <pt x="334" y="1" on="1"/>
        <pt x="235" y="-6" on="1"/>
        <pt x="155" y="-6" on="0"/>
        <pt x="106" y="79" on="0"/>
        <pt x="104" y="191" on="1"/>
      </contour>
    </TTGlyph>
    <TTGlyph name="F" xMin="75" yMin="0" xMax="338" yMax="720">
      <contour>
        <pt x="141" y="0" on="1"/>
        <pt x="133" y="0" on="1"/>
        <pt x="90" y="0" on="0"/>
        <pt x="75" y="12" on="0"/>
        <pt x="75" y="46" on="1"/>
        <pt x="75" y="720" on="1"/>
        <pt x="338" y="720" on="1"/>
        <pt x="338" y="667" on="1"/>
        <pt x="137" y="667" on="1"/>
        <pt x="141" y="642" on="1"/>
        <pt x="141" y="443" on="1"/>
        <pt x="137" y="418" on="1"/>
        <pt x="324" y="418" on="1"/>
        <pt x="324" y="361" on="1"/>
        <pt x="137" y="361" on="1"/>
        <pt x="141" y="336" on="1"/>
      </contour>
    </TTGlyph>
    <TTGlyph name="G" xMin="75" yMin="-7" xMax="386" yMax="732">
      <contour>
        <pt x="323" y="307" on="1"/>
        <pt x="323" y="350" on="0"/>
        <pt x="335" y="365" on="0"/>
        <pt x="369" y="365" on="1"/>
        <pt x="386" y="365" on="1"/>
        <pt x="386" y="10" on="1"/>
        <pt x="371" y="8" on="0"/>
        <pt x="342" y="3" on="1"/>
        <pt x="284" y="-7" on="0"/>
        <pt x="218" y="-7" on="0"/>
        <pt x="172" y="6" on="0"/>
        <pt x="139" y="25" on="0"/>
        <pt x="113" y="64" on="0"/>
        <pt x="96" y="96" on="0"/>
        <pt x="84" y="157" on="0"/>
        <pt x="78" y="197" on="0"/>
        <pt x="75" y="276" on="0"/>
        <pt x="75" y="298" on="1"/>
        <pt x="75" y="427" on="1"/>
        <pt x="75" y="503" on="0"/>
        <pt x="82" y="555" on="0"/>
        <pt x="90" y="612" on="0"/>
        <pt x="103" y="642" on="0"/>
        <pt x="121" y="682" on="0"/>
        <pt x="146" y="703" on="0"/>
        <pt x="162" y="714" on="1"/>
        <pt x="192" y="732" on="0"/>
        <pt x="246" y="732" on="1"/>
        <pt x="366" y="712" on="1"/>
        <pt x="366" y="683" on="0"/>
        <pt x="344" y="669" on="0"/>
        <pt x="321" y="669" on="0"/>
        <pt x="316" y="669" on="1"/>
        <pt x="246" y="675" on="1"/>
        <pt x="204" y="675" on="0"/>
        <pt x="184" y="650" on="1"/>
        <pt x="172" y="637" on="0"/>
        <pt x="156" y="611" on="0"/>
        <pt x="147" y="559" on="0"/>
        <pt x="141" y="522" on="0"/>
        <pt x="138" y="451" on="0"/>
        <pt x="138" y="430" on="1"/>
        <pt x="138" y="302" on="1"/>
        <pt x="138" y="226" on="0"/>
        <pt x="147" y="171" on="0"/>
        <pt x="156" y="118" on="0"/>
        <pt x="172" y="90" on="0"/>
        <pt x="184" y="76" on="1"/>
        <pt x="205" y="50" on="0"/>
        <pt x="246" y="50" on="1"/>
        <pt x="277" y="50" on="0"/>
        <pt x="327" y="60" on="1"/>
        <pt x="323" y="85" on="1"/>
      </contour>
    </TTGlyph>
    <TTGlyph name="H" xMin="75" yMin="0" xMax="382" yMax="720">
      <contour>
        <pt x="382" y="0" on="1"/>
        <pt x="378" y="0" on="1"/>
        <pt x="335" y="0" on="0"/>
        <pt x="320" y="12" on="0"/>
        <pt x="320" y="46" on="1"/>
        <pt x="320" y="336" on="1"/>
        <pt x="324" y="361" on="1"/>
        <pt x="133" y="361" on="1"/>
        <pt x="137" y="336" on="1"/>
        <pt x="137" y="46" on="1"/>
        <pt x="137" y="12" on="0"/>
        <pt x="122" y="0" on="0"/>
        <pt x="79" y="0" on="1"/>
        <pt x="75" y="0" on="1"/>
        <pt x="75" y="720" on="1"/>
        <pt x="79" y="720" on="1"/>
        <pt x="122" y="720" on="0"/>
        <pt x="137" y="708" on="0"/>
        <pt x="137" y="674" on="1"/>
        <pt x="137" y="443" on="1"/>
        <pt x="133" y="418" on="1"/>
        <pt x="324" y="418" on="1"/>
        <pt x="320" y="443" on="1"/>
        <pt x="320" y="720" on="1"/>
        <pt x="324" y="720" on="1"/>
        <pt x="367" y="720" on="0"/>
        <pt x="382" y="708" on="0"/>
        <pt x="382" y="674" on="1"/>
      </contour>
    </TTGlyph>
    <TTGlyph name="I" xMin="75" yMin="0" xMax="138" yMax="720">
      <contour>
        <pt x="138" y="0" on="1"/>
        <pt x="133" y="0" on="1"/>
        <pt x="90" y="0" on="0"/>
        <pt x="75" y="12" on="0"/>
        <pt x="75" y="46" on="1"/>
        <pt x="75" y="720" on="1"/>
        <pt x="80" y="720" on="1"/>
        <pt x="123" y="720" on="0"/>
        <pt x="138" y="708" on="0"/>
        <pt x="138" y="674" on="1"/>
      </contour>
    </TTGlyph>
    <TTGlyph name="Iacute" xMin="75" yMin="0" xMax="237" yMax="927">
      <contour>
        <pt x="138" y="0" on="1"/>
        <pt x="133" y="0" on="1"/>
        <pt x="90" y="0" on="0"/>
        <pt x="75" y="12" on="0"/>
        <pt x="75" y="46" on="1"/>
        <pt x="75" y="720" on="1"/>
        <pt x="80" y="720" on="1"/>
        <pt x="123" y="720" on="0"/>
        <pt x="138" y="708" on="0"/>
        <pt x="138" y="674" on="1"/>
      </contour>
      <contour>
        <pt x="155" y="894" on="1"/>
        <pt x="188" y="927" on="0"/>
        <pt x="196" y="927" on="1"/>
        <pt x="206" y="927" on="0"/>
        <pt x="237" y="896" on="1"/>
        <pt x="122" y="782" on="1"/>
        <pt x="87" y="818" on="1"/>
      </contour>
    </TTGlyph>
    <TTGlyph name="Icircumflex" xMin="-9" yMin="0" xMax="226" yMax="927">
      <contour>
        <pt x="138" y="0" on="1"/>
        <pt x="133" y="0" on="1"/>
        <pt x="90" y="0" on="0"/>
        <pt x="75" y="12" on="0"/>
        <pt x="75" y="46" on="1"/>
        <pt x="75" y="720" on="1"/>
        <pt x="80" y="720" on="1"/>
        <pt x="123" y="720" on="0"/>
        <pt x="138" y="708" on="0"/>
        <pt x="138" y="674" on="1"/>
      </contour>
      <contour>
        <pt x="226" y="812" on="1"/>
        <pt x="108" y="878" on="1"/>
        <pt x="-9" y="812" on="1"/>
        <pt x="-9" y="867" on="1"/>
        <pt x="95" y="927" on="1"/>
        <pt x="121" y="927" on="1"/>
        <pt x="226" y="866" on="1"/>
      </contour>
    </TTGlyph>
    <TTGlyph name="Idieresis" xMin="-10" yMin="0" xMax="225" yMax="915">
      <contour>
        <pt x="138" y="0" on="1"/>
        <pt x="133" y="0" on="1"/>
        <pt x="90" y="0" on="0"/>
        <pt x="75" y="12" on="0"/>
        <pt x="75" y="46" on="1"/>
        <pt x="75" y="720" on="1"/>
        <pt x="80" y="720" on="1"/>
        <pt x="123" y="720" on="0"/>
        <pt x="138" y="708" on="0"/>
        <pt x="138" y="674" on="1"/>
      </contour>
      <contour>
        <pt x="55" y="824" on="0"/>
        <pt x="17" y="824" on="0"/>
        <pt x="-10" y="851" on="0"/>
        <pt x="-10" y="889" on="0"/>
        <pt x="17" y="915" on="0"/>
        <pt x="55" y="915" on="0"/>
        <pt x="82" y="889" on="0"/>
        <pt x="82" y="851" on="0"/>
      </contour>
      <contour>
        <pt x="198" y="824" on="0"/>
        <pt x="160" y="824" on="0"/>
        <pt x="133" y="851" on="0"/>
        <pt x="133" y="889" on="0"/>
        <pt x="160" y="915" on="0"/>
        <pt x="198" y="915" on="0"/>
        <pt x="225" y="889" on="0"/>
        <pt x="225" y="851" on="0"/>
      </contour>
    </TTGlyph>
    <TTGlyph name="Igrave" xMin="16" yMin="0" xMax="166" yMax="927">
      <component glyphName="I" x="0" y="0" flags="0x1004"/>
      <component glyphName="grave" x="7" y="195" flags="0x1004"/>
    </TTGlyph>
    <TTGlyph name="J" xMin="15" yMin="-200" xMax="181" yMax="720">
      <contour>
        <pt x="15" y="-200" on="1"/>
        <pt x="15" y="-150" on="1"/>
        <pt x="56" y="-150" on="0"/>
        <pt x="74" y="-128" on="1"/>
        <pt x="85" y="-116" on="0"/>
        <pt x="100" y="-94" on="0"/>
        <pt x="110" y="-46" on="0"/>
        <pt x="115" y="-13" on="0"/>
        <pt x="118" y="56" on="0"/>
        <pt x="118" y="76" on="1"/>
        <pt x="118" y="720" on="1"/>
        <pt x="123" y="720" on="1"/>
        <pt x="166" y="720" on="0"/>
        <pt x="181" y="708" on="0"/>
        <pt x="181" y="674" on="1"/>
        <pt x="181" y="139" on="1"/>
        <pt x="181" y="60" on="0"/>
        <pt x="178" y="-15" on="0"/>
        <pt x="162" y="-120" on="0"/>
        <pt x="128" y="-165" on="0"/>
        <pt x="64" y="-200" on="0"/>
      </contour>
    </TTGlyph>
    <TTGlyph name="K" xMin="75" yMin="0" xMax="375" yMax="720">
      <contour>
        <pt x="371" y="0" on="1"/>
        <pt x="324" y="0" on="0"/>
        <pt x="296" y="13" on="0"/>
        <pt x="280" y="46" on="1"/>
        <pt x="151" y="363" on="1"/>
        <pt x="300" y="720" on="1"/>
        <pt x="304" y="720" on="1"/>
        <pt x="336" y="720" on="0"/>
        <pt x="357" y="716" on="0"/>
        <pt x="357" y="704" on="0"/>
        <pt x="219" y="363" on="1"/>
        <pt x="375" y="0" on="1"/>
      </contour>
      <contour>
        <pt x="79" y="0" on="1"/>
        <pt x="75" y="0" on="1"/>
        <pt x="75" y="720" on="1"/>
        <pt x="79" y="720" on="1"/>
        <pt x="122" y="720" on="0"/>
        <pt x="137" y="708" on="0"/>
        <pt x="137" y="674" on="1"/>
        <pt x="137" y="46" on="1"/>
        <pt x="137" y="12" on="0"/>
        <pt x="122" y="0" on="0"/>
      </contour>
    </TTGlyph>
    <TTGlyph name="L" xMin="75" yMin="0" xMax="324" yMax="720">
      <contour>
        <pt x="324" y="0" on="1"/>
        <pt x="75" y="0" on="1"/>
        <pt x="75" y="720" on="1"/>
        <pt x="83" y="720" on="1"/>
        <pt x="126" y="720" on="0"/>
        <pt x="141" y="708" on="0"/>
        <pt x="141" y="674" on="1"/>
        <pt x="141" y="82" on="1"/>
        <pt x="137" y="57" on="1"/>
        <pt x="266" y="57" on="1"/>
        <pt x="309" y="57" on="0"/>
        <pt x="324" y="45" on="0"/>
        <pt x="324" y="11" on="1"/>
      </contour>
    </TTGlyph>
    <TTGlyph name="Lslash" xMin="-4" yMin="0" xMax="324" yMax="720">
      <component glyphName="L" x="0" y="0" flags="0x1004"/>
      <component glyphName="endash" x="-64" y="0" flags="0x1004"/>
    </TTGlyph>
    <TTGlyph name="M" xMin="71" yMin="0" xMax="508" yMax="720">
      <contour>
        <pt x="508" y="0" on="1"/>
        <pt x="504" y="0" on="1"/>
        <pt x="461" y="0" on="0"/>
        <pt x="447" y="12" on="0"/>
        <pt x="446" y="46" on="1"/>
        <pt x="450" y="578" on="1"/>
        <pt x="439" y="578" on="1"/>
        <pt x="435" y="560" on="1"/>
        <pt x="334" y="347" on="1"/>
        <pt x="310" y="301" on="1"/>
        <pt x="270" y="301" on="1"/>
        <pt x="245" y="346" on="1"/>
        <pt x="142" y="560" on="1"/>
        <pt x="139" y="578" on="1"/>
        <pt x="129" y="578" on="1"/>
        <pt x="132" y="46" on="1"/>
        <pt x="132" y="12" on="0"/>
        <pt x="118" y="0" on="0"/>
        <pt x="75" y="0" on="1"/>
        <pt x="71" y="0" on="1"/>
        <pt x="71" y="720" on="1"/>
        <pt x="76" y="720" on="1"/>
        <pt x="119" y="720" on="0"/>
        <pt x="138" y="708" on="0"/>
        <pt x="155" y="674" on="1"/>
        <pt x="282" y="400" on="1"/>
        <pt x="297" y="400" on="1"/>
        <pt x="446" y="720" on="1"/>
        <pt x="451" y="720" on="1"/>
        <pt x="494" y="720" on="0"/>
        <pt x="508" y="708" on="0"/>
        <pt x="508" y="674" on="1"/>
      </contour>
    </TTGlyph>
    <TTGlyph name="N" xMin="71" yMin="0" xMax="384" yMax="720">
      <contour>
        <pt x="384" y="0" on="1"/>
        <pt x="380" y="0" on="1"/>
        <pt x="337" y="0" on="0"/>
        <pt x="319" y="11" on="0"/>
        <pt x="306" y="46" on="1"/>
        <pt x="144" y="521" on="1"/>
        <pt x="139" y="548" on="1"/>
        <pt x="132" y="548" on="1"/>
        <pt x="132" y="46" on="1"/>
        <pt x="132" y="12" on="0"/>
        <pt x="118" y="0" on="0"/>
        <pt x="75" y="0" on="1"/>
        <pt x="71" y="0" on="1"/>
        <pt x="71" y="720" on="1"/>
        <pt x="76" y="720" on="1"/>
        <pt x="118" y="720" on="0"/>
        <pt x="136" y="709" on="0"/>
        <pt x="149" y="674" on="1"/>
        <pt x="311" y="188" on="1"/>
        <pt x="316" y="161" on="1"/>
        <pt x="323" y="161" on="1"/>
        <pt x="323" y="720" on="1"/>
        <pt x="327" y="720" on="1"/>
        <pt x="370" y="720" on="0"/>
        <pt x="384" y="708" on="0"/>
        <pt x="384" y="674" on="1"/>
      </contour>
    </TTGlyph>
    <TTGlyph name="Ntilde" xMin="71" yMin="0" xMax="384" yMax="847">
      <contour>
        <pt x="384" y="0" on="1"/>
        <pt x="380" y="0" on="1"/>
        <pt x="337" y="0" on="0"/>
        <pt x="319" y="11" on="0"/>
        <pt x="306" y="46" on="1"/>
        <pt x="144" y="521" on="1"/>
        <pt x="139" y="548" on="1"/>
        <pt x="132" y="548" on="1"/>
        <pt x="132" y="46" on="1"/>
        <pt x="132" y="12" on="0"/>
        <pt x="118" y="0" on="0"/>
        <pt x="75" y="0" on="1"/>
        <pt x="71" y="0" on="1"/>
        <pt x="71" y="720" on="1"/>
        <pt x="76" y="720" on="1"/>
        <pt x="118" y="720" on="0"/>
        <pt x="136" y="709" on="0"/>
        <pt x="149" y="674" on="1"/>
        <pt x="311" y="188" on="1"/>
        <pt x="316" y="161" on="1"/>
        <pt x="323" y="161" on="1"/>
        <pt x="323" y="720" on="1"/>
        <pt x="327" y="720" on="1"/>
        <pt x="370" y="720" on="0"/>
        <pt x="384" y="708" on="0"/>
        <pt x="384" y="674" on="1"/>
      </contour>
      <contour>
        <pt x="172" y="847" on="1"/>
        <pt x="292" y="843" on="1"/>
        <pt x="316" y="843" on="0"/>
        <pt x="335" y="847" on="1"/>
        <pt x="348" y="845" on="1"/>
        <pt x="348" y="824" on="1"/>
        <pt x="348" y="802" on="0"/>
        <pt x="333" y="794" on="0"/>
        <pt x="289" y="794" on="1"/>
        <pt x="170" y="798" on="1"/>
        <pt x="145" y="798" on="0"/>
        <pt x="126" y="794" on="1"/>
        <pt x="113" y="796" on="1"/>
        <pt x="113" y="817" on="1"/>
        <pt x="113" y="840" on="0"/>
        <pt x="128" y="847" on="0"/>
      </contour>
    </TTGlyph>
    <TTGlyph name="O" xMin="65" yMin="-7" xMax="416" yMax="732">
      <contour>
        <pt x="345" y="-7" on="0"/>
        <pt x="137" y="-7" on="0"/>
        <pt x="65" y="164" on="0"/>
        <pt x="65" y="567" on="0"/>
        <pt x="137" y="732" on="0"/>
        <pt x="345" y="732" on="0"/>
        <pt x="416" y="567" on="0"/>
        <pt x="416" y="164" on="0"/>
      </contour>
      <contour>
        <pt x="241" y="50" on="1"/>
        <pt x="304" y="50" on="0"/>
        <pt x="349" y="203" on="0"/>
        <pt x="349" y="365" on="1"/>
        <pt x="349" y="521" on="0"/>
        <pt x="328" y="594" on="1"/>
        <pt x="304" y="675" on="0"/>
        <pt x="178" y="675" on="0"/>
        <pt x="132" y="526" on="0"/>
        <pt x="132" y="259" on="0"/>
        <pt x="140" y="194" on="1"/>
        <pt x="158" y="50" on="0"/>
      </contour>
    </TTGlyph>
    <TTGlyph name="OE" xMin="55" yMin="-7" xMax="625" yMax="732">
      <contour>
        <pt x="625" y="0" on="1"/>
        <pt x="332" y="0" on="1"/>
        <pt x="241" y="-7" on="1"/>
        <pt x="174" y="-7" on="0"/>
        <pt x="123" y="21" on="1"/>
        <pt x="94" y="37" on="0"/>
        <pt x="70" y="112" on="1"/>
        <pt x="57" y="151" on="0"/>
        <pt x="55" y="296" on="0"/>
        <pt x="55" y="462" on="0"/>
        <pt x="58" y="546" on="0"/>
        <pt x="76" y="658" on="0"/>
        <pt x="96" y="679" on="1"/>
        <pt x="145" y="732" on="0"/>
        <pt x="241" y="732" on="1"/>
        <pt x="332" y="720" on="1"/>
        <pt x="615" y="720" on="1"/>
        <pt x="615" y="667" on="1"/>
        <pt x="398" y="667" on="1"/>
        <pt x="401" y="642" on="1"/>
        <pt x="401" y="443" on="1"/>
        <pt x="397" y="418" on="1"/>
        <pt x="601" y="418" on="1"/>
        <pt x="601" y="361" on="1"/>
        <pt x="398" y="361" on="1"/>
        <pt x="402" y="336" on="1"/>
        <pt x="402" y="82" on="1"/>
        <pt x="398" y="57" on="1"/>
        <pt x="625" y="57" on="1"/>
      </contour>
      <contour>
        <pt x="118" y="424" on="1"/>
        <pt x="118" y="366" on="1"/>
        <pt x="118" y="210" on="0"/>
        <pt x="128" y="160" on="0"/>
        <pt x="139" y="108" on="0"/>
        <pt x="157" y="85" on="0"/>
        <pt x="170" y="72" on="1"/>
        <pt x="192" y="50" on="0"/>
        <pt x="241" y="50" on="1"/>
        <pt x="332" y="57" on="1"/>
        <pt x="332" y="663" on="1"/>
        <pt x="241" y="675" on="1"/>
        <pt x="202" y="675" on="0"/>
        <pt x="169" y="653" on="0"/>
        <pt x="151" y="639" on="0"/>
        <pt x="138" y="607" on="0"/>
        <pt x="129" y="584" on="0"/>
        <pt x="123" y="536" on="0"/>
        <pt x="122" y="521" on="1"/>
        <pt x="118" y="486" on="0"/>
      </contour>
    </TTGlyph>
    <TTGlyph name="Oacute" xMin="65" yMin="-7" xMax="416" yMax="927">
      <contour>
        <pt x="345" y="-7" on="0"/>
        <pt x="137" y="-7" on="0"/>
        <pt x="65" y="164" on="0"/>
        <pt x="65" y="567" on="0"/>
        <pt x="137" y="732" on="0"/>
        <pt x="345" y="732" on="0"/>
        <pt x="416" y="567" on="0"/>
        <pt x="416" y="164" on="0"/>
      </contour>
      <contour>
        <pt x="241" y="50" on="1"/>
        <pt x="304" y="50" on="0"/>
        <pt x="349" y="203" on="0"/>
        <pt x="349" y="365" on="1"/>
        <pt x="349" y="521" on="0"/>
        <pt x="328" y="594" on="1"/>
        <pt x="304" y="675" on="0"/>
        <pt x="178" y="675" on="0"/>
        <pt x="132" y="526" on="0"/>
        <pt x="132" y="259" on="0"/>
        <pt x="140" y="194" on="1"/>
        <pt x="158" y="50" on="0"/>
      </contour>
      <contour>
        <pt x="261" y="894" on="1"/>
        <pt x="294" y="927" on="0"/>
        <pt x="302" y="927" on="1"/>
        <pt x="312" y="927" on="0"/>
        <pt x="343" y="896" on="1"/>
        <pt x="228" y="782" on="1"/>
        <pt x="193" y="818" on="1"/>
      </contour>
    </TTGlyph>
    <TTGlyph name="Ocircumflex" xMin="65" yMin="-7" xMax="416" yMax="927">
      <contour>
        <pt x="345" y="-7" on="0"/>
        <pt x="137" y="-7" on="0"/>
        <pt x="65" y="164" on="0"/>
        <pt x="65" y="567" on="0"/>
        <pt x="137" y="732" on="0"/>
        <pt x="345" y="732" on="0"/>
        <pt x="416" y="567" on="0"/>
        <pt x="416" y="164" on="0"/>
      </contour>
      <contour>
        <pt x="241" y="50" on="1"/>
        <pt x="304" y="50" on="0"/>
        <pt x="349" y="203" on="0"/>
        <pt x="349" y="365" on="1"/>
        <pt x="349" y="521" on="0"/>
        <pt x="328" y="594" on="1"/>
        <pt x="304" y="675" on="0"/>
        <pt x="178" y="675" on="0"/>
        <pt x="132" y="526" on="0"/>
        <pt x="132" y="259" on="0"/>
        <pt x="140" y="194" on="1"/>
        <pt x="158" y="50" on="0"/>
      </contour>
      <contour>
        <pt x="373" y="812" on="1"/>
        <pt x="255" y="878" on="1"/>
        <pt x="138" y="812" on="1"/>
        <pt x="138" y="867" on="1"/>
        <pt x="242" y="927" on="1"/>
        <pt x="268" y="927" on="1"/>
        <pt x="373" y="866" on="1"/>
      </contour>
    </TTGlyph>
    <TTGlyph name="Odieresis" xMin="65" yMin="-7" xMax="416" yMax="915">
      <contour>
        <pt x="345" y="-7" on="0"/>
        <pt x="137" y="-7" on="0"/>
        <pt x="65" y="164" on="0"/>
        <pt x="65" y="567" on="0"/>
        <pt x="137" y="732" on="0"/>
        <pt x="345" y="732" on="0"/>
        <pt x="416" y="567" on="0"/>
        <pt x="416" y="164" on="0"/>
      </contour>
      <contour>
        <pt x="241" y="50" on="1"/>
        <pt x="304" y="50" on="0"/>
        <pt x="349" y="203" on="0"/>
        <pt x="349" y="365" on="1"/>
        <pt x="349" y="521" on="0"/>
        <pt x="328" y="594" on="1"/>
        <pt x="304" y="675" on="0"/>
        <pt x="178" y="675" on="0"/>
        <pt x="132" y="526" on="0"/>
        <pt x="132" y="259" on="0"/>
        <pt x="140" y="194" on="1"/>
        <pt x="158" y="50" on="0"/>
      </contour>
      <contour>
        <pt x="190" y="824" on="0"/>
        <pt x="152" y="824" on="0"/>
        <pt x="125" y="851" on="0"/>
        <pt x="125" y="889" on="0"/>
        <pt x="152" y="915" on="0"/>
        <pt x="190" y="915" on="0"/>
        <pt x="217" y="889" on="0"/>
        <pt x="217" y="851" on="0"/>
      </contour>
      <contour>
        <pt x="333" y="824" on="0"/>
        <pt x="295" y="824" on="0"/>
        <pt x="268" y="851" on="0"/>
        <pt x="268" y="889" on="0"/>
        <pt x="295" y="915" on="0"/>
        <pt x="333" y="915" on="0"/>
        <pt x="360" y="889" on="0"/>
        <pt x="360" y="851" on="0"/>
      </contour>
    </TTGlyph>
    <TTGlyph name="Ograve" xMin="65" yMin="-7" xMax="416" yMax="927">
      <contour>
        <pt x="345" y="-7" on="0"/>
        <pt x="137" y="-7" on="0"/>
        <pt x="65" y="164" on="0"/>
        <pt x="65" y="567" on="0"/>
        <pt x="137" y="732" on="0"/>
        <pt x="345" y="732" on="0"/>
        <pt x="416" y="567" on="0"/>
        <pt x="416" y="164" on="0"/>
      </contour>
      <contour>
        <pt x="241" y="50" on="1"/>
        <pt x="304" y="50" on="0"/>
        <pt x="349" y="203" on="0"/>
        <pt x="349" y="365" on="1"/>
        <pt x="349" y="521" on="0"/>
        <pt x="328" y="594" on="1"/>
        <pt x="304" y="675" on="0"/>
        <pt x="178" y="675" on="0"/>
        <pt x="132" y="526" on="0"/>
        <pt x="132" y="259" on="0"/>
        <pt x="140" y="194" on="1"/>
        <pt x="158" y="50" on="0"/>
      </contour>
      <contour>
        <pt x="146" y="896" on="1"/>
        <pt x="177" y="927" on="0"/>
        <pt x="195" y="927" on="0"/>
        <pt x="228" y="894" on="1"/>
        <pt x="296" y="818" on="1"/>
        <pt x="261" y="782" on="1"/>
      </contour>
    </TTGlyph>
    <TTGlyph name="Oslash" xMin="71" yMin="-50" xMax="422" yMax="802">
      <contour>
        <pt x="117" y="59" on="1"/>
        <pt x="71" y="136" on="0"/>
        <pt x="71" y="567" on="0"/>
        <pt x="143" y="732" on="0"/>
        <pt x="247" y="732" on="1"/>
        <pt x="274" y="732" on="0"/>
        <pt x="296" y="726" on="1"/>
        <pt x="327" y="802" on="1"/>
        <pt x="395" y="802" on="1"/>
        <pt x="353" y="697" on="1"/>
        <pt x="392" y="661" on="0"/>
        <pt x="422" y="504" on="0"/>
        <pt x="422" y="366" on="1"/>
        <pt x="422" y="164" on="0"/>
        <pt x="351" y="-7" on="0"/>
        <pt x="247" y="-7" on="1"/>
        <pt x="199" y="-7" on="0"/>
        <pt x="166" y="11" on="1"/>
        <pt x="141" y="-50" on="1"/>
        <pt x="73" y="-50" on="1"/>
      </contour>
      <contour>
        <pt x="183" y="50" on="0"/>
        <pt x="311" y="50" on="0"/>
        <pt x="359" y="205" on="0"/>
        <pt x="359" y="523" on="0"/>
        <pt x="310" y="675" on="0"/>
        <pt x="184" y="675" on="0"/>
        <pt x="134" y="524" on="0"/>
        <pt x="134" y="206" on="0"/>
      </contour>
    </TTGlyph>
    <TTGlyph name="Otilde" xMin="65" yMin="-7" xMax="416" yMax="903">
      <component glyphName="O" x="0" y="0" flags="0x1004"/>
      <component glyphName="tilde" x="60" y="183" flags="0x1004"/>
    </TTGlyph>
    <TTGlyph name="P" xMin="75" yMin="0" xMax="394" yMax="732">
      <contour>
        <pt x="80" y="0" on="1"/>
        <pt x="75" y="0" on="1"/>
        <pt x="75" y="722" on="1"/>
        <pt x="209" y="732" on="1"/>
        <pt x="326" y="732" on="0"/>
        <pt x="360" y="692" on="1"/>
        <pt x="373" y="676" on="0"/>
        <pt x="386" y="652" on="0"/>
        <pt x="390" y="627" on="1"/>
        <pt x="394" y="595" on="0"/>
        <pt x="394" y="492" on="0"/>
        <pt x="391" y="448" on="0"/>
        <pt x="372" y="389" on="0"/>
        <pt x="353" y="376" on="1"/>
        <pt x="306" y="342" on="0"/>
        <pt x="209" y="342" on="1"/>
        <pt x="134" y="342" on="1"/>
        <pt x="138" y="317" on="1"/>
        <pt x="138" y="46" on="1"/>
        <pt x="138" y="12" on="0"/>
        <pt x="122" y="0" on="0"/>
      </contour>
      <contour>
        <pt x="209" y="399" on="1"/>
        <pt x="272" y="399" on="0"/>
        <pt x="307" y="422" on="0"/>
        <pt x="321" y="438" on="0"/>
        <pt x="328" y="478" on="0"/>
        <pt x="329" y="506" on="0"/>
        <pt x="329" y="568" on="0"/>
        <pt x="328" y="596" on="0"/>
        <pt x="321" y="636" on="0"/>
        <pt x="307" y="652" on="0"/>
        <pt x="294" y="661" on="1"/>
        <pt x="272" y="675" on="0"/>
        <pt x="209" y="675" on="1"/>
        <pt x="134" y="675" on="1"/>
        <pt x="138" y="650" on="1"/>
        <pt x="138" y="424" on="1"/>
        <pt x="134" y="399" on="1"/>
      </contour>
    </TTGlyph>
    <TTGlyph name="Q" xMin="65" yMin="-171" xMax="568" yMax="732">
      <contour>
        <pt x="125" y="-124" on="1"/>
        <pt x="113" y="-125" on="1"/>
        <pt x="100" y="-123" on="1"/>
        <pt x="100" y="-106" on="1"/>
        <pt x="100" y="-83" on="0"/>
        <pt x="107" y="-79" on="1"/>
        <pt x="201" y="-3" on="1"/>
        <pt x="123" y="12" on="0"/>
        <pt x="65" y="185" on="0"/>
        <pt x="65" y="565" on="0"/>
        <pt x="139" y="732" on="0"/>
        <pt x="343" y="732" on="0"/>
        <pt x="416" y="565" on="0"/>
        <pt x="416" y="196" on="0"/>
        <pt x="367" y="25" on="0"/>
        <pt x="301" y="2" on="1"/>
        <pt x="191" y="-77" on="1"/>
        <pt x="218" y="-79" on="0"/>
        <pt x="501" y="-115" on="0"/>
        <pt x="551" y="-115" on="0"/>
        <pt x="555" y="-114" on="1"/>
        <pt x="568" y="-116" on="1"/>
        <pt x="568" y="-135" on="1"/>
        <pt x="568" y="-162" on="0"/>
        <pt x="553" y="-171" on="0"/>
        <pt x="479" y="-171" on="0"/>
        <pt x="160" y="-124" on="0"/>
      </contour>
      <contour>
        <pt x="241" y="50" on="1"/>
        <pt x="305" y="50" on="0"/>
        <pt x="353" y="204" on="0"/>
        <pt x="353" y="365" on="1"/>
        <pt x="353" y="604" on="0"/>
        <pt x="297" y="655" on="1"/>
        <pt x="275" y="675" on="0"/>
        <pt x="241" y="675" on="1"/>
        <pt x="176" y="675" on="0"/>
        <pt x="128" y="526" on="0"/>
        <pt x="128" y="366" on="1"/>
        <pt x="128" y="123" on="0"/>
        <pt x="186" y="70" on="1"/>
        <pt x="208" y="50" on="0"/>
      </contour>
    </TTGlyph>
    <TTGlyph name="R" xMin="75" yMin="0" xMax="416" yMax="732">
      <contour>
        <pt x="412" y="0" on="1"/>
        <pt x="361" y="0" on="0"/>
        <pt x="337" y="12" on="0"/>
        <pt x="322" y="46" on="1"/>
        <pt x="187" y="342" on="1"/>
        <pt x="134" y="342" on="1"/>
        <pt x="138" y="317" on="1"/>
        <pt x="138" y="46" on="1"/>
        <pt x="139" y="46" on="1"/>
        <pt x="139" y="12" on="0"/>
        <pt x="124" y="0" on="0"/>
        <pt x="81" y="0" on="1"/>
        <pt x="75" y="0" on="1"/>
        <pt x="75" y="722" on="1"/>
        <pt x="189" y="732" on="1"/>
        <pt x="293" y="732" on="0"/>
        <pt x="323" y="692" on="1"/>
        <pt x="335" y="676" on="0"/>
        <pt x="347" y="652" on="0"/>
        <pt x="350" y="627" on="1"/>
        <pt x="354" y="594" on="0"/>
        <pt x="354" y="499" on="0"/>
        <pt x="351" y="450" on="0"/>
        <pt x="339" y="397" on="0"/>
        <pt x="328" y="382" on="1"/>
        <pt x="303" y="347" on="0"/>
        <pt x="250" y="343" on="1"/>
        <pt x="416" y="0" on="1"/>
      </contour>
      <contour>
        <pt x="189" y="399" on="1"/>
        <pt x="240" y="399" on="0"/>
        <pt x="268" y="418" on="1"/>
        <pt x="285" y="431" on="0"/>
        <pt x="288" y="484" on="1"/>
        <pt x="289" y="500" on="0"/>
        <pt x="289" y="574" on="0"/>
        <pt x="287" y="606" on="0"/>
        <pt x="278" y="648" on="0"/>
        <pt x="268" y="656" on="1"/>
        <pt x="240" y="675" on="0"/>
        <pt x="189" y="675" on="1"/>
        <pt x="138" y="675" on="1"/>
        <pt x="138" y="424" on="1"/>
        <pt x="134" y="399" on="1"/>
      </contour>
    </TTGlyph>
    <TTGlyph name="S" xMin="37" yMin="-7" xMax="354" yMax="732">
      <contour>
        <pt x="353" y="233" on="1"/>
        <pt x="353" y="211" on="1"/>
        <pt x="353" y="111" on="0"/>
        <pt x="335" y="70" on="1"/>
        <pt x="299" y="-6" on="0"/>
        <pt x="182" y="-7" on="1"/>
        <pt x="37" y="13" on="1"/>
        <pt x="37" y="69" on="1"/>
        <pt x="183" y="59" on="1"/>
        <pt x="251" y="59" on="0"/>
        <pt x="270" y="89" on="1"/>
        <pt x="277" y="101" on="0"/>
        <pt x="285" y="116" on="0"/>
        <pt x="288" y="152" on="0"/>
        <pt x="289" y="169" on="0"/>
        <pt x="288" y="213" on="0"/>
        <pt x="288" y="221" on="1"/>
        <pt x="288" y="270" on="0"/>
        <pt x="200" y="346" on="1"/>
        <pt x="164" y="377" on="0"/>
        <pt x="90" y="443" on="0"/>
        <pt x="39" y="525" on="0"/>
        <pt x="39" y="596" on="0"/>
        <pt x="40" y="621" on="0"/>
        <pt x="45" y="666" on="0"/>
        <pt x="57" y="685" on="0"/>
        <pt x="80" y="713" on="0"/>
        <pt x="98" y="718" on="1"/>
        <pt x="147" y="732" on="0"/>
        <pt x="201" y="732" on="1"/>
        <pt x="307" y="712" on="1"/>
        <pt x="307" y="674" on="0"/>
        <pt x="287" y="671" on="1"/>
        <pt x="279" y="670" on="0"/>
        <pt x="263" y="671" on="1"/>
        <pt x="207" y="677" on="1"/>
        <pt x="135" y="677" on="0"/>
        <pt x="118" y="646" on="1"/>
        <pt x="108" y="630" on="0"/>
        <pt x="103" y="600" on="0"/>
        <pt x="103" y="545" on="0"/>
        <pt x="140" y="488" on="0"/>
        <pt x="196" y="441" on="0"/>
        <pt x="260" y="385" on="0"/>
        <pt x="316" y="334" on="0"/>
        <pt x="353" y="267" on="0"/>
      </contour>
    </TTGlyph>
    <TTGlyph name="Scaron" xMin="37" yMin="-7" xMax="353" yMax="927">
      <contour>
        <pt x="353" y="233" on="1"/>
        <pt x="353" y="206" on="1"/>
        <pt x="353" y="184" on="0"/>
        <pt x="350" y="108" on="0"/>
        <pt x="340" y="82" on="1"/>
        <pt x="319" y="32" on="0"/>
        <pt x="291" y="18" on="1"/>
        <pt x="245" y="-7" on="0"/>
        <pt x="182" y="-7" on="1"/>
        <pt x="37" y="13" on="1"/>
        <pt x="37" y="69" on="1"/>
        <pt x="183" y="59" on="1"/>
        <pt x="221" y="59" on="0"/>
        <pt x="250" y="72" on="1"/>
        <pt x="262" y="77" on="0"/>
        <pt x="277" y="101" on="0"/>
        <pt x="285" y="116" on="0"/>
        <pt x="288" y="152" on="0"/>
        <pt x="289" y="169" on="0"/>
        <pt x="288" y="213" on="0"/>
        <pt x="288" y="221" on="1"/>
        <pt x="288" y="271" on="0"/>
        <pt x="200" y="346" on="1"/>
        <pt x="163" y="377" on="0"/>
        <pt x="90" y="443" on="0"/>
        <pt x="39" y="525" on="0"/>
        <pt x="39" y="596" on="0"/>
        <pt x="42" y="661" on="0"/>
        <pt x="51" y="676" on="1"/>
        <pt x="74" y="711" on="0"/>
        <pt x="98" y="718" on="1"/>
        <pt x="147" y="732" on="0"/>
        <pt x="201" y="732" on="1"/>
        <pt x="307" y="712" on="1"/>
        <pt x="307" y="674" on="0"/>
        <pt x="287" y="671" on="1"/>
        <pt x="279" y="670" on="0"/>
        <pt x="263" y="671" on="1"/>
        <pt x="207" y="677" on="1"/>
        <pt x="135" y="677" on="0"/>
        <pt x="118" y="646" on="1"/>
        <pt x="108" y="630" on="0"/>
        <pt x="103" y="600" on="0"/>
        <pt x="103" y="573" on="1"/>
        <pt x="103" y="519" on="0"/>
        <pt x="168" y="464" on="1"/>
        <pt x="196" y="441" on="0"/>
        <pt x="260" y="385" on="0"/>
        <pt x="316" y="334" on="0"/>
        <pt x="353" y="267" on="0"/>
      </contour>
      <contour>
        <pt x="318" y="873" on="1"/>
        <pt x="213" y="822" on="1"/>
        <pt x="187" y="822" on="1"/>
        <pt x="83" y="872" on="1"/>
        <pt x="83" y="927" on="1"/>
        <pt x="200" y="871" on="1"/>
        <pt x="318" y="927" on="1"/>
      </contour>
    </TTGlyph>
    <TTGlyph name="T" xMin="25" yMin="0" xMax="308" yMax="720">
      <contour>
        <pt x="141" y="0" on="1"/>
        <pt x="133" y="0" on="1"/>
        <pt x="133" y="642" on="1"/>
        <pt x="137" y="667" on="1"/>
        <pt x="25" y="667" on="1"/>
        <pt x="25" y="720" on="1"/>
        <pt x="308" y="720" on="1"/>
        <pt x="308" y="667" on="1"/>
        <pt x="195" y="667" on="1"/>
        <pt x="199" y="642" on="1"/>
        <pt x="199" y="46" on="1"/>
        <pt x="199" y="12" on="0"/>
        <pt x="184" y="0" on="0"/>
      </contour>
    </TTGlyph>
    <TTGlyph name="Thorn" xMin="60" yMin="-200" xMax="355" yMax="736">
      <contour>
        <pt x="118" y="-200" on="1"/>
        <pt x="74" y="-200" on="0"/>
        <pt x="60" y="-188" on="0"/>
        <pt x="60" y="-154" on="1"/>
        <pt x="60" y="690" on="1"/>
        <pt x="60" y="724" on="0"/>
        <pt x="74" y="736" on="0"/>
        <pt x="118" y="736" on="1"/>
        <pt x="118" y="577" on="1"/>
        <pt x="218" y="604" on="1"/>
        <pt x="289" y="604" on="0"/>
        <pt x="314" y="572" on="1"/>
        <pt x="325" y="558" on="0"/>
        <pt x="338" y="537" on="0"/>
        <pt x="347" y="491" on="0"/>
        <pt x="352" y="461" on="0"/>
        <pt x="355" y="396" on="0"/>
        <pt x="355" y="376" on="1"/>
        <pt x="355" y="316" on="1"/>
        <pt x="355" y="147" on="0"/>
        <pt x="344" y="104" on="1"/>
        <pt x="326" y="39" on="0"/>
        <pt x="303" y="22" on="1"/>
        <pt x="266" y="-7" on="0"/>
        <pt x="214" y="-7" on="1"/>
        <pt x="118" y="39" on="1"/>
      </contour>
      <contour>
        <pt x="296" y="296" on="1"/>
        <pt x="296" y="369" on="1"/>
        <pt x="296" y="432" on="0"/>
        <pt x="289" y="468" on="0"/>
        <pt x="282" y="507" on="0"/>
        <pt x="270" y="524" on="0"/>
        <pt x="261" y="534" on="1"/>
        <pt x="246" y="551" on="0"/>
        <pt x="213" y="551" on="1"/>
        <pt x="115" y="526" on="1"/>
        <pt x="119" y="501" on="1"/>
        <pt x="119" y="116" on="1"/>
        <pt x="114" y="91" on="1"/>
        <pt x="212" y="46" on="1"/>
        <pt x="242" y="46" on="0"/>
        <pt x="278" y="80" on="0"/>
        <pt x="286" y="124" on="1"/>
        <pt x="296" y="187" on="0"/>
      </contour>
    </TTGlyph>
    <TTGlyph name="U" xMin="76" yMin="-7" xMax="398" yMax="720">
      <contour>
        <pt x="333" y="297" on="1"/>
        <pt x="333" y="720" on="1"/>
        <pt x="340" y="720" on="1"/>
        <pt x="383" y="720" on="0"/>
        <pt x="398" y="708" on="0"/>
        <pt x="398" y="674" on="1"/>
        <pt x="398" y="297" on="1"/>
        <pt x="398" y="220" on="0"/>
        <pt x="395" y="149" on="0"/>
        <pt x="379" y="57" on="0"/>
        <pt x="362" y="39" on="1"/>
        <pt x="319" y="-7" on="0"/>
        <pt x="151" y="-7" on="0"/>
        <pt x="123" y="26" on="1"/>
        <pt x="111" y="40" on="0"/>
        <pt x="95" y="61" on="0"/>
        <pt x="85" y="109" on="0"/>
        <pt x="79" y="140" on="0"/>
        <pt x="76" y="208" on="0"/>
        <pt x="76" y="228" on="1"/>
        <pt x="76" y="720" on="1"/>
        <pt x="83" y="720" on="1"/>
        <pt x="126" y="720" on="0"/>
        <pt x="141" y="708" on="0"/>
        <pt x="141" y="674" on="1"/>
        <pt x="141" y="297" on="1"/>
        <pt x="141" y="290" on="0"/>
        <pt x="141" y="227" on="0"/>
        <pt x="142" y="182" on="0"/>
        <pt x="147" y="117" on="0"/>
        <pt x="158" y="90" on="0"/>
        <pt x="168" y="75" on="1"/>
        <pt x="186" y="50" on="0"/>
        <pt x="235" y="50" on="1"/>
        <pt x="303" y="50" on="0"/>
        <pt x="333" y="149" on="0"/>
      </contour>
    </TTGlyph>
    <TTGlyph name="Uacute" xMin="76" yMin="-7" xMax="398" yMax="927">
      <contour>
        <pt x="333" y="297" on="1"/>
        <pt x="333" y="720" on="1"/>
        <pt x="340" y="720" on="1"/>
        <pt x="383" y="720" on="0"/>
        <pt x="398" y="708" on="0"/>
        <pt x="398" y="674" on="1"/>
        <pt x="398" y="297" on="1"/>
        <pt x="398" y="220" on="0"/>
        <pt x="395" y="149" on="0"/>
        <pt x="379" y="57" on="0"/>
        <pt x="362" y="39" on="1"/>
        <pt x="319" y="-7" on="0"/>
        <pt x="151" y="-7" on="0"/>
        <pt x="123" y="26" on="1"/>
        <pt x="111" y="40" on="0"/>
        <pt x="95" y="61" on="0"/>
        <pt x="85" y="109" on="0"/>
        <pt x="79" y="140" on="0"/>
        <pt x="76" y="208" on="0"/>
        <pt x="76" y="228" on="1"/>
        <pt x="76" y="720" on="1"/>
        <pt x="83" y="720" on="1"/>
        <pt x="126" y="720" on="0"/>
        <pt x="141" y="708" on="0"/>
        <pt x="141" y="674" on="1"/>
        <pt x="141" y="297" on="1"/>
        <pt x="141" y="290" on="0"/>
        <pt x="141" y="227" on="0"/>
        <pt x="142" y="182" on="0"/>
        <pt x="147" y="117" on="0"/>
        <pt x="158" y="90" on="0"/>
        <pt x="168" y="75" on="1"/>
        <pt x="186" y="50" on="0"/>
        <pt x="235" y="50" on="1"/>
        <pt x="303" y="50" on="0"/>
        <pt x="333" y="149" on="0"/>
      </contour>
      <contour>
        <pt x="264" y="894" on="1"/>
        <pt x="297" y="927" on="0"/>
        <pt x="305" y="927" on="1"/>
        <pt x="315" y="927" on="0"/>
        <pt x="346" y="896" on="1"/>
        <pt x="231" y="782" on="1"/>
        <pt x="196" y="818" on="1"/>
      </contour>
    </TTGlyph>
    <TTGlyph name="Ucircumflex" xMin="76" yMin="-7" xMax="398" yMax="927">
      <component glyphName="U" x="0" y="0" flags="0x1004"/>
      <component glyphName="circumflex" x="65" y="195" flags="0x1004"/>
    </TTGlyph>
    <TTGlyph name="Udieresis" xMin="76" yMin="-7" xMax="398" yMax="915">
      <contour>
        <pt x="333" y="297" on="1"/>
        <pt x="333" y="720" on="1"/>
        <pt x="340" y="720" on="1"/>
        <pt x="383" y="720" on="0"/>
        <pt x="398" y="708" on="0"/>
        <pt x="398" y="674" on="1"/>
        <pt x="398" y="297" on="1"/>
        <pt x="398" y="220" on="0"/>
        <pt x="395" y="149" on="0"/>
        <pt x="379" y="57" on="0"/>
        <pt x="362" y="39" on="1"/>
        <pt x="319" y="-7" on="0"/>
        <pt x="151" y="-7" on="0"/>
        <pt x="123" y="26" on="1"/>
        <pt x="111" y="40" on="0"/>
        <pt x="95" y="61" on="0"/>
        <pt x="85" y="109" on="0"/>
        <pt x="79" y="140" on="0"/>
        <pt x="76" y="208" on="0"/>
        <pt x="76" y="228" on="1"/>
        <pt x="76" y="720" on="1"/>
        <pt x="83" y="720" on="1"/>
        <pt x="126" y="720" on="0"/>
        <pt x="141" y="708" on="0"/>
        <pt x="141" y="674" on="1"/>
        <pt x="141" y="297" on="1"/>
        <pt x="141" y="290" on="0"/>
        <pt x="141" y="227" on="0"/>
        <pt x="142" y="182" on="0"/>
        <pt x="147" y="117" on="0"/>
        <pt x="158" y="90" on="0"/>
        <pt x="168" y="75" on="1"/>
        <pt x="186" y="50" on="0"/>
        <pt x="235" y="50" on="1"/>
        <pt x="303" y="50" on="0"/>
        <pt x="333" y="149" on="0"/>
      </contour>
      <contour>
        <pt x="189" y="824" on="0"/>
        <pt x="151" y="824" on="0"/>
        <pt x="124" y="851" on="0"/>
        <pt x="124" y="889" on="0"/>
        <pt x="151" y="915" on="0"/>
        <pt x="189" y="915" on="0"/>
        <pt x="216" y="889" on="0"/>
        <pt x="216" y="851" on="0"/>
      </contour>
      <contour>
        <pt x="332" y="824" on="0"/>
        <pt x="294" y="824" on="0"/>
        <pt x="267" y="851" on="0"/>
        <pt x="267" y="889" on="0"/>
        <pt x="294" y="915" on="0"/>
        <pt x="332" y="915" on="0"/>
        <pt x="359" y="889" on="0"/>
        <pt x="359" y="851" on="0"/>
      </contour>
    </TTGlyph>
    <TTGlyph name="Ugrave" xMin="76" yMin="-7" xMax="398" yMax="927">
      <contour>
        <pt x="333" y="297" on="1"/>
        <pt x="333" y="720" on="1"/>
        <pt x="340" y="720" on="1"/>
        <pt x="383" y="720" on="0"/>
        <pt x="398" y="708" on="0"/>
        <pt x="398" y="674" on="1"/>
        <pt x="398" y="297" on="1"/>
        <pt x="398" y="220" on="0"/>
        <pt x="395" y="149" on="0"/>
        <pt x="379" y="57" on="0"/>
        <pt x="362" y="39" on="1"/>
        <pt x="319" y="-7" on="0"/>
        <pt x="151" y="-7" on="0"/>
        <pt x="123" y="26" on="1"/>
        <pt x="111" y="40" on="0"/>
        <pt x="95" y="61" on="0"/>
        <pt x="85" y="109" on="0"/>
        <pt x="79" y="140" on="0"/>
        <pt x="76" y="208" on="0"/>
        <pt x="76" y="228" on="1"/>
        <pt x="76" y="720" on="1"/>
        <pt x="83" y="720" on="1"/>
        <pt x="126" y="720" on="0"/>
        <pt x="141" y="708" on="0"/>
        <pt x="141" y="674" on="1"/>
        <pt x="141" y="297" on="1"/>
        <pt x="141" y="290" on="0"/>
        <pt x="141" y="227" on="0"/>
        <pt x="142" y="182" on="0"/>
        <pt x="147" y="117" on="0"/>
        <pt x="158" y="90" on="0"/>
        <pt x="168" y="75" on="1"/>
        <pt x="186" y="50" on="0"/>
        <pt x="235" y="50" on="1"/>
        <pt x="303" y="50" on="0"/>
        <pt x="333" y="149" on="0"/>
      </contour>
      <contour>
        <pt x="149" y="896" on="1"/>
        <pt x="180" y="927" on="0"/>
        <pt x="198" y="927" on="0"/>
        <pt x="231" y="894" on="1"/>
        <pt x="299" y="818" on="1"/>
        <pt x="264" y="782" on="1"/>
      </contour>
    </TTGlyph>
    <TTGlyph name="V" xMin="25" yMin="0" xMax="390" yMax="720">
      <contour>
        <pt x="40" y="720" on="1"/>
        <pt x="77" y="720" on="0"/>
        <pt x="93" y="708" on="0"/>
        <pt x="100" y="674" on="1"/>
        <pt x="208" y="127" on="1"/>
        <pt x="221" y="127" on="1"/>
        <pt x="330" y="720" on="1"/>
        <pt x="345" y="720" on="1"/>
        <pt x="373" y="720" on="0"/>
        <pt x="390" y="716" on="0"/>
        <pt x="390" y="705" on="1"/>
        <pt x="390" y="653" on="0"/>
        <pt x="242" y="0" on="1"/>
        <pt x="178" y="0" on="1"/>
        <pt x="25" y="720" on="1"/>
      </contour>
    </TTGlyph>
    <TTGlyph name="W" xMin="30" yMin="0" xMax="578" yMax="720">
      <contour>
        <pt x="47" y="720" on="1"/>
        <pt x="85" y="720" on="0"/>
        <pt x="101" y="708" on="0"/>
        <pt x="107" y="674" on="1"/>
        <pt x="178" y="128" on="1"/>
        <pt x="191" y="128" on="1"/>
        <pt x="260" y="466" on="1"/>
        <pt x="276" y="520" on="1"/>
        <pt x="338" y="520" on="1"/>
        <pt x="353" y="465" on="1"/>
        <pt x="422" y="128" on="1"/>
        <pt x="435" y="128" on="1"/>
        <pt x="515" y="720" on="1"/>
        <pt x="532" y="720" on="1"/>
        <pt x="561" y="720" on="0"/>
        <pt x="578" y="716" on="0"/>
        <pt x="578" y="705" on="1"/>
        <pt x="578" y="649" on="0"/>
        <pt x="460" y="0" on="1"/>
        <pt x="396" y="0" on="1"/>
        <pt x="314" y="409" on="1"/>
        <pt x="301" y="409" on="1"/>
        <pt x="217" y="0" on="1"/>
        <pt x="153" y="0" on="1"/>
        <pt x="30" y="720" on="1"/>
      </contour>
    </TTGlyph>
    <TTGlyph name="X" xMin="25" yMin="0" xMax="357" yMax="720">
      <contour>
        <pt x="334" y="0" on="1"/>
        <pt x="301" y="0" on="0"/>
        <pt x="286" y="11" on="0"/>
        <pt x="274" y="46" on="1"/>
        <pt x="203" y="283" on="1"/>
        <pt x="184" y="283" on="1"/>
        <pt x="108" y="46" on="1"/>
        <pt x="95" y="12" on="0"/>
        <pt x="80" y="0" on="0"/>
        <pt x="48" y="0" on="1"/>
        <pt x="25" y="0" on="1"/>
        <pt x="157" y="356" on="1"/>
        <pt x="35" y="720" on="1"/>
        <pt x="58" y="720" on="1"/>
        <pt x="90" y="720" on="0"/>
        <pt x="106" y="708" on="0"/>
        <pt x="118" y="674" on="1"/>
        <pt x="193" y="421" on="1"/>
        <pt x="212" y="421" on="1"/>
        <pt x="300" y="720" on="1"/>
        <pt x="306" y="720" on="1"/>
        <pt x="337" y="720" on="0"/>
        <pt x="357" y="716" on="0"/>
        <pt x="357" y="708" on="1"/>
        <pt x="357" y="677" on="0"/>
        <pt x="233" y="356" on="1"/>
        <pt x="355" y="0" on="1"/>
      </contour>
    </TTGlyph>
    <TTGlyph name="Y" xMin="25" yMin="0" xMax="349" yMax="720">
      <contour>
        <pt x="221" y="0" on="1"/>
        <pt x="216" y="0" on="1"/>
        <pt x="173" y="0" on="0"/>
        <pt x="158" y="12" on="0"/>
        <pt x="158" y="46" on="1"/>
        <pt x="158" y="347" on="1"/>
        <pt x="25" y="720" on="1"/>
        <pt x="40" y="720" on="1"/>
        <pt x="78" y="720" on="0"/>
        <pt x="95" y="709" on="0"/>
        <pt x="107" y="674" on="1"/>
        <pt x="188" y="432" on="1"/>
        <pt x="193" y="432" on="1"/>
        <pt x="294" y="720" on="1"/>
        <pt x="305" y="720" on="1"/>
        <pt x="332" y="720" on="0"/>
        <pt x="349" y="717" on="0"/>
        <pt x="349" y="709" on="1"/>
        <pt x="349" y="676" on="0"/>
        <pt x="221" y="347" on="1"/>
      </contour>
    </TTGlyph>
    <TTGlyph name="Yacute" xMin="25" yMin="0" xMax="349" yMax="927">
      <component glyphName="Y" x="0" y="0" flags="0x1004"/>
      <component glyphName="acute" x="166" y="195" flags="0x1004"/>
    </TTGlyph>
    <TTGlyph name="Ydieresis" xMin="25" yMin="0" xMax="349" yMax="903">
      <component glyphName="Y" x="0" y="0" flags="0x1004"/>
      <component glyphName="dieresis" x="34" y="183" flags="0x1004"/>
    </TTGlyph>
    <TTGlyph name="Z" xMin="37" yMin="0" xMax="333" yMax="720">
      <contour>
        <pt x="320" y="0" on="1"/>
        <pt x="37" y="0" on="1"/>
        <pt x="37" y="57" on="1"/>
        <pt x="264" y="667" on="1"/>
        <pt x="47" y="667" on="1"/>
        <pt x="47" y="707" on="0"/>
        <pt x="58" y="720" on="0"/>
        <pt x="93" y="720" on="1"/>
        <pt x="333" y="720" on="1"/>
        <pt x="333" y="667" on="1"/>
        <pt x="103" y="57" on="1"/>
        <pt x="262" y="57" on="1"/>
        <pt x="305" y="57" on="0"/>
        <pt x="320" y="41" on="0"/>
      </contour>
    </TTGlyph>
    <TTGlyph name="Zcaron" xMin="37" yMin="0" xMax="333" yMax="927">
      <component glyphName="Z" x="0" y="0" flags="0x1004"/>
      <component glyphName="caron" x="24" y="195" flags="0x1004"/>
    </TTGlyph>
    <TTGlyph name="a" xMin="50" yMin="-7" xMax="287" yMax="544">
      <contour>
        <pt x="230" y="377" on="1"/>
        <pt x="230" y="433" on="1"/>
        <pt x="230" y="473" on="0"/>
        <pt x="211" y="494" on="0"/>
        <pt x="175" y="494" on="1"/>
        <pt x="125" y="484" on="1"/>
        <pt x="115" y="482" on="0"/>
        <pt x="110" y="482" on="1"/>
        <pt x="75" y="482" on="0"/>
        <pt x="75" y="527" on="1"/>
        <pt x="175" y="544" on="1"/>
        <pt x="250" y="544" on="0"/>
        <pt x="266" y="524" on="1"/>
        <pt x="274" y="514" on="0"/>
        <pt x="283" y="500" on="0"/>
        <pt x="284" y="482" on="1"/>
        <pt x="287" y="453" on="0"/>
        <pt x="287" y="415" on="1"/>
        <pt x="287" y="0" on="1"/>
        <pt x="242" y="0" on="0"/>
        <pt x="226" y="13" on="0"/>
        <pt x="226" y="50" on="1"/>
        <pt x="216" y="44" on="0"/>
        <pt x="198" y="28" on="1"/>
        <pt x="160" y="-7" on="0"/>
        <pt x="134" y="-7" on="1"/>
        <pt x="73" y="-7" on="0"/>
        <pt x="50" y="70" on="0"/>
        <pt x="50" y="245" on="1"/>
        <pt x="50" y="312" on="0"/>
        <pt x="108" y="334" on="1"/>
        <pt x="156" y="352" on="0"/>
        <pt x="230" y="352" on="1"/>
        <pt x="234" y="352" on="1"/>
      </contour>
      <contour>
        <pt x="226" y="296" on="1"/>
        <pt x="168" y="296" on="0"/>
        <pt x="109" y="279" on="0"/>
        <pt x="109" y="253" on="1"/>
        <pt x="109" y="70" on="0"/>
        <pt x="117" y="53" on="1"/>
        <pt x="121" y="46" on="0"/>
        <pt x="149" y="46" on="0"/>
        <pt x="182" y="62" on="0"/>
        <pt x="219" y="89" on="0"/>
        <pt x="230" y="94" on="1"/>
        <pt x="226" y="119" on="1"/>
        <pt x="226" y="271" on="1"/>
        <pt x="230" y="296" on="1"/>
      </contour>
    </TTGlyph>
    <TTGlyph name="aacute" xMin="50" yMin="-7" xMax="287" yMax="738">
      <component glyphName="a" x="0" y="0" flags="0x1004"/>
      <component glyphName="acute" x="117" y="6" flags="0x1004"/>
    </TTGlyph>
    <TTGlyph name="acircumflex" xMin="50" yMin="-7" xMax="294" yMax="742">
      <component glyphName="a" x="0" y="0" flags="0x1004"/>
      <component glyphName="circumflex" x="1" y="10" flags="0x1004"/>
    </TTGlyph>
    <TTGlyph name="acute" xMin="13" yMin="587" xMax="163" yMax="732">
      <contour>
        <pt x="81" y="699" on="1"/>
        <pt x="114" y="732" on="0"/>
        <pt x="122" y="732" on="1"/>
        <pt x="132" y="732" on="0"/>
        <pt x="163" y="701" on="1"/>
        <pt x="48" y="587" on="1"/>
        <pt x="13" y="623" on="1"/>
      </contour>
    </TTGlyph>
    <TTGlyph name="adieresis" xMin="50" yMin="-7" xMax="296" yMax="711">
      <component glyphName="a" x="0" y="0" flags="0x1004"/>
      <component glyphName="dieresis" x="8" y="-9" flags="0x1004"/>
    </TTGlyph>
    <TTGlyph name="ae" xMin="60" yMin="-7" xMax="503" yMax="544">
      <contour>
        <pt x="312" y="375" on="1"/>
        <pt x="312" y="355" on="1"/>
        <pt x="308" y="330" on="1"/>
        <pt x="442" y="330" on="1"/>
        <pt x="437" y="375" on="1"/>
        <pt x="436" y="441" on="0"/>
        <pt x="408" y="491" on="0"/>
        <pt x="327" y="491" on="0"/>
        <pt x="312" y="442" on="0"/>
      </contour>
      <contour>
        <pt x="246" y="415" on="1"/>
        <pt x="247" y="453" on="1"/>
        <pt x="247" y="474" on="0"/>
        <pt x="239" y="480" on="1"/>
        <pt x="222" y="491" on="0"/>
        <pt x="193" y="491" on="1"/>
        <pt x="129" y="482" on="0"/>
        <pt x="126" y="482" on="1"/>
        <pt x="91" y="482" on="0"/>
        <pt x="91" y="527" on="1"/>
        <pt x="193" y="544" on="1"/>
        <pt x="263" y="544" on="0"/>
        <pt x="288" y="513" on="1"/>
        <pt x="320" y="544" on="0"/>
        <pt x="392" y="544" on="0"/>
        <pt x="434" y="534" on="0"/>
        <pt x="462" y="522" on="0"/>
        <pt x="481" y="490" on="0"/>
        <pt x="491" y="466" on="0"/>
        <pt x="493" y="438" on="1"/>
        <pt x="496" y="396" on="0"/>
        <pt x="496" y="335" on="1"/>
        <pt x="501" y="281" on="1"/>
        <pt x="302" y="276" on="1"/>
        <pt x="306" y="251" on="1"/>
        <pt x="306" y="247" on="0"/>
        <pt x="306" y="177" on="0"/>
        <pt x="308" y="125" on="0"/>
        <pt x="318" y="65" on="0"/>
        <pt x="343" y="46" on="0"/>
        <pt x="418" y="46" on="0"/>
        <pt x="503" y="59" on="1"/>
        <pt x="503" y="10" on="1"/>
        <pt x="416" y="-7" on="0"/>
        <pt x="318" y="-7" on="0"/>
        <pt x="284" y="20" on="0"/>
        <pt x="268" y="57" on="1"/>
        <pt x="145" y="-7" on="1"/>
        <pt x="85" y="-7" on="0"/>
        <pt x="61" y="65" on="0"/>
        <pt x="61" y="202" on="1"/>
        <pt x="61" y="217" on="0"/>
        <pt x="61" y="225" on="1"/>
        <pt x="61" y="332" on="0"/>
        <pt x="246" y="332" on="1"/>
        <pt x="250" y="332" on="1"/>
        <pt x="246" y="357" on="1"/>
      </contour>
      <contour>
        <pt x="119" y="233" on="1"/>
        <pt x="118" y="124" on="1"/>
        <pt x="118" y="80" on="0"/>
        <pt x="125" y="46" on="0"/>
        <pt x="144" y="46" on="1"/>
        <pt x="246" y="93" on="1"/>
        <pt x="246" y="251" on="1"/>
        <pt x="250" y="276" on="1"/>
        <pt x="246" y="276" on="1"/>
        <pt x="186" y="276" on="0"/>
        <pt x="119" y="259" on="0"/>
      </contour>
    </TTGlyph>
    <TTGlyph name="agrave" xMin="50" yMin="-7" xMax="287" yMax="738">
      <component glyphName="a" x="0" y="0" flags="0x1004"/>
      <component glyphName="grave" x="92" y="6" flags="0x1004"/>
    </TTGlyph>
    <TTGlyph name="ampersand" xMin="48" yMin="-7" xMax="507" yMax="701">
      <contour>
        <pt x="329" y="692" on="1"/>
        <pt x="328" y="666" on="1"/>
        <pt x="328" y="661" on="0"/>
        <pt x="323" y="656" on="0"/>
        <pt x="322" y="652" on="0"/>
        <pt x="310" y="650" on="0"/>
        <pt x="305" y="648" on="0"/>
        <pt x="285" y="646" on="0"/>
        <pt x="279" y="645" on="1"/>
        <pt x="209" y="645" on="1"/>
        <pt x="170" y="645" on="0"/>
        <pt x="131" y="600" on="0"/>
        <pt x="131" y="530" on="1"/>
        <pt x="131" y="456" on="0"/>
        <pt x="155" y="439" on="1"/>
        <pt x="169" y="429" on="0"/>
        <pt x="196" y="425" on="0"/>
        <pt x="223" y="425" on="1"/>
        <pt x="223" y="366" on="1"/>
        <pt x="175" y="366" on="0"/>
        <pt x="111" y="281" on="0"/>
        <pt x="111" y="207" on="1"/>
        <pt x="111" y="49" on="0"/>
        <pt x="366" y="49" on="0"/>
        <pt x="366" y="207" on="1"/>
        <pt x="366" y="341" on="1"/>
        <pt x="370" y="366" on="1"/>
        <pt x="317" y="366" on="1"/>
        <pt x="317" y="420" on="1"/>
        <pt x="370" y="420" on="1"/>
        <pt x="366" y="445" on="1"/>
        <pt x="366" y="489" on="1"/>
        <pt x="412" y="489" on="0"/>
        <pt x="430" y="477" on="0"/>
        <pt x="430" y="443" on="1"/>
        <pt x="426" y="420" on="1"/>
        <pt x="507" y="420" on="1"/>
        <pt x="507" y="384" on="0"/>
        <pt x="492" y="366" on="0"/>
        <pt x="457" y="366" on="1"/>
        <pt x="426" y="366" on="1"/>
        <pt x="430" y="341" on="1"/>
        <pt x="430" y="207" on="1"/>
        <pt x="430" y="100" on="0"/>
        <pt x="339" y="-7" on="0"/>
        <pt x="139" y="-7" on="0"/>
        <pt x="48" y="99" on="0"/>
        <pt x="48" y="208" on="1"/>
        <pt x="48" y="271" on="0"/>
        <pt x="97" y="369" on="0"/>
        <pt x="134" y="397" on="1"/>
        <pt x="109" y="415" on="0"/>
        <pt x="88" y="435" on="0"/>
        <pt x="67" y="490" on="0"/>
        <pt x="67" y="530" on="1"/>
        <pt x="67" y="701" on="0"/>
        <pt x="209" y="701" on="1"/>
      </contour>
    </TTGlyph>
    <TTGlyph name="aring" xMin="50" yMin="-7" xMax="287" yMax="749">
      <component glyphName="a" x="0" y="0" flags="0x1004"/>
      <component glyphName="ring" x="52" y="18" flags="0x1004"/>
    </TTGlyph>
    <TTGlyph name="asciicircum" xMin="38" yMin="607" xMax="373" yMax="732">
      <contour>
        <pt x="373" y="607" on="1"/>
        <pt x="205" y="683" on="1"/>
        <pt x="38" y="607" on="1"/>
        <pt x="38" y="662" on="1"/>
        <pt x="192" y="732" on="1"/>
        <pt x="218" y="732" on="1"/>
        <pt x="373" y="661" on="1"/>
      </contour>
    </TTGlyph>
    <TTGlyph name="asciitilde" xMin="48" yMin="298" xMax="323" yMax="359">
      <contour>
        <pt x="107" y="359" on="1"/>
        <pt x="279" y="349" on="1"/>
        <pt x="300" y="349" on="0"/>
        <pt x="310" y="351" on="1"/>
        <pt x="323" y="349" on="1"/>
        <pt x="323" y="328" on="1"/>
        <pt x="323" y="306" on="0"/>
        <pt x="308" y="298" on="0"/>
        <pt x="264" y="298" on="1"/>
        <pt x="92" y="308" on="1"/>
        <pt x="71" y="308" on="0"/>
        <pt x="61" y="306" on="1"/>
        <pt x="48" y="308" on="1"/>
        <pt x="48" y="329" on="1"/>
        <pt x="48" y="352" on="0"/>
        <pt x="63" y="359" on="0"/>
      </contour>
    </TTGlyph>
    <TTGlyph name="asterisk" xMin="29" yMin="495" xMax="271" yMax="732">
      <contour>
        <pt x="234" y="520" on="1"/>
        <pt x="189" y="495" on="1"/>
        <pt x="149" y="573" on="1"/>
        <pt x="111" y="497" on="1"/>
        <pt x="67" y="522" on="1"/>
        <pt x="114" y="592" on="1"/>
        <pt x="29" y="587" on="1"/>
        <pt x="29" y="638" on="1"/>
        <pt x="116" y="633" on="1"/>
        <pt x="67" y="706" on="1"/>
        <pt x="111" y="732" on="1"/>
        <pt x="151" y="654" on="1"/>
        <pt x="189" y="731" on="1"/>
        <pt x="233" y="705" on="1"/>
        <pt x="186" y="633" on="1"/>
        <pt x="270" y="638" on="1"/>
        <pt x="271" y="587" on="1"/>
        <pt x="183" y="592" on="1"/>
      </contour>
    </TTGlyph>
    <TTGlyph name="at" xMin="52" yMin="-16" xMax="515" yMax="545">
      <contour>
        <pt x="318" y="350" on="1"/>
        <pt x="242" y="350" on="0"/>
        <pt x="242" y="330" on="1"/>
        <pt x="241" y="264" on="1"/>
        <pt x="241" y="258" on="0"/>
        <pt x="241" y="206" on="0"/>
        <pt x="248" y="204" on="1"/>
        <pt x="320" y="236" on="1"/>
        <pt x="318" y="247" on="1"/>
      </contour>
      <contour>
        <pt x="428" y="-16" on="1"/>
        <pt x="192" y="-16" on="1"/>
        <pt x="110" y="-16" on="0"/>
        <pt x="54" y="103" on="0"/>
        <pt x="52" y="282" on="1"/>
        <pt x="52" y="315" on="0"/>
        <pt x="52" y="467" on="0"/>
        <pt x="96" y="525" on="0"/>
        <pt x="176" y="531" on="1"/>
        <pt x="418" y="544" on="1"/>
        <pt x="424" y="544" on="0"/>
        <pt x="430" y="544" on="1"/>
        <pt x="478" y="544" on="0"/>
        <pt x="515" y="497" on="0"/>
        <pt x="515" y="447" on="1"/>
        <pt x="515" y="290" on="1"/>
        <pt x="515" y="197" on="0"/>
        <pt x="498" y="182" on="1"/>
        <pt x="476" y="161" on="0"/>
        <pt x="419" y="157" on="0"/>
        <pt x="351" y="157" on="0"/>
        <pt x="326" y="172" on="0"/>
        <pt x="319" y="189" on="1"/>
        <pt x="257" y="152" on="1"/>
        <pt x="237" y="152" on="0"/>
        <pt x="218" y="153" on="0"/>
        <pt x="199" y="164" on="0"/>
        <pt x="193" y="175" on="0"/>
        <pt x="187" y="212" on="0"/>
        <pt x="187" y="228" on="1"/>
        <pt x="187" y="319" on="1"/>
        <pt x="187" y="400" on="0"/>
        <pt x="323" y="402" on="1"/>
        <pt x="369" y="402" on="1"/>
        <pt x="369" y="229" on="1"/>
        <pt x="362" y="210" on="1"/>
        <pt x="386" y="210" on="1"/>
        <pt x="439" y="210" on="0"/>
        <pt x="459" y="236" on="0"/>
        <pt x="459" y="288" on="1"/>
        <pt x="459" y="453" on="1"/>
        <pt x="459" y="489" on="0"/>
        <pt x="423" y="489" on="1"/>
        <pt x="421" y="489" on="0"/>
        <pt x="419" y="489" on="1"/>
        <pt x="176" y="473" on="1"/>
        <pt x="130" y="471" on="0"/>
        <pt x="118" y="448" on="1"/>
        <pt x="110" y="433" on="0"/>
        <pt x="110" y="401" on="1"/>
        <pt x="110" y="182" on="0"/>
        <pt x="136" y="37" on="0"/>
        <pt x="195" y="37" on="1"/>
        <pt x="376" y="37" on="1"/>
        <pt x="415" y="37" on="0"/>
        <pt x="428" y="23" on="0"/>
      </contour>
    </TTGlyph>
    <TTGlyph name="atilde" xMin="50" yMin="-7" xMax="300" yMax="692">
      <component glyphName="a" x="0" y="0" flags="0x1004"/>
      <component glyphName="tilde" x="-3" y="-28" flags="0x1004"/>
    </TTGlyph>
    <TTGlyph name="b" xMin="55" yMin="-7" xMax="323" yMax="732">
      <contour>
        <pt x="55" y="0" on="1"/>
        <pt x="55" y="732" on="1"/>
        <pt x="98" y="732" on="0"/>
        <pt x="113" y="720" on="0"/>
        <pt x="113" y="686" on="1"/>
        <pt x="113" y="516" on="1"/>
        <pt x="187" y="544" on="1"/>
        <pt x="259" y="544" on="0"/>
        <pt x="282" y="516" on="1"/>
        <pt x="292" y="504" on="0"/>
        <pt x="306" y="484" on="0"/>
        <pt x="315" y="443" on="0"/>
        <pt x="320" y="412" on="0"/>
        <pt x="321" y="382" on="1"/>
        <pt x="323" y="320" on="0"/>
        <pt x="323" y="193" on="0"/>
        <pt x="321" y="128" on="0"/>
        <pt x="309" y="45" on="0"/>
        <pt x="295" y="30" on="1"/>
        <pt x="259" y="-7" on="0"/>
        <pt x="192" y="-7" on="1"/>
        <pt x="113" y="53" on="1"/>
        <pt x="113" y="13" on="0"/>
        <pt x="98" y="0" on="0"/>
      </contour>
      <contour>
        <pt x="242" y="46" on="0"/>
        <pt x="264" y="132" on="0"/>
        <pt x="264" y="406" on="0"/>
        <pt x="253" y="443" on="1"/>
        <pt x="236" y="490" on="0"/>
        <pt x="191" y="491" on="1"/>
        <pt x="109" y="466" on="1"/>
        <pt x="113" y="441" on="1"/>
        <pt x="113" y="117" on="1"/>
        <pt x="109" y="92" on="1"/>
        <pt x="191" y="46" on="1"/>
      </contour>
    </TTGlyph>
    <TTGlyph name="backslash" xMin="5" yMin="-200" xMax="363" yMax="732">
      <contour>
        <pt x="363" y="-200" on="1"/>
        <pt x="299" y="-200" on="1"/>
        <pt x="5" y="732" on="1"/>
        <pt x="69" y="732" on="1"/>
      </contour>
    </TTGlyph>
    <TTGlyph name="bar" xMin="64" yMin="-200" xMax="123" yMax="732">
      <contour>
        <pt x="64" y="-154" on="1"/>
        <pt x="64" y="732" on="1"/>
        <pt x="108" y="732" on="0"/>
        <pt x="123" y="720" on="0"/>
        <pt x="123" y="686" on="1"/>
        <pt x="123" y="-200" on="1"/>
        <pt x="79" y="-200" on="0"/>
        <pt x="64" y="-188" on="0"/>
      </contour>
    </TTGlyph>
    <TTGlyph name="braceleft" xMin="16" yMin="-70" xMax="220" yMax="772">
      <contour>
        <pt x="220" y="-70" on="1"/>
        <pt x="140" y="-70" on="1"/>
        <pt x="100" y="-70" on="0"/>
        <pt x="87" y="-59" on="0"/>
        <pt x="87" y="-24" on="1"/>
        <pt x="87" y="189" on="1"/>
        <pt x="16" y="343" on="1"/>
        <pt x="16" y="369" on="1"/>
        <pt x="87" y="524" on="1"/>
        <pt x="87" y="772" on="1"/>
        <pt x="167" y="772" on="1"/>
        <pt x="207" y="772" on="0"/>
        <pt x="220" y="760" on="0"/>
        <pt x="220" y="726" on="1"/>
        <pt x="140" y="726" on="1"/>
        <pt x="140" y="524" on="1"/>
        <pt x="65" y="356" on="1"/>
        <pt x="140" y="189" on="1"/>
        <pt x="140" y="-24" on="1"/>
        <pt x="167" y="-24" on="1"/>
        <pt x="207" y="-24" on="0"/>
        <pt x="220" y="-36" on="0"/>
      </contour>
    </TTGlyph>
    <TTGlyph name="braceright" xMin="20" yMin="-70" xMax="224" yMax="772">
      <contour>
        <pt x="100" y="-70" on="1"/>
        <pt x="20" y="-70" on="1"/>
        <pt x="20" y="-36" on="0"/>
        <pt x="33" y="-24" on="0"/>
        <pt x="73" y="-24" on="1"/>
        <pt x="100" y="-24" on="1"/>
        <pt x="100" y="189" on="1"/>
        <pt x="175" y="356" on="1"/>
        <pt x="100" y="524" on="1"/>
        <pt x="100" y="726" on="1"/>
        <pt x="20" y="726" on="1"/>
        <pt x="20" y="760" on="0"/>
        <pt x="33" y="772" on="0"/>
        <pt x="73" y="772" on="1"/>
        <pt x="153" y="772" on="1"/>
        <pt x="153" y="524" on="1"/>
        <pt x="224" y="369" on="1"/>
        <pt x="224" y="343" on="1"/>
        <pt x="153" y="189" on="1"/>
        <pt x="153" y="-24" on="1"/>
        <pt x="153" y="-59" on="0"/>
        <pt x="140" y="-70" on="0"/>
      </contour>
    </TTGlyph>
    <TTGlyph name="bracketleft" xMin="60" yMin="-70" xMax="193" yMax="772">
      <contour>
        <pt x="193" y="-70" on="1"/>
        <pt x="113" y="-70" on="1"/>
        <pt x="73" y="-70" on="0"/>
        <pt x="60" y="-59" on="0"/>
        <pt x="60" y="-24" on="1"/>
        <pt x="60" y="772" on="1"/>
        <pt x="140" y="772" on="1"/>
        <pt x="180" y="772" on="0"/>
        <pt x="193" y="760" on="0"/>
        <pt x="193" y="726" on="1"/>
        <pt x="113" y="726" on="1"/>
        <pt x="113" y="-24" on="1"/>
        <pt x="140" y="-24" on="1"/>
        <pt x="180" y="-24" on="0"/>
        <pt x="193" y="-36" on="0"/>
      </contour>
    </TTGlyph>
    <TTGlyph name="bracketright" xMin="8" yMin="-70" xMax="141" yMax="772">
      <contour>
        <pt x="88" y="-70" on="1"/>
        <pt x="8" y="-70" on="1"/>
        <pt x="8" y="-36" on="0"/>
        <pt x="21" y="-24" on="0"/>
        <pt x="61" y="-24" on="1"/>
        <pt x="88" y="-24" on="1"/>
        <pt x="88" y="726" on="1"/>
        <pt x="8" y="726" on="1"/>
        <pt x="8" y="760" on="0"/>
        <pt x="21" y="772" on="0"/>
        <pt x="61" y="772" on="1"/>
        <pt x="141" y="772" on="1"/>
        <pt x="141" y="-24" on="1"/>
        <pt x="141" y="-59" on="0"/>
        <pt x="128" y="-70" on="0"/>
      </contour>
    </TTGlyph>
    <TTGlyph name="breve" xMin="38" yMin="607" xMax="313" yMax="732">
      <contour>
        <pt x="313" y="607" on="1"/>
        <pt x="175" y="683" on="1"/>
        <pt x="38" y="607" on="1"/>
        <pt x="38" y="662" on="1"/>
        <pt x="162" y="732" on="1"/>
        <pt x="188" y="732" on="1"/>
        <pt x="313" y="661" on="1"/>
      </contour>
    </TTGlyph>
    <TTGlyph name="brokenbar" xMin="60" yMin="-196" xMax="123" yMax="732">
      <contour>
        <pt x="60" y="368" on="1"/>
        <pt x="60" y="732" on="1"/>
        <pt x="105" y="732" on="0"/>
        <pt x="123" y="720" on="0"/>
        <pt x="123" y="686" on="1"/>
        <pt x="123" y="322" on="1"/>
        <pt x="76" y="322" on="0"/>
        <pt x="60" y="334" on="0"/>
      </contour>
      <contour>
        <pt x="60" y="-150" on="1"/>
        <pt x="60" y="214" on="1"/>
        <pt x="105" y="214" on="0"/>
        <pt x="123" y="202" on="0"/>
        <pt x="123" y="168" on="1"/>
        <pt x="123" y="-196" on="1"/>
        <pt x="76" y="-196" on="0"/>
        <pt x="60" y="-184" on="0"/>
      </contour>
    </TTGlyph>
    <TTGlyph name="bullet" xMin="42" yMin="232" xMax="180" yMax="369">
      <contour>
        <pt x="139" y="232" on="0"/>
        <pt x="83" y="232" on="0"/>
        <pt x="42" y="273" on="0"/>
        <pt x="42" y="329" on="0"/>
        <pt x="82" y="369" on="0"/>
        <pt x="139" y="369" on="0"/>
        <pt x="180" y="329" on="0"/>
        <pt x="180" y="273" on="0"/>
      </contour>
    </TTGlyph>
    <TTGlyph name="c" xMin="50" yMin="-7" xMax="268" yMax="544">
      <contour>
        <pt x="50" y="268" on="1"/>
        <pt x="50" y="332" on="1"/>
        <pt x="50" y="405" on="0"/>
        <pt x="57" y="443" on="0"/>
        <pt x="66" y="487" on="0"/>
        <pt x="79" y="504" on="0"/>
        <pt x="98" y="528" on="0"/>
        <pt x="112" y="532" on="1"/>
        <pt x="146" y="544" on="0"/>
        <pt x="181" y="544" on="1"/>
        <pt x="264" y="531" on="1"/>
        <pt x="264" y="487" on="0"/>
        <pt x="228" y="487" on="1"/>
        <pt x="221" y="487" on="0"/>
        <pt x="214" y="488" on="1"/>
        <pt x="181" y="491" on="1"/>
        <pt x="130" y="491" on="0"/>
        <pt x="108" y="406" on="0"/>
        <pt x="108" y="198" on="0"/>
        <pt x="110" y="136" on="0"/>
        <pt x="124" y="67" on="0"/>
        <pt x="154" y="46" on="0"/>
        <pt x="181" y="46" on="1"/>
        <pt x="268" y="56" on="1"/>
        <pt x="268" y="10" on="1"/>
        <pt x="181" y="-7" on="1"/>
        <pt x="127" y="-7" on="0"/>
        <pt x="91" y="19" on="0"/>
        <pt x="73" y="36" on="0"/>
        <pt x="60" y="80" on="0"/>
        <pt x="54" y="110" on="0"/>
        <pt x="52" y="144" on="1"/>
        <pt x="50" y="202" on="0"/>
      </contour>
    </TTGlyph>
    <TTGlyph name="c_s" xMin="50" yMin="-7" xMax="543" yMax="544">
      <contour>
        <pt x="51" y="179" on="0"/>
        <pt x="50" y="223" on="0"/>
        <pt x="50" y="333" on="0"/>
        <pt x="51" y="388" on="0"/>
        <pt x="58" y="467" on="0"/>
        <pt x="72" y="498" on="0"/>
        <pt x="99" y="533" on="0"/>
        <pt x="141" y="544" on="0"/>
        <pt x="171" y="544" on="1"/>
        <pt x="254" y="531" on="1"/>
        <pt x="254" y="487" on="0"/>
        <pt x="218" y="487" on="1"/>
        <pt x="211" y="487" on="0"/>
        <pt x="204" y="488" on="1"/>
        <pt x="171" y="491" on="1"/>
        <pt x="148" y="491" on="0"/>
        <pt x="122" y="472" on="0"/>
        <pt x="110" y="406" on="0"/>
        <pt x="108" y="345" on="0"/>
        <pt x="108" y="198" on="0"/>
        <pt x="110" y="136" on="0"/>
        <pt x="124" y="67" on="0"/>
        <pt x="154" y="46" on="0"/>
        <pt x="181" y="46" on="1"/>
        <pt x="298" y="70" on="1"/>
        <pt x="427" y="54" on="1"/>
        <pt x="483" y="54" on="0"/>
        <pt x="483" y="158" on="1"/>
        <pt x="483" y="165" on="0"/>
        <pt x="483" y="172" on="1"/>
        <pt x="482" y="204" on="0"/>
        <pt x="360" y="297" on="0"/>
        <pt x="302" y="367" on="0"/>
        <pt x="302" y="439" on="0"/>
        <pt x="304" y="467" on="0"/>
        <pt x="316" y="509" on="0"/>
        <pt x="328" y="518" on="1"/>
        <pt x="359" y="543" on="0"/>
        <pt x="422" y="543" on="1"/>
        <pt x="517" y="529" on="1"/>
        <pt x="517" y="485" on="0"/>
        <pt x="481" y="485" on="1"/>
        <pt x="474" y="485" on="0"/>
        <pt x="467" y="486" on="1"/>
        <pt x="426" y="492" on="1"/>
        <pt x="377" y="492" on="0"/>
        <pt x="366" y="470" on="1"/>
        <pt x="357" y="451" on="0"/>
        <pt x="357" y="378" on="0"/>
        <pt x="435" y="316" on="1"/>
        <pt x="471" y="289" on="0"/>
        <pt x="508" y="257" on="0"/>
        <pt x="543" y="205" on="0"/>
        <pt x="543" y="156" on="0"/>
        <pt x="541" y="121" on="0"/>
        <pt x="534" y="73" on="0"/>
        <pt x="519" y="41" on="0"/>
        <pt x="507" y="26" on="1"/>
        <pt x="483" y="-4" on="0"/>
        <pt x="428" y="-4" on="1"/>
        <pt x="301" y="14" on="1"/>
        <pt x="181" y="-7" on="1"/>
        <pt x="127" y="-7" on="0"/>
        <pt x="91" y="19" on="0"/>
        <pt x="73" y="36" on="0"/>
        <pt x="60" y="80" on="0"/>
        <pt x="54" y="110" on="0"/>
      </contour>
    </TTGlyph>
    <TTGlyph name="caron" xMin="56" yMin="627" xMax="291" yMax="732">
      <contour>
        <pt x="291" y="678" on="1"/>
        <pt x="186" y="627" on="1"/>
        <pt x="160" y="627" on="1"/>
        <pt x="56" y="677" on="1"/>
        <pt x="56" y="732" on="1"/>
        <pt x="173" y="676" on="1"/>
        <pt x="291" y="732" on="1"/>
      </contour>
    </TTGlyph>
    <TTGlyph name="ccedilla" xMin="50" yMin="-154" xMax="268" yMax="544">
      <contour>
        <pt x="156" y="-154" on="1"/>
        <pt x="121" y="-154" on="1"/>
        <pt x="81" y="-154" on="0"/>
        <pt x="68" y="-142" on="0"/>
        <pt x="68" y="-108" on="1"/>
        <pt x="155" y="-108" on="1"/>
        <pt x="155" y="-5" on="1"/>
        <pt x="112" y="-1" on="0"/>
        <pt x="83" y="28" on="0"/>
        <pt x="68" y="46" on="0"/>
        <pt x="58" y="90" on="0"/>
        <pt x="53" y="119" on="0"/>
        <pt x="50" y="185" on="0"/>
        <pt x="50" y="206" on="1"/>
        <pt x="50" y="206" on="0"/>
        <pt x="50" y="332" on="1"/>
        <pt x="50" y="405" on="0"/>
        <pt x="57" y="443" on="0"/>
        <pt x="66" y="487" on="0"/>
        <pt x="79" y="504" on="0"/>
        <pt x="98" y="528" on="0"/>
        <pt x="112" y="532" on="1"/>
        <pt x="146" y="544" on="0"/>
        <pt x="181" y="544" on="1"/>
        <pt x="264" y="531" on="1"/>
        <pt x="264" y="487" on="0"/>
        <pt x="228" y="487" on="1"/>
        <pt x="221" y="487" on="0"/>
        <pt x="214" y="488" on="1"/>
        <pt x="181" y="491" on="1"/>
        <pt x="130" y="491" on="0"/>
        <pt x="108" y="406" on="0"/>
        <pt x="108" y="198" on="0"/>
        <pt x="110" y="136" on="0"/>
        <pt x="124" y="67" on="0"/>
        <pt x="154" y="46" on="0"/>
        <pt x="181" y="46" on="1"/>
        <pt x="268" y="56" on="1"/>
        <pt x="268" y="10" on="1"/>
        <pt x="201" y="-3" on="1"/>
        <pt x="201" y="-108" on="1"/>
        <pt x="201" y="-138" on="0"/>
        <pt x="186" y="-154" on="0"/>
      </contour>
    </TTGlyph>
    <TTGlyph name="cedilla" xMin="28" yMin="-154" xMax="161" yMax="1">
      <contour>
        <pt x="116" y="-154" on="1"/>
        <pt x="81" y="-154" on="1"/>
        <pt x="41" y="-154" on="0"/>
        <pt x="28" y="-142" on="0"/>
        <pt x="28" y="-108" on="1"/>
        <pt x="115" y="-108" on="1"/>
        <pt x="115" y="1" on="1"/>
        <pt x="161" y="1" on="1"/>
        <pt x="161" y="-108" on="1"/>
        <pt x="161" y="-138" on="0"/>
        <pt x="146" y="-154" on="0"/>
      </contour>
    </TTGlyph>
    <TTGlyph name="cent" xMin="61" yMin="-118" xMax="311" yMax="634">
      <contour>
        <pt x="311" y="10" on="1"/>
        <pt x="223" y="-5" on="1"/>
        <pt x="223" y="-118" on="1"/>
        <pt x="186" y="-118" on="0"/>
        <pt x="173" y="-106" on="0"/>
        <pt x="173" y="-72" on="1"/>
        <pt x="173" y="-6" on="1"/>
        <pt x="145" y="-3" on="0"/>
        <pt x="107" y="12" on="0"/>
        <pt x="82" y="48" on="0"/>
        <pt x="69" y="80" on="0"/>
        <pt x="66" y="116" on="1"/>
        <pt x="61" y="163" on="0"/>
        <pt x="61" y="266" on="0"/>
        <pt x="61" y="324" on="0"/>
        <pt x="62" y="369" on="0"/>
        <pt x="65" y="439" on="0"/>
        <pt x="74" y="468" on="0"/>
        <pt x="90" y="509" on="0"/>
        <pt x="102" y="518" on="1"/>
        <pt x="133" y="540" on="0"/>
        <pt x="173" y="543" on="1"/>
        <pt x="173" y="634" on="1"/>
        <pt x="210" y="634" on="0"/>
        <pt x="223" y="622" on="0"/>
        <pt x="223" y="588" on="1"/>
        <pt x="223" y="542" on="1"/>
        <pt x="311" y="537" on="1"/>
        <pt x="311" y="502" on="0"/>
        <pt x="298" y="491" on="0"/>
        <pt x="261" y="491" on="1"/>
        <pt x="202" y="491" on="1"/>
        <pt x="144" y="491" on="0"/>
        <pt x="119" y="406" on="0"/>
        <pt x="119" y="221" on="0"/>
        <pt x="120" y="176" on="0"/>
        <pt x="124" y="112" on="0"/>
        <pt x="134" y="86" on="0"/>
        <pt x="153" y="55" on="0"/>
        <pt x="181" y="46" on="0"/>
        <pt x="241" y="46" on="0"/>
        <pt x="311" y="56" on="1"/>
      </contour>
    </TTGlyph>
    <TTGlyph name="circumflex" xMin="58" yMin="617" xMax="293" yMax="732">
      <contour>
        <pt x="293" y="617" on="1"/>
        <pt x="175" y="683" on="1"/>
        <pt x="58" y="617" on="1"/>
        <pt x="58" y="672" on="1"/>
        <pt x="162" y="732" on="1"/>
        <pt x="188" y="732" on="1"/>
        <pt x="293" y="671" on="1"/>
      </contour>
    </TTGlyph>
    <TTGlyph name="colon" xMin="41" yMin="0" xMax="140" yMax="537">
      <contour>
        <pt x="106" y="0" on="0"/>
        <pt x="68" y="0" on="0"/>
        <pt x="41" y="27" on="0"/>
        <pt x="41" y="65" on="0"/>
        <pt x="68" y="91" on="0"/>
        <pt x="106" y="91" on="0"/>
        <pt x="133" y="65" on="0"/>
        <pt x="133" y="27" on="0"/>
      </contour>
      <contour>
        <pt x="113" y="446" on="0"/>
        <pt x="75" y="446" on="0"/>
        <pt x="48" y="473" on="0"/>
        <pt x="48" y="511" on="0"/>
        <pt x="75" y="537" on="0"/>
        <pt x="113" y="537" on="0"/>
        <pt x="140" y="511" on="0"/>
        <pt x="140" y="473" on="0"/>
      </contour>
    </TTGlyph>
    <TTGlyph name="comma" xMin="32" yMin="-114" xMax="133" yMax="91">
      <contour>
        <pt x="32" y="-96" on="1"/>
        <pt x="58" y="-34" on="0"/>
        <pt x="58" y="20" on="0"/>
        <pt x="47" y="45" on="0"/>
        <pt x="47" y="46" on="1"/>
        <pt x="47" y="65" on="0"/>
        <pt x="74" y="91" on="0"/>
        <pt x="93" y="91" on="1"/>
        <pt x="133" y="91" on="0"/>
        <pt x="133" y="51" on="1"/>
        <pt x="133" y="14" on="0"/>
        <pt x="82" y="-82" on="1"/>
        <pt x="65" y="-114" on="1"/>
      </contour>
    </TTGlyph>
    <TTGlyph name="copyright" xMin="41" yMin="0" xMax="611" yMax="590">
      <contour>
        <pt x="230" y="241" on="1"/>
        <pt x="230" y="260" on="0"/>
        <pt x="230" y="333" on="0"/>
        <pt x="231" y="365" on="0"/>
        <pt x="236" y="412" on="0"/>
        <pt x="247" y="433" on="0"/>
        <pt x="256" y="444" on="1"/>
        <pt x="273" y="465" on="0"/>
        <pt x="320" y="465" on="1"/>
        <pt x="395" y="460" on="1"/>
        <pt x="395" y="433" on="0"/>
        <pt x="387" y="424" on="0"/>
        <pt x="363" y="424" on="1"/>
        <pt x="320" y="424" on="1"/>
        <pt x="303" y="424" on="0"/>
        <pt x="284" y="410" on="0"/>
        <pt x="276" y="371" on="0"/>
        <pt x="274" y="338" on="0"/>
        <pt x="274" y="262" on="0"/>
        <pt x="276" y="229" on="0"/>
        <pt x="284" y="190" on="0"/>
        <pt x="303" y="176" on="0"/>
        <pt x="320" y="176" on="1"/>
        <pt x="406" y="186" on="1"/>
        <pt x="406" y="144" on="1"/>
        <pt x="320" y="131" on="1"/>
        <pt x="274" y="131" on="0"/>
        <pt x="250" y="159" on="1"/>
        <pt x="232" y="179" on="0"/>
      </contour>
      <contour>
        <pt x="611" y="171" on="0"/>
        <pt x="447" y="0" on="0"/>
        <pt x="204" y="0" on="0"/>
        <pt x="41" y="171" on="0"/>
        <pt x="41" y="418" on="0"/>
        <pt x="204" y="590" on="0"/>
        <pt x="447" y="590" on="0"/>
        <pt x="611" y="418" on="0"/>
      </contour>
      <contour>
        <pt x="226" y="51" on="0"/>
        <pt x="426" y="51" on="0"/>
        <pt x="560" y="193" on="0"/>
        <pt x="560" y="397" on="0"/>
        <pt x="426" y="539" on="0"/>
        <pt x="226" y="539" on="0"/>
        <pt x="92" y="397" on="0"/>
        <pt x="92" y="193" on="0"/>
      </contour>
    </TTGlyph>
    <TTGlyph name="currency" xMin="77" yMin="201" xMax="426" yMax="549">
      <contour>
        <pt x="283" y="300" on="0"/>
        <pt x="330" y="345" on="0"/>
        <pt x="330" y="409" on="0"/>
        <pt x="283" y="455" on="0"/>
        <pt x="218" y="455" on="0"/>
        <pt x="172" y="410" on="0"/>
        <pt x="172" y="345" on="0"/>
        <pt x="218" y="300" on="0"/>
      </contour>
      <contour>
        <pt x="325" y="269" on="1"/>
        <pt x="290" y="247" on="0"/>
        <pt x="214" y="247" on="0"/>
        <pt x="182" y="266" on="1"/>
        <pt x="107" y="201" on="1"/>
        <pt x="83" y="225" on="0"/>
        <pt x="83" y="241" on="0"/>
        <pt x="110" y="269" on="1"/>
        <pt x="145" y="303" on="1"/>
        <pt x="118" y="340" on="0"/>
        <pt x="118" y="420" on="0"/>
        <pt x="142" y="450" on="1"/>
        <pt x="77" y="525" on="1"/>
        <pt x="101" y="549" on="0"/>
        <pt x="117" y="549" on="0"/>
        <pt x="145" y="522" on="1"/>
        <pt x="179" y="487" on="1"/>
        <pt x="213" y="508" on="0"/>
        <pt x="291" y="508" on="0"/>
        <pt x="326" y="484" on="1"/>
        <pt x="401" y="549" on="1"/>
        <pt x="425" y="525" on="0"/>
        <pt x="425" y="509" on="0"/>
        <pt x="398" y="481" on="1"/>
        <pt x="363" y="447" on="1"/>
        <pt x="384" y="415" on="0"/>
        <pt x="384" y="340" on="0"/>
        <pt x="361" y="305" on="1"/>
        <pt x="426" y="230" on="1"/>
        <pt x="402" y="206" on="0"/>
        <pt x="386" y="206" on="0"/>
        <pt x="358" y="233" on="1"/>
        <pt x="324" y="268" on="1"/>
      </contour>
    </TTGlyph>
    <TTGlyph name="d" xMin="50" yMin="-7" xMax="318" yMax="732">
      <contour>
        <pt x="51" y="160" on="1"/>
        <pt x="50" y="193" on="0"/>
        <pt x="50" y="307" on="0"/>
        <pt x="51" y="351" on="0"/>
        <pt x="53" y="412" on="0"/>
        <pt x="58" y="443" on="0"/>
        <pt x="67" y="484" on="0"/>
        <pt x="81" y="504" on="0"/>
        <pt x="101" y="528" on="0"/>
        <pt x="114" y="532" on="1"/>
        <pt x="149" y="544" on="0"/>
        <pt x="186" y="544" on="1"/>
        <pt x="260" y="516" on="1"/>
        <pt x="260" y="732" on="1"/>
        <pt x="304" y="732" on="0"/>
        <pt x="318" y="720" on="0"/>
        <pt x="318" y="686" on="1"/>
        <pt x="318" y="0" on="1"/>
        <pt x="274" y="0" on="0"/>
        <pt x="260" y="13" on="0"/>
        <pt x="260" y="53" on="1"/>
        <pt x="181" y="-7" on="1"/>
        <pt x="114" y="-7" on="0"/>
        <pt x="78" y="30" on="1"/>
        <pt x="54" y="55" on="0"/>
      </contour>
      <contour>
        <pt x="110" y="364" on="0"/>
        <pt x="109" y="321" on="0"/>
        <pt x="109" y="130" on="0"/>
        <pt x="118" y="95" on="1"/>
        <pt x="139" y="49" on="0"/>
        <pt x="182" y="46" on="1"/>
        <pt x="264" y="91" on="1"/>
        <pt x="260" y="116" on="1"/>
        <pt x="260" y="440" on="1"/>
        <pt x="264" y="465" on="1"/>
        <pt x="182" y="491" on="1"/>
        <pt x="145" y="491" on="0"/>
        <pt x="131" y="466" on="1"/>
        <pt x="115" y="436" on="0"/>
      </contour>
    </TTGlyph>
    <TTGlyph name="dagger" xMin="8" yMin="0" xMax="281" yMax="732">
      <contour>
        <pt x="175" y="0" on="1"/>
        <pt x="112" y="0" on="1"/>
        <pt x="112" y="327" on="1"/>
        <pt x="116" y="352" on="1"/>
        <pt x="8" y="352" on="1"/>
        <pt x="8" y="403" on="1"/>
        <pt x="116" y="403" on="1"/>
        <pt x="112" y="428" on="1"/>
        <pt x="112" y="732" on="1"/>
        <pt x="175" y="732" on="1"/>
        <pt x="175" y="428" on="1"/>
        <pt x="171" y="403" on="1"/>
        <pt x="281" y="403" on="1"/>
        <pt x="281" y="352" on="1"/>
        <pt x="171" y="352" on="1"/>
        <pt x="175" y="327" on="1"/>
      </contour>
    </TTGlyph>
    <TTGlyph name="daggerdbl" xMin="10" yMin="0" xMax="283" yMax="732">
      <contour>
        <pt x="177" y="0" on="1"/>
        <pt x="114" y="0" on="1"/>
        <pt x="114" y="317" on="1"/>
        <pt x="118" y="342" on="1"/>
        <pt x="10" y="342" on="1"/>
        <pt x="10" y="393" on="1"/>
        <pt x="118" y="393" on="1"/>
        <pt x="114" y="418" on="1"/>
        <pt x="118" y="456" on="1"/>
        <pt x="10" y="456" on="1"/>
        <pt x="10" y="507" on="1"/>
        <pt x="118" y="507" on="1"/>
        <pt x="114" y="532" on="1"/>
        <pt x="114" y="732" on="1"/>
        <pt x="177" y="732" on="1"/>
        <pt x="177" y="532" on="1"/>
        <pt x="173" y="507" on="1"/>
        <pt x="283" y="507" on="1"/>
        <pt x="283" y="456" on="1"/>
        <pt x="173" y="456" on="1"/>
        <pt x="177" y="421" on="1"/>
        <pt x="173" y="393" on="1"/>
        <pt x="283" y="393" on="1"/>
        <pt x="283" y="342" on="1"/>
        <pt x="173" y="342" on="1"/>
        <pt x="177" y="317" on="1"/>
      </contour>
    </TTGlyph>
    <TTGlyph name="degree" xMin="41" yMin="470" xMax="307" yMax="731">
      <contour>
        <pt x="307" y="655" on="0"/>
        <pt x="307" y="547" on="0"/>
        <pt x="228" y="470" on="0"/>
        <pt x="120" y="470" on="0"/>
        <pt x="41" y="547" on="0"/>
        <pt x="41" y="655" on="0"/>
        <pt x="120" y="731" on="0"/>
        <pt x="228" y="731" on="0"/>
      </contour>
      <contour>
        <pt x="206" y="523" on="0"/>
        <pt x="253" y="568" on="0"/>
        <pt x="253" y="632" on="0"/>
        <pt x="206" y="678" on="0"/>
        <pt x="141" y="678" on="0"/>
        <pt x="95" y="633" on="0"/>
        <pt x="95" y="568" on="0"/>
        <pt x="141" y="523" on="0"/>
      </contour>
    </TTGlyph>
    <TTGlyph name="dieresis" xMin="53" yMin="629" xMax="288" yMax="720">
      <contour>
        <pt x="118" y="629" on="0"/>
        <pt x="80" y="629" on="0"/>
        <pt x="53" y="656" on="0"/>
        <pt x="53" y="694" on="0"/>
        <pt x="80" y="720" on="0"/>
        <pt x="118" y="720" on="0"/>
        <pt x="145" y="694" on="0"/>
        <pt x="145" y="656" on="0"/>
      </contour>
      <contour>
        <pt x="261" y="629" on="0"/>
        <pt x="223" y="629" on="0"/>
        <pt x="196" y="656" on="0"/>
        <pt x="196" y="694" on="0"/>
        <pt x="223" y="720" on="0"/>
        <pt x="261" y="720" on="0"/>
        <pt x="288" y="694" on="0"/>
        <pt x="288" y="656" on="0"/>
      </contour>
    </TTGlyph>
    <TTGlyph name="divide" xMin="30" yMin="0" xMax="244" yMax="537">
      <contour>
        <pt x="150" y="0" on="0"/>
        <pt x="112" y="0" on="0"/>
        <pt x="85" y="27" on="0"/>
        <pt x="85" y="65" on="0"/>
        <pt x="112" y="91" on="0"/>
        <pt x="150" y="91" on="0"/>
        <pt x="177" y="65" on="0"/>
        <pt x="177" y="27" on="0"/>
      </contour>
      <contour>
        <pt x="157" y="446" on="0"/>
        <pt x="119" y="446" on="0"/>
        <pt x="92" y="473" on="0"/>
        <pt x="92" y="511" on="0"/>
        <pt x="119" y="537" on="0"/>
        <pt x="157" y="537" on="0"/>
        <pt x="184" y="511" on="0"/>
        <pt x="184" y="473" on="0"/>
      </contour>
      <contour>
        <pt x="244" y="270" on="1"/>
        <pt x="30" y="270" on="1"/>
        <pt x="30" y="321" on="1"/>
        <pt x="244" y="321" on="1"/>
      </contour>
    </TTGlyph>
    <TTGlyph name="dollar" xMin="64" yMin="-121" xMax="323" yMax="631">
      <contour>
        <pt x="75" y="56" on="1"/>
        <pt x="145" y="46" on="0"/>
        <pt x="210" y="46" on="0"/>
        <pt x="236" y="58" on="0"/>
        <pt x="250" y="73" on="0"/>
        <pt x="253" y="90" on="1"/>
        <pt x="257" y="112" on="0"/>
        <pt x="257" y="160" on="1"/>
        <pt x="257" y="182" on="0"/>
        <pt x="197" y="241" on="0"/>
        <pt x="124" y="292" on="0"/>
        <pt x="64" y="367" on="0"/>
        <pt x="64" y="430" on="0"/>
        <pt x="66" y="459" on="0"/>
        <pt x="77" y="500" on="0"/>
        <pt x="88" y="511" on="1"/>
        <pt x="116" y="539" on="0"/>
        <pt x="173" y="543" on="1"/>
        <pt x="174" y="631" on="1"/>
        <pt x="210" y="631" on="0"/>
        <pt x="221" y="620" on="0"/>
        <pt x="222" y="585" on="1"/>
        <pt x="223" y="537" on="1"/>
        <pt x="287" y="528" on="1"/>
        <pt x="287" y="484" on="0"/>
        <pt x="251" y="484" on="1"/>
        <pt x="244" y="484" on="0"/>
        <pt x="237" y="485" on="1"/>
        <pt x="202" y="491" on="1"/>
        <pt x="145" y="491" on="0"/>
        <pt x="132" y="465" on="1"/>
        <pt x="123" y="445" on="0"/>
        <pt x="123" y="408" on="1"/>
        <pt x="123" y="384" on="0"/>
        <pt x="186" y="323" on="0"/>
        <pt x="260" y="274" on="0"/>
        <pt x="323" y="202" on="0"/>
        <pt x="323" y="138" on="0"/>
        <pt x="322" y="107" on="0"/>
        <pt x="312" y="55" on="0"/>
        <pt x="302" y="41" on="1"/>
        <pt x="278" y="5" on="0"/>
        <pt x="227" y="-4" on="1"/>
        <pt x="226" y="-121" on="1"/>
        <pt x="190" y="-121" on="0"/>
        <pt x="179" y="-110" on="0"/>
        <pt x="178" y="-75" on="1"/>
        <pt x="177" y="-7" on="1"/>
        <pt x="166" y="-6" on="0"/>
        <pt x="75" y="10" on="1"/>
      </contour>
    </TTGlyph>
    <TTGlyph name="dotaccent" xMin="46" yMin="641" xMax="138" yMax="732">
      <contour>
        <pt x="111" y="641" on="0"/>
        <pt x="73" y="641" on="0"/>
        <pt x="46" y="668" on="0"/>
        <pt x="46" y="706" on="0"/>
        <pt x="73" y="732" on="0"/>
        <pt x="111" y="732" on="0"/>
        <pt x="138" y="706" on="0"/>
        <pt x="138" y="668" on="0"/>
      </contour>
    </TTGlyph>
    <TTGlyph name="dotlessi" xMin="11" yMin="128" xMax="144" yMax="449">
      <contour>
        <pt x="144" y="128" on="1"/>
        <pt x="91" y="128" on="1"/>
        <pt x="91" y="403" on="1"/>
        <pt x="11" y="403" on="1"/>
        <pt x="11" y="438" on="0"/>
        <pt x="24" y="449" on="0"/>
        <pt x="64" y="449" on="1"/>
        <pt x="144" y="449" on="1"/>
      </contour>
    </TTGlyph>
    <TTGlyph name="e" xMin="50" yMin="-7" xMax="308" yMax="544">
      <contour>
        <pt x="306" y="10" on="1"/>
        <pt x="229" y="-7" on="0"/>
        <pt x="168" y="-7" on="0"/>
        <pt x="135" y="-4" on="0"/>
        <pt x="108" y="9" on="0"/>
        <pt x="88" y="18" on="0"/>
        <pt x="72" y="45" on="0"/>
        <pt x="62" y="62" on="0"/>
        <pt x="56" y="104" on="0"/>
        <pt x="52" y="130" on="0"/>
        <pt x="50" y="189" on="0"/>
        <pt x="50" y="207" on="1"/>
        <pt x="50" y="320" on="1"/>
        <pt x="50" y="386" on="0"/>
        <pt x="56" y="425" on="0"/>
        <pt x="62" y="469" on="0"/>
        <pt x="72" y="488" on="0"/>
        <pt x="88" y="516" on="0"/>
        <pt x="108" y="527" on="0"/>
        <pt x="135" y="540" on="0"/>
        <pt x="168" y="544" on="0"/>
        <pt x="210" y="544" on="0"/>
        <pt x="244" y="538" on="0"/>
        <pt x="267" y="520" on="0"/>
        <pt x="284" y="504" on="0"/>
        <pt x="295" y="468" on="0"/>
        <pt x="301" y="443" on="0"/>
        <pt x="304" y="390" on="0"/>
        <pt x="304" y="374" on="1"/>
        <pt x="304" y="322" on="1"/>
        <pt x="308" y="268" on="1"/>
        <pt x="104" y="263" on="1"/>
        <pt x="108" y="238" on="1"/>
        <pt x="108" y="110" on="0"/>
        <pt x="118" y="90" on="1"/>
        <pt x="134" y="57" on="0"/>
        <pt x="155" y="52" on="1"/>
        <pt x="169" y="48" on="0"/>
        <pt x="250" y="48" on="0"/>
        <pt x="306" y="61" on="1"/>
      </contour>
      <contour>
        <pt x="114" y="396" on="1"/>
        <pt x="114" y="378" on="0"/>
        <pt x="114" y="342" on="1"/>
        <pt x="110" y="317" on="1"/>
        <pt x="252" y="317" on="1"/>
        <pt x="247" y="343" on="1"/>
        <pt x="247" y="423" on="0"/>
        <pt x="225" y="491" on="0"/>
        <pt x="148" y="491" on="0"/>
        <pt x="116" y="450" on="0"/>
      </contour>
    </TTGlyph>
    <TTGlyph name="eacute" xMin="50" yMin="-7" xMax="308" yMax="740">
      <contour>
        <pt x="306" y="10" on="1"/>
        <pt x="229" y="-7" on="0"/>
        <pt x="168" y="-7" on="0"/>
        <pt x="135" y="-4" on="0"/>
        <pt x="108" y="9" on="0"/>
        <pt x="88" y="18" on="0"/>
        <pt x="72" y="45" on="0"/>
        <pt x="62" y="62" on="0"/>
        <pt x="56" y="104" on="0"/>
        <pt x="52" y="130" on="0"/>
        <pt x="50" y="189" on="0"/>
        <pt x="50" y="207" on="1"/>
        <pt x="50" y="320" on="1"/>
        <pt x="50" y="386" on="0"/>
        <pt x="56" y="425" on="0"/>
        <pt x="62" y="469" on="0"/>
        <pt x="72" y="488" on="0"/>
        <pt x="88" y="516" on="0"/>
        <pt x="108" y="527" on="0"/>
        <pt x="135" y="540" on="0"/>
        <pt x="168" y="544" on="0"/>
        <pt x="210" y="544" on="0"/>
        <pt x="244" y="538" on="0"/>
        <pt x="267" y="520" on="0"/>
        <pt x="284" y="504" on="0"/>
        <pt x="295" y="468" on="0"/>
        <pt x="301" y="443" on="0"/>
        <pt x="304" y="390" on="0"/>
        <pt x="304" y="374" on="1"/>
        <pt x="304" y="322" on="1"/>
        <pt x="308" y="268" on="1"/>
        <pt x="104" y="263" on="1"/>
        <pt x="108" y="238" on="1"/>
        <pt x="108" y="110" on="0"/>
        <pt x="118" y="90" on="1"/>
        <pt x="134" y="57" on="0"/>
        <pt x="155" y="52" on="1"/>
        <pt x="169" y="48" on="0"/>
        <pt x="250" y="48" on="0"/>
        <pt x="306" y="61" on="1"/>
      </contour>
      <contour>
        <pt x="114" y="396" on="1"/>
        <pt x="114" y="378" on="0"/>
        <pt x="114" y="342" on="1"/>
        <pt x="110" y="317" on="1"/>
        <pt x="252" y="317" on="1"/>
        <pt x="247" y="343" on="1"/>
        <pt x="247" y="423" on="0"/>
        <pt x="225" y="491" on="0"/>
        <pt x="148" y="491" on="0"/>
        <pt x="116" y="450" on="0"/>
      </contour>
      <contour>
        <pt x="211" y="707" on="1"/>
        <pt x="244" y="740" on="0"/>
        <pt x="252" y="740" on="1"/>
        <pt x="262" y="740" on="0"/>
        <pt x="293" y="709" on="1"/>
        <pt x="178" y="595" on="1"/>
        <pt x="143" y="631" on="1"/>
      </contour>
    </TTGlyph>
    <TTGlyph name="ecircumflex" xMin="50" yMin="-7" xMax="308" yMax="744">
      <contour>
        <pt x="306" y="10" on="1"/>
        <pt x="229" y="-7" on="0"/>
        <pt x="168" y="-7" on="0"/>
        <pt x="135" y="-4" on="0"/>
        <pt x="108" y="9" on="0"/>
        <pt x="88" y="18" on="0"/>
        <pt x="72" y="45" on="0"/>
        <pt x="62" y="62" on="0"/>
        <pt x="56" y="104" on="0"/>
        <pt x="52" y="130" on="0"/>
        <pt x="50" y="189" on="0"/>
        <pt x="50" y="207" on="1"/>
        <pt x="50" y="320" on="1"/>
        <pt x="50" y="386" on="0"/>
        <pt x="56" y="425" on="0"/>
        <pt x="62" y="469" on="0"/>
        <pt x="72" y="488" on="0"/>
        <pt x="88" y="516" on="0"/>
        <pt x="108" y="527" on="0"/>
        <pt x="135" y="540" on="0"/>
        <pt x="168" y="544" on="0"/>
        <pt x="210" y="544" on="0"/>
        <pt x="244" y="538" on="0"/>
        <pt x="267" y="520" on="0"/>
        <pt x="284" y="504" on="0"/>
        <pt x="295" y="468" on="0"/>
        <pt x="301" y="443" on="0"/>
        <pt x="304" y="390" on="0"/>
        <pt x="304" y="374" on="1"/>
        <pt x="304" y="322" on="1"/>
        <pt x="308" y="268" on="1"/>
        <pt x="104" y="263" on="1"/>
        <pt x="108" y="238" on="1"/>
        <pt x="108" y="110" on="0"/>
        <pt x="118" y="90" on="1"/>
        <pt x="134" y="57" on="0"/>
        <pt x="155" y="52" on="1"/>
        <pt x="169" y="48" on="0"/>
        <pt x="250" y="48" on="0"/>
        <pt x="306" y="61" on="1"/>
      </contour>
      <contour>
        <pt x="114" y="396" on="1"/>
        <pt x="114" y="378" on="0"/>
        <pt x="114" y="342" on="1"/>
        <pt x="110" y="317" on="1"/>
        <pt x="252" y="317" on="1"/>
        <pt x="247" y="343" on="1"/>
        <pt x="247" y="423" on="0"/>
        <pt x="225" y="491" on="0"/>
        <pt x="148" y="491" on="0"/>
        <pt x="116" y="450" on="0"/>
      </contour>
      <contour>
        <pt x="300" y="629" on="1"/>
        <pt x="182" y="695" on="1"/>
        <pt x="65" y="629" on="1"/>
        <pt x="65" y="684" on="1"/>
        <pt x="169" y="744" on="1"/>
        <pt x="195" y="744" on="1"/>
        <pt x="300" y="683" on="1"/>
      </contour>
    </TTGlyph>
    <TTGlyph name="edieresis" xMin="50" yMin="-7" xMax="308" yMax="713">
      <contour>
        <pt x="306" y="10" on="1"/>
        <pt x="229" y="-7" on="0"/>
        <pt x="168" y="-7" on="0"/>
        <pt x="135" y="-4" on="0"/>
        <pt x="108" y="9" on="0"/>
        <pt x="88" y="18" on="0"/>
        <pt x="72" y="45" on="0"/>
        <pt x="62" y="62" on="0"/>
        <pt x="56" y="104" on="0"/>
        <pt x="52" y="130" on="0"/>
        <pt x="50" y="189" on="0"/>
        <pt x="50" y="207" on="1"/>
        <pt x="50" y="320" on="1"/>
        <pt x="50" y="386" on="0"/>
        <pt x="56" y="425" on="0"/>
        <pt x="62" y="469" on="0"/>
        <pt x="72" y="488" on="0"/>
        <pt x="88" y="516" on="0"/>
        <pt x="108" y="527" on="0"/>
        <pt x="135" y="540" on="0"/>
        <pt x="168" y="544" on="0"/>
        <pt x="210" y="544" on="0"/>
        <pt x="244" y="538" on="0"/>
        <pt x="267" y="520" on="0"/>
        <pt x="284" y="504" on="0"/>
        <pt x="295" y="468" on="0"/>
        <pt x="301" y="443" on="0"/>
        <pt x="304" y="390" on="0"/>
        <pt x="304" y="374" on="1"/>
        <pt x="304" y="322" on="1"/>
        <pt x="308" y="268" on="1"/>
        <pt x="104" y="263" on="1"/>
        <pt x="108" y="238" on="1"/>
        <pt x="108" y="110" on="0"/>
        <pt x="118" y="90" on="1"/>
        <pt x="134" y="57" on="0"/>
        <pt x="155" y="52" on="1"/>
        <pt x="169" y="48" on="0"/>
        <pt x="250" y="48" on="0"/>
        <pt x="306" y="61" on="1"/>
      </contour>
      <contour>
        <pt x="114" y="396" on="1"/>
        <pt x="114" y="378" on="0"/>
        <pt x="114" y="342" on="1"/>
        <pt x="110" y="317" on="1"/>
        <pt x="252" y="317" on="1"/>
        <pt x="247" y="343" on="1"/>
        <pt x="247" y="423" on="0"/>
        <pt x="225" y="491" on="0"/>
        <pt x="148" y="491" on="0"/>
        <pt x="116" y="450" on="0"/>
      </contour>
      <contour>
        <pt x="132" y="622" on="0"/>
        <pt x="94" y="622" on="0"/>
        <pt x="67" y="649" on="0"/>
        <pt x="67" y="687" on="0"/>
        <pt x="94" y="713" on="0"/>
        <pt x="132" y="713" on="0"/>
        <pt x="159" y="687" on="0"/>
        <pt x="159" y="649" on="0"/>
      </contour>
      <contour>
        <pt x="275" y="622" on="0"/>
        <pt x="237" y="622" on="0"/>
        <pt x="210" y="649" on="0"/>
        <pt x="210" y="687" on="0"/>
        <pt x="237" y="713" on="0"/>
        <pt x="275" y="713" on="0"/>
        <pt x="302" y="687" on="0"/>
        <pt x="302" y="649" on="0"/>
      </contour>
    </TTGlyph>
    <TTGlyph name="egrave" xMin="50" yMin="-7" xMax="308" yMax="740">
      <contour>
        <pt x="306" y="10" on="1"/>
        <pt x="229" y="-7" on="0"/>
        <pt x="168" y="-7" on="0"/>
        <pt x="135" y="-4" on="0"/>
        <pt x="108" y="9" on="0"/>
        <pt x="88" y="18" on="0"/>
        <pt x="72" y="45" on="0"/>
        <pt x="62" y="62" on="0"/>
        <pt x="56" y="104" on="0"/>
        <pt x="52" y="130" on="0"/>
        <pt x="50" y="189" on="0"/>
        <pt x="50" y="207" on="1"/>
        <pt x="50" y="320" on="1"/>
        <pt x="50" y="386" on="0"/>
        <pt x="56" y="425" on="0"/>
        <pt x="62" y="469" on="0"/>
        <pt x="72" y="488" on="0"/>
        <pt x="88" y="516" on="0"/>
        <pt x="108" y="527" on="0"/>
        <pt x="135" y="540" on="0"/>
        <pt x="168" y="544" on="0"/>
        <pt x="210" y="544" on="0"/>
        <pt x="244" y="538" on="0"/>
        <pt x="267" y="520" on="0"/>
        <pt x="284" y="504" on="0"/>
        <pt x="295" y="468" on="0"/>
        <pt x="301" y="443" on="0"/>
        <pt x="304" y="390" on="0"/>
        <pt x="304" y="374" on="1"/>
        <pt x="304" y="322" on="1"/>
        <pt x="308" y="268" on="1"/>
        <pt x="104" y="263" on="1"/>
        <pt x="108" y="238" on="1"/>
        <pt x="108" y="110" on="0"/>
        <pt x="118" y="90" on="1"/>
        <pt x="134" y="57" on="0"/>
        <pt x="155" y="52" on="1"/>
        <pt x="169" y="48" on="0"/>
        <pt x="250" y="48" on="0"/>
        <pt x="306" y="61" on="1"/>
      </contour>
      <contour>
        <pt x="114" y="396" on="1"/>
        <pt x="114" y="378" on="0"/>
        <pt x="114" y="342" on="1"/>
        <pt x="110" y="317" on="1"/>
        <pt x="252" y="317" on="1"/>
        <pt x="247" y="343" on="1"/>
        <pt x="247" y="423" on="0"/>
        <pt x="225" y="491" on="0"/>
        <pt x="148" y="491" on="0"/>
        <pt x="116" y="450" on="0"/>
      </contour>
      <contour>
        <pt x="112" y="709" on="1"/>
        <pt x="143" y="740" on="0"/>
        <pt x="161" y="740" on="0"/>
        <pt x="194" y="707" on="1"/>
        <pt x="262" y="631" on="1"/>
        <pt x="227" y="595" on="1"/>
      </contour>
    </TTGlyph>
    <TTGlyph name="eight" xMin="60" yMin="-7" xMax="362" yMax="740">
      <contour>
        <pt x="79" y="559" on="1"/>
        <pt x="79" y="740" on="0"/>
        <pt x="211" y="740" on="1"/>
        <pt x="270" y="740" on="0"/>
        <pt x="342" y="655" on="0"/>
        <pt x="342" y="559" on="1"/>
        <pt x="342" y="435" on="0"/>
        <pt x="277" y="388" on="1"/>
        <pt x="362" y="324" on="0"/>
        <pt x="362" y="105" on="0"/>
        <pt x="281" y="-7" on="0"/>
        <pt x="140" y="-7" on="0"/>
        <pt x="60" y="103" on="0"/>
        <pt x="60" y="208" on="1"/>
        <pt x="60" y="271" on="0"/>
        <pt x="109" y="369" on="0"/>
        <pt x="146" y="397" on="1"/>
        <pt x="79" y="446" on="0"/>
      </contour>
      <contour>
        <pt x="123" y="207" on="1"/>
        <pt x="123" y="49" on="0"/>
        <pt x="298" y="49" on="0"/>
        <pt x="298" y="207" on="1"/>
        <pt x="298" y="280" on="0"/>
        <pt x="246" y="366" on="0"/>
        <pt x="175" y="366" on="0"/>
        <pt x="123" y="280" on="0"/>
      </contour>
      <contour>
        <pt x="176" y="425" on="0"/>
        <pt x="246" y="425" on="0"/>
        <pt x="279" y="485" on="0"/>
        <pt x="279" y="631" on="0"/>
        <pt x="246" y="684" on="0"/>
        <pt x="175" y="684" on="0"/>
        <pt x="143" y="632" on="0"/>
        <pt x="143" y="485" on="0"/>
      </contour>
    </TTGlyph>
    <TTGlyph name="ellipsis" xMin="56" yMin="0" xMax="434" yMax="91">
      <contour>
        <pt x="121" y="0" on="0"/>
        <pt x="83" y="0" on="0"/>
        <pt x="56" y="27" on="0"/>
        <pt x="56" y="65" on="0"/>
        <pt x="83" y="91" on="0"/>
        <pt x="121" y="91" on="0"/>
        <pt x="148" y="65" on="0"/>
        <pt x="148" y="27" on="0"/>
      </contour>
      <contour>
        <pt x="267" y="0" on="0"/>
        <pt x="229" y="0" on="0"/>
        <pt x="202" y="27" on="0"/>
        <pt x="202" y="65" on="0"/>
        <pt x="229" y="91" on="0"/>
        <pt x="267" y="91" on="0"/>
        <pt x="294" y="65" on="0"/>
        <pt x="294" y="27" on="0"/>
      </contour>
      <contour>
        <pt x="407" y="0" on="0"/>
        <pt x="369" y="0" on="0"/>
        <pt x="342" y="27" on="0"/>
        <pt x="342" y="65" on="0"/>
        <pt x="369" y="91" on="0"/>
        <pt x="407" y="91" on="0"/>
        <pt x="434" y="65" on="0"/>
        <pt x="434" y="27" on="0"/>
      </contour>
    </TTGlyph>
    <TTGlyph name="emdash" xMin="60" yMin="300" xMax="552" yMax="351">
      <contour>
        <pt x="552" y="300" on="1"/>
        <pt x="60" y="300" on="1"/>
        <pt x="60" y="351" on="1"/>
        <pt x="552" y="351" on="1"/>
      </contour>
    </TTGlyph>
    <TTGlyph name="endash" xMin="60" yMin="300" xMax="333" yMax="351">
      <contour>
        <pt x="333" y="300" on="1"/>
        <pt x="60" y="300" on="1"/>
        <pt x="60" y="351" on="1"/>
        <pt x="333" y="351" on="1"/>
      </contour>
    </TTGlyph>
    <TTGlyph name="equal" xMin="60" yMin="247" xMax="333" yMax="402">
      <contour>
        <pt x="333" y="351" on="1"/>
        <pt x="60" y="351" on="1"/>
        <pt x="60" y="402" on="1"/>
        <pt x="333" y="402" on="1"/>
      </contour>
      <contour>
        <pt x="333" y="247" on="1"/>
        <pt x="60" y="247" on="1"/>
        <pt x="60" y="298" on="1"/>
        <pt x="333" y="298" on="1"/>
      </contour>
    </TTGlyph>
    <TTGlyph name="eth" xMin="30" yMin="0" xMax="325" yMax="732">
      <contour>
        <pt x="117" y="438" on="0"/>
        <pt x="93" y="375" on="0"/>
        <pt x="93" y="119" on="0"/>
        <pt x="117" y="53" on="0"/>
        <pt x="238" y="53" on="0"/>
        <pt x="262" y="128" on="0"/>
        <pt x="262" y="284" on="1"/>
        <pt x="262" y="292" on="0"/>
        <pt x="262" y="297" on="1"/>
        <pt x="260" y="406" on="1"/>
        <pt x="176" y="438" on="1"/>
      </contour>
      <contour>
        <pt x="154" y="675" on="1"/>
        <pt x="154" y="732" on="1"/>
        <pt x="208" y="732" on="0"/>
        <pt x="237" y="710" on="1"/>
        <pt x="253" y="697" on="0"/>
        <pt x="278" y="672" on="0"/>
        <pt x="296" y="625" on="0"/>
        <pt x="309" y="587" on="0"/>
        <pt x="318" y="522" on="0"/>
        <pt x="322" y="475" on="0"/>
        <pt x="325" y="395" on="0"/>
        <pt x="325" y="369" on="1"/>
        <pt x="325" y="228" on="1"/>
        <pt x="325" y="89" on="0"/>
        <pt x="306" y="56" on="1"/>
        <pt x="287" y="24" on="0"/>
        <pt x="262" y="13" on="0"/>
        <pt x="248" y="8" on="1"/>
        <pt x="224" y="0" on="0"/>
        <pt x="176" y="0" on="1"/>
        <pt x="73" y="0" on="0"/>
        <pt x="30" y="88" on="0"/>
        <pt x="30" y="248" on="1"/>
        <pt x="30" y="304" on="1"/>
        <pt x="30" y="366" on="0"/>
        <pt x="36" y="400" on="0"/>
        <pt x="43" y="438" on="0"/>
        <pt x="53" y="451" on="0"/>
        <pt x="70" y="473" on="0"/>
        <pt x="90" y="480" on="0"/>
        <pt x="104" y="484" on="1"/>
        <pt x="125" y="491" on="0"/>
        <pt x="176" y="491" on="1"/>
        <pt x="256" y="457" on="1"/>
        <pt x="246" y="575" on="0"/>
        <pt x="202" y="675" on="0"/>
      </contour>
    </TTGlyph>
    <TTGlyph name="exclam" xMin="34" yMin="4" xMax="141" yMax="723">
      <contour>
        <pt x="99" y="94" on="0"/>
        <pt x="126" y="67" on="0"/>
        <pt x="126" y="30" on="0"/>
        <pt x="99" y="4" on="0"/>
        <pt x="62" y="4" on="0"/>
        <pt x="34" y="30" on="0"/>
        <pt x="34" y="48" on="1"/>
        <pt x="34" y="52" on="1"/>
        <pt x="35" y="70" on="0"/>
        <pt x="63" y="94" on="0"/>
      </contour>
      <contour>
        <pt x="71" y="706" on="0"/>
        <pt x="85" y="723" on="0"/>
        <pt x="113" y="723" on="0"/>
        <pt x="141" y="721" on="1"/>
        <pt x="123" y="230" on="1"/>
        <pt x="121" y="189" on="0"/>
        <pt x="110" y="187" on="1"/>
        <pt x="105" y="186" on="0"/>
        <pt x="90" y="186" on="0"/>
        <pt x="64" y="188" on="1"/>
        <pt x="71" y="680" on="1"/>
      </contour>
    </TTGlyph>
    <TTGlyph name="exclamdown" xMin="32" yMin="-178" xMax="127" yMax="542">
      <contour>
        <pt x="127" y="516" on="0"/>
        <pt x="127" y="478" on="0"/>
        <pt x="100" y="451" on="0"/>
        <pt x="62" y="451" on="0"/>
        <pt x="35" y="478" on="0"/>
        <pt x="35" y="516" on="0"/>
        <pt x="62" y="542" on="0"/>
        <pt x="100" y="542" on="0"/>
      </contour>
      <contour>
        <pt x="32" y="-178" on="1"/>
        <pt x="52" y="313" on="1"/>
        <pt x="54" y="348" on="0"/>
        <pt x="58" y="353" on="1"/>
        <pt x="66" y="359" on="0"/>
        <pt x="108" y="359" on="1"/>
        <pt x="98" y="-132" on="1"/>
        <pt x="97" y="-166" on="0"/>
        <pt x="78" y="-178" on="0"/>
      </contour>
    </TTGlyph>
    <TTGlyph name="f" xMin="18" yMin="-200" xMax="235" yMax="731">
      <contour>
        <pt x="18" y="483" on="1"/>
        <pt x="18" y="537" on="1"/>
        <pt x="72" y="537" on="1"/>
        <pt x="67" y="567" on="1"/>
        <pt x="67" y="578" on="1"/>
        <pt x="67" y="662" on="0"/>
        <pt x="81" y="688" on="0"/>
        <pt x="97" y="710" on="0"/>
        <pt x="121" y="719" on="0"/>
        <pt x="139" y="724" on="1"/>
        <pt x="169" y="731" on="0"/>
        <pt x="235" y="731" on="1"/>
        <pt x="235" y="684" on="1"/>
        <pt x="157" y="684" on="0"/>
        <pt x="126" y="653" on="0"/>
        <pt x="126" y="578" on="1"/>
        <pt x="126" y="567" on="1"/>
        <pt x="121" y="537" on="1"/>
        <pt x="211" y="537" on="1"/>
        <pt x="211" y="483" on="1"/>
        <pt x="120" y="483" on="1"/>
        <pt x="125" y="453" on="1"/>
        <pt x="125" y="-143" on="1"/>
        <pt x="124" y="-186" on="0"/>
        <pt x="110" y="-200" on="0"/>
        <pt x="66" y="-200" on="1"/>
        <pt x="67" y="453" on="1"/>
        <pt x="72" y="483" on="1"/>
      </contour>
    </TTGlyph>
    <TTGlyph name="f_f_i" xMin="18" yMin="-200" xMax="539" yMax="732">
      <contour>
        <pt x="18" y="483" on="1"/>
        <pt x="18" y="537" on="1"/>
        <pt x="72" y="537" on="1"/>
        <pt x="67" y="567" on="1"/>
        <pt x="67" y="578" on="1"/>
        <pt x="67" y="582" on="0"/>
        <pt x="67" y="625" on="0"/>
        <pt x="68" y="654" on="0"/>
        <pt x="77" y="695" on="0"/>
        <pt x="96" y="710" on="0"/>
        <pt x="114" y="718" on="1"/>
        <pt x="142" y="731" on="0"/>
        <pt x="227" y="731" on="1"/>
        <pt x="227" y="684" on="1"/>
        <pt x="157" y="684" on="0"/>
        <pt x="140" y="670" on="1"/>
        <pt x="135" y="667" on="0"/>
        <pt x="127" y="638" on="0"/>
        <pt x="127" y="628" on="1"/>
        <pt x="127" y="567" on="1"/>
        <pt x="122" y="537" on="1"/>
        <pt x="285" y="537" on="1"/>
        <pt x="281" y="562" on="1"/>
        <pt x="281" y="578" on="1"/>
        <pt x="281" y="622" on="0"/>
        <pt x="282" y="657" on="0"/>
        <pt x="293" y="703" on="0"/>
        <pt x="308" y="715" on="0"/>
        <pt x="348" y="731" on="0"/>
        <pt x="395" y="732" on="0"/>
        <pt x="438" y="732" on="1"/>
        <pt x="539" y="732" on="1"/>
        <pt x="539" y="682" on="1"/>
        <pt x="438" y="682" on="1"/>
        <pt x="365" y="682" on="0"/>
        <pt x="341" y="656" on="0"/>
        <pt x="341" y="578" on="1"/>
        <pt x="341" y="562" on="1"/>
        <pt x="337" y="537" on="1"/>
        <pt x="489" y="537" on="1"/>
        <pt x="525" y="537" on="0"/>
        <pt x="539" y="524" on="0"/>
        <pt x="539" y="491" on="1"/>
        <pt x="539" y="0" on="1"/>
        <pt x="495" y="0" on="0"/>
        <pt x="480" y="12" on="0"/>
        <pt x="480" y="46" on="1"/>
        <pt x="480" y="483" on="1"/>
        <pt x="336" y="483" on="1"/>
        <pt x="340" y="458" on="1"/>
        <pt x="340" y="-143" on="1"/>
        <pt x="339" y="-186" on="0"/>
        <pt x="324" y="-200" on="0"/>
        <pt x="280" y="-200" on="1"/>
        <pt x="281" y="458" on="1"/>
        <pt x="285" y="483" on="1"/>
        <pt x="121" y="483" on="1"/>
        <pt x="126" y="453" on="1"/>
        <pt x="126" y="-143" on="1"/>
        <pt x="125" y="-186" on="0"/>
        <pt x="110" y="-200" on="0"/>
        <pt x="66" y="-200" on="1"/>
        <pt x="67" y="453" on="1"/>
        <pt x="72" y="483" on="1"/>
      </contour>
    </TTGlyph>
    <TTGlyph name="f_f_l" xMin="18" yMin="-200" xMax="542" yMax="732">
      <contour>
        <pt x="18" y="483" on="1"/>
        <pt x="18" y="537" on="1"/>
        <pt x="72" y="537" on="1"/>
        <pt x="67" y="567" on="1"/>
        <pt x="67" y="578" on="1"/>
        <pt x="67" y="582" on="0"/>
        <pt x="67" y="625" on="0"/>
        <pt x="68" y="654" on="0"/>
        <pt x="77" y="695" on="0"/>
        <pt x="96" y="710" on="0"/>
        <pt x="114" y="718" on="1"/>
        <pt x="142" y="731" on="0"/>
        <pt x="227" y="731" on="1"/>
        <pt x="227" y="684" on="1"/>
        <pt x="157" y="684" on="0"/>
        <pt x="140" y="670" on="1"/>
        <pt x="135" y="667" on="0"/>
        <pt x="127" y="638" on="0"/>
        <pt x="127" y="628" on="1"/>
        <pt x="127" y="567" on="1"/>
        <pt x="122" y="537" on="1"/>
        <pt x="288" y="537" on="1"/>
        <pt x="284" y="562" on="1"/>
        <pt x="284" y="578" on="1"/>
        <pt x="284" y="622" on="0"/>
        <pt x="285" y="657" on="0"/>
        <pt x="296" y="703" on="0"/>
        <pt x="311" y="715" on="0"/>
        <pt x="351" y="731" on="0"/>
        <pt x="398" y="732" on="0"/>
        <pt x="441" y="732" on="1"/>
        <pt x="483" y="732" on="1"/>
        <pt x="527" y="732" on="0"/>
        <pt x="542" y="720" on="0"/>
        <pt x="542" y="686" on="1"/>
        <pt x="542" y="0" on="1"/>
        <pt x="498" y="0" on="0"/>
        <pt x="483" y="12" on="0"/>
        <pt x="483" y="46" on="1"/>
        <pt x="483" y="682" on="1"/>
        <pt x="441" y="682" on="1"/>
        <pt x="368" y="682" on="0"/>
        <pt x="344" y="656" on="0"/>
        <pt x="344" y="578" on="1"/>
        <pt x="344" y="562" on="1"/>
        <pt x="340" y="537" on="1"/>
        <pt x="409" y="537" on="1"/>
        <pt x="409" y="483" on="1"/>
        <pt x="339" y="483" on="1"/>
        <pt x="343" y="458" on="1"/>
        <pt x="343" y="-143" on="1"/>
        <pt x="342" y="-186" on="0"/>
        <pt x="327" y="-200" on="0"/>
        <pt x="283" y="-200" on="1"/>
        <pt x="284" y="458" on="1"/>
        <pt x="288" y="483" on="1"/>
        <pt x="121" y="483" on="1"/>
        <pt x="126" y="453" on="1"/>
        <pt x="126" y="-143" on="1"/>
        <pt x="125" y="-186" on="0"/>
        <pt x="110" y="-200" on="0"/>
        <pt x="66" y="-200" on="1"/>
        <pt x="67" y="453" on="1"/>
        <pt x="72" y="483" on="1"/>
      </contour>
    </TTGlyph>
    <TTGlyph name="f_t" xMin="3" yMin="-200" xMax="400" yMax="731">
      <contour>
        <pt x="233" y="228" on="1"/>
        <pt x="233" y="458" on="1"/>
        <pt x="237" y="483" on="1"/>
        <pt x="105" y="483" on="1"/>
        <pt x="110" y="453" on="1"/>
        <pt x="110" y="-143" on="1"/>
        <pt x="109" y="-186" on="0"/>
        <pt x="95" y="-200" on="0"/>
        <pt x="51" y="-200" on="1"/>
        <pt x="52" y="453" on="1"/>
        <pt x="57" y="483" on="1"/>
        <pt x="3" y="483" on="1"/>
        <pt x="3" y="537" on="1"/>
        <pt x="57" y="537" on="1"/>
        <pt x="52" y="567" on="1"/>
        <pt x="52" y="578" on="1"/>
        <pt x="52" y="662" on="0"/>
        <pt x="66" y="688" on="0"/>
        <pt x="82" y="710" on="0"/>
        <pt x="106" y="719" on="0"/>
        <pt x="124" y="724" on="1"/>
        <pt x="154" y="731" on="0"/>
        <pt x="220" y="731" on="1"/>
        <pt x="220" y="684" on="1"/>
        <pt x="142" y="684" on="0"/>
        <pt x="111" y="653" on="0"/>
        <pt x="111" y="578" on="1"/>
        <pt x="111" y="567" on="1"/>
        <pt x="106" y="537" on="1"/>
        <pt x="237" y="537" on="1"/>
        <pt x="233" y="572" on="1"/>
        <pt x="233" y="616" on="1"/>
        <pt x="277" y="616" on="0"/>
        <pt x="292" y="604" on="0"/>
        <pt x="292" y="570" on="1"/>
        <pt x="288" y="537" on="1"/>
        <pt x="380" y="537" on="1"/>
        <pt x="380" y="500" on="0"/>
        <pt x="367" y="483" on="0"/>
        <pt x="332" y="483" on="1"/>
        <pt x="288" y="483" on="1"/>
        <pt x="292" y="458" on="1"/>
        <pt x="292" y="228" on="1"/>
        <pt x="292" y="114" on="0"/>
        <pt x="304" y="46" on="0"/>
        <pt x="332" y="46" on="1"/>
        <pt x="400" y="46" on="1"/>
        <pt x="400" y="0" on="1"/>
        <pt x="331" y="-5" on="1"/>
        <pt x="262" y="-5" on="0"/>
        <pt x="233" y="80" on="0"/>
      </contour>
    </TTGlyph>
    <TTGlyph name="f_u" xMin="18" yMin="-200" xMax="534" yMax="731">
      <contour>
        <pt x="235" y="684" on="1"/>
        <pt x="157" y="684" on="0"/>
        <pt x="126" y="653" on="0"/>
        <pt x="126" y="578" on="1"/>
        <pt x="126" y="567" on="1"/>
        <pt x="121" y="537" on="1"/>
        <pt x="261" y="537" on="1"/>
        <pt x="303" y="537" on="0"/>
        <pt x="318" y="525" on="0"/>
        <pt x="318" y="491" on="1"/>
        <pt x="318" y="273" on="1"/>
        <pt x="318" y="157" on="0"/>
        <pt x="331" y="72" on="0"/>
        <pt x="358" y="46" on="0"/>
        <pt x="381" y="46" on="1"/>
        <pt x="480" y="92" on="1"/>
        <pt x="475" y="117" on="1"/>
        <pt x="475" y="537" on="1"/>
        <pt x="519" y="537" on="0"/>
        <pt x="534" y="526" on="0"/>
        <pt x="534" y="491" on="1"/>
        <pt x="534" y="0" on="1"/>
        <pt x="490" y="0" on="0"/>
        <pt x="475" y="10" on="0"/>
        <pt x="475" y="40" on="1"/>
        <pt x="385" y="-7" on="1"/>
        <pt x="322" y="-7" on="0"/>
        <pt x="286" y="32" on="1"/>
        <pt x="263" y="58" on="0"/>
        <pt x="260" y="164" on="1"/>
        <pt x="259" y="197" on="0"/>
        <pt x="259" y="271" on="1"/>
        <pt x="259" y="483" on="1"/>
        <pt x="120" y="483" on="1"/>
        <pt x="125" y="453" on="1"/>
        <pt x="125" y="-143" on="1"/>
        <pt x="124" y="-186" on="0"/>
        <pt x="110" y="-200" on="0"/>
        <pt x="66" y="-200" on="1"/>
        <pt x="67" y="453" on="1"/>
        <pt x="72" y="483" on="1"/>
        <pt x="18" y="483" on="1"/>
        <pt x="18" y="537" on="1"/>
        <pt x="72" y="537" on="1"/>
        <pt x="67" y="567" on="1"/>
        <pt x="67" y="578" on="1"/>
        <pt x="67" y="662" on="0"/>
        <pt x="81" y="688" on="0"/>
        <pt x="97" y="710" on="0"/>
        <pt x="121" y="719" on="0"/>
        <pt x="139" y="724" on="1"/>
        <pt x="169" y="731" on="0"/>
        <pt x="235" y="731" on="1"/>
        <pt x="280" y="731" on="1"/>
        <pt x="280" y="684" on="1"/>
      </contour>
    </TTGlyph>
    <TTGlyph name="fi" xMin="34" yMin="-200" xMax="341" yMax="732">
      <contour>
        <pt x="34" y="483" on="1"/>
        <pt x="34" y="537" on="1"/>
        <pt x="87" y="537" on="1"/>
        <pt x="83" y="562" on="1"/>
        <pt x="83" y="578" on="1"/>
        <pt x="83" y="622" on="0"/>
        <pt x="84" y="657" on="0"/>
        <pt x="95" y="703" on="0"/>
        <pt x="110" y="715" on="0"/>
        <pt x="150" y="731" on="0"/>
        <pt x="197" y="732" on="0"/>
        <pt x="240" y="732" on="1"/>
        <pt x="341" y="732" on="1"/>
        <pt x="341" y="682" on="1"/>
        <pt x="240" y="682" on="1"/>
        <pt x="167" y="682" on="0"/>
        <pt x="143" y="656" on="0"/>
        <pt x="143" y="578" on="1"/>
        <pt x="143" y="562" on="1"/>
        <pt x="139" y="537" on="1"/>
        <pt x="291" y="537" on="1"/>
        <pt x="327" y="537" on="0"/>
        <pt x="341" y="524" on="0"/>
        <pt x="341" y="491" on="1"/>
        <pt x="341" y="0" on="1"/>
        <pt x="297" y="0" on="0"/>
        <pt x="282" y="12" on="0"/>
        <pt x="282" y="46" on="1"/>
        <pt x="282" y="483" on="1"/>
        <pt x="138" y="483" on="1"/>
        <pt x="142" y="458" on="1"/>
        <pt x="142" y="-143" on="1"/>
        <pt x="141" y="-186" on="0"/>
        <pt x="126" y="-200" on="0"/>
        <pt x="82" y="-200" on="1"/>
        <pt x="83" y="458" on="1"/>
        <pt x="87" y="483" on="1"/>
      </contour>
    </TTGlyph>
    <TTGlyph name="five" xMin="60" yMin="-7" xMax="310" yMax="720">
      <contour>
        <pt x="60" y="46" on="1"/>
        <pt x="164" y="46" on="1"/>
        <pt x="223" y="46" on="0"/>
        <pt x="247" y="114" on="0"/>
        <pt x="247" y="368" on="0"/>
        <pt x="223" y="431" on="0"/>
        <pt x="164" y="431" on="1"/>
        <pt x="61" y="431" on="1"/>
        <pt x="61" y="720" on="1"/>
        <pt x="300" y="720" on="1"/>
        <pt x="300" y="667" on="1"/>
        <pt x="120" y="667" on="1"/>
        <pt x="124" y="642" on="1"/>
        <pt x="124" y="509" on="1"/>
        <pt x="120" y="484" on="1"/>
        <pt x="196" y="484" on="1"/>
        <pt x="257" y="484" on="0"/>
        <pt x="276" y="460" on="1"/>
        <pt x="285" y="450" on="0"/>
        <pt x="296" y="435" on="0"/>
        <pt x="304" y="397" on="0"/>
        <pt x="308" y="372" on="0"/>
        <pt x="310" y="315" on="0"/>
        <pt x="310" y="298" on="1"/>
        <pt x="310" y="186" on="1"/>
        <pt x="310" y="112" on="0"/>
        <pt x="297" y="49" on="0"/>
        <pt x="287" y="35" on="0"/>
        <pt x="272" y="12" on="0"/>
        <pt x="252" y="5" on="0"/>
        <pt x="238" y="0" on="1"/>
        <pt x="218" y="-7" on="0"/>
        <pt x="169" y="-7" on="1"/>
        <pt x="60" y="0" on="1"/>
      </contour>
    </TTGlyph>
    <TTGlyph name="fl" xMin="33" yMin="-200" xMax="340" yMax="732">
      <contour>
        <pt x="33" y="483" on="1"/>
        <pt x="33" y="537" on="1"/>
        <pt x="86" y="537" on="1"/>
        <pt x="82" y="562" on="1"/>
        <pt x="82" y="578" on="1"/>
        <pt x="82" y="622" on="0"/>
        <pt x="83" y="657" on="0"/>
        <pt x="94" y="703" on="0"/>
        <pt x="109" y="715" on="0"/>
        <pt x="149" y="731" on="0"/>
        <pt x="196" y="732" on="0"/>
        <pt x="239" y="732" on="1"/>
        <pt x="281" y="732" on="1"/>
        <pt x="325" y="732" on="0"/>
        <pt x="340" y="720" on="0"/>
        <pt x="340" y="686" on="1"/>
        <pt x="340" y="0" on="1"/>
        <pt x="296" y="0" on="0"/>
        <pt x="281" y="12" on="0"/>
        <pt x="281" y="46" on="1"/>
        <pt x="281" y="682" on="1"/>
        <pt x="239" y="682" on="1"/>
        <pt x="166" y="682" on="0"/>
        <pt x="142" y="656" on="0"/>
        <pt x="142" y="578" on="1"/>
        <pt x="142" y="562" on="1"/>
        <pt x="138" y="537" on="1"/>
        <pt x="207" y="537" on="1"/>
        <pt x="207" y="483" on="1"/>
        <pt x="137" y="483" on="1"/>
        <pt x="141" y="458" on="1"/>
        <pt x="141" y="-143" on="1"/>
        <pt x="140" y="-186" on="0"/>
        <pt x="125" y="-200" on="0"/>
        <pt x="81" y="-200" on="1"/>
        <pt x="82" y="458" on="1"/>
        <pt x="86" y="483" on="1"/>
      </contour>
    </TTGlyph>
    <TTGlyph name="florin" xMin="62" yMin="-110" xMax="271" yMax="540">
      <contour>
        <pt x="62" y="287" on="1"/>
        <pt x="62" y="341" on="1"/>
        <pt x="115" y="341" on="1"/>
        <pt x="111" y="366" on="1"/>
        <pt x="111" y="382" on="1"/>
        <pt x="111" y="488" on="0"/>
        <pt x="128" y="512" on="1"/>
        <pt x="147" y="540" on="0"/>
        <pt x="186" y="540" on="1"/>
        <pt x="271" y="537" on="1"/>
        <pt x="271" y="506" on="0"/>
        <pt x="259" y="496" on="0"/>
        <pt x="221" y="494" on="1"/>
        <pt x="193" y="493" on="1"/>
        <pt x="171" y="492" on="0"/>
        <pt x="171" y="382" on="1"/>
        <pt x="171" y="366" on="1"/>
        <pt x="167" y="341" on="1"/>
        <pt x="266" y="341" on="1"/>
        <pt x="266" y="287" on="1"/>
        <pt x="166" y="287" on="1"/>
        <pt x="170" y="262" on="1"/>
        <pt x="170" y="-110" on="1"/>
        <pt x="137" y="-110" on="0"/>
        <pt x="115" y="-99" on="0"/>
        <pt x="110" y="-77" on="0"/>
        <pt x="110" y="-58" on="1"/>
        <pt x="111" y="262" on="1"/>
        <pt x="115" y="287" on="1"/>
      </contour>
    </TTGlyph>
    <TTGlyph name="four" xMin="20" yMin="0" xMax="334" yMax="720">
      <contour>
        <pt x="294" y="0" on="1"/>
        <pt x="292" y="0" on="1"/>
        <pt x="249" y="0" on="0"/>
        <pt x="234" y="12" on="0"/>
        <pt x="234" y="46" on="1"/>
        <pt x="234" y="223" on="1"/>
        <pt x="238" y="248" on="1"/>
        <pt x="20" y="248" on="1"/>
        <pt x="220" y="720" on="1"/>
        <pt x="294" y="720" on="1"/>
        <pt x="294" y="325" on="1"/>
        <pt x="290" y="300" on="1"/>
        <pt x="334" y="300" on="1"/>
        <pt x="334" y="248" on="1"/>
        <pt x="290" y="248" on="1"/>
        <pt x="294" y="223" on="1"/>
      </contour>
      <contour>
        <pt x="234" y="620" on="1"/>
        <pt x="226" y="620" on="1"/>
        <pt x="112" y="300" on="1"/>
        <pt x="238" y="300" on="1"/>
        <pt x="234" y="325" on="1"/>
      </contour>
    </TTGlyph>
    <TTGlyph name="fraction" xMin="5" yMin="0" xMax="367" yMax="732">
      <contour>
        <pt x="73" y="0" on="1"/>
        <pt x="5" y="0" on="1"/>
        <pt x="299" y="732" on="1"/>
        <pt x="367" y="732" on="1"/>
      </contour>
    </TTGlyph>
    <TTGlyph name="g" xMin="51" yMin="-200" xMax="353" yMax="544">
      <contour>
        <pt x="207" y="-200" on="1"/>
        <pt x="162" y="-200" on="1"/>
        <pt x="125" y="-200" on="0"/>
        <pt x="112" y="-188" on="0"/>
        <pt x="112" y="-153" on="1"/>
        <pt x="207" y="-146" on="1"/>
        <pt x="262" y="-146" on="0"/>
        <pt x="276" y="-126" on="1"/>
        <pt x="283" y="-114" on="0"/>
        <pt x="286" y="-91" on="0"/>
        <pt x="286" y="-51" on="0"/>
        <pt x="283" y="-33" on="0"/>
        <pt x="276" y="-24" on="1"/>
        <pt x="264" y="-7" on="0"/>
        <pt x="210" y="-7" on="1"/>
        <pt x="92" y="-7" on="0"/>
        <pt x="51" y="15" on="0"/>
        <pt x="51" y="127" on="0"/>
        <pt x="76" y="172" on="0"/>
        <pt x="102" y="184" on="1"/>
        <pt x="73" y="205" on="0"/>
        <pt x="51" y="264" on="0"/>
        <pt x="51" y="388" on="0"/>
        <pt x="54" y="436" on="0"/>
        <pt x="64" y="486" on="0"/>
        <pt x="83" y="512" on="0"/>
        <pt x="99" y="524" on="1"/>
        <pt x="128" y="544" on="0"/>
        <pt x="198" y="544" on="1"/>
        <pt x="353" y="544" on="1"/>
        <pt x="353" y="507" on="0"/>
        <pt x="340" y="494" on="0"/>
        <pt x="302" y="494" on="1"/>
        <pt x="318" y="464" on="0"/>
        <pt x="324" y="412" on="0"/>
        <pt x="324" y="254" on="0"/>
        <pt x="318" y="205" on="0"/>
        <pt x="293" y="161" on="0"/>
        <pt x="242" y="144" on="0"/>
        <pt x="174" y="144" on="0"/>
        <pt x="146" y="143" on="0"/>
        <pt x="124" y="137" on="0"/>
        <pt x="114" y="132" on="0"/>
        <pt x="108" y="114" on="0"/>
        <pt x="108" y="108" on="1"/>
        <pt x="108" y="77" on="1"/>
        <pt x="108" y="57" on="0"/>
        <pt x="138" y="49" on="0"/>
        <pt x="294" y="49" on="0"/>
        <pt x="343" y="9" on="0"/>
        <pt x="343" y="-144" on="0"/>
        <pt x="293" y="-200" on="0"/>
      </contour>
      <contour>
        <pt x="110" y="265" on="0"/>
        <pt x="143" y="197" on="0"/>
        <pt x="247" y="197" on="0"/>
        <pt x="269" y="247" on="0"/>
        <pt x="269" y="431" on="0"/>
        <pt x="261" y="454" on="1"/>
        <pt x="248" y="491" on="0"/>
        <pt x="140" y="491" on="0"/>
        <pt x="110" y="441" on="0"/>
      </contour>
    </TTGlyph>
    <TTGlyph name="germandbls" xMin="59" yMin="-7" xMax="482" yMax="731">
      <contour>
        <pt x="223" y="53" on="1"/>
        <pt x="348" y="53" on="1"/>
        <pt x="383" y="53" on="0"/>
        <pt x="400" y="70" on="1"/>
        <pt x="412" y="82" on="0"/>
        <pt x="414" y="127" on="0"/>
        <pt x="414" y="149" on="1"/>
        <pt x="414" y="160" on="1"/>
        <pt x="414" y="195" on="0"/>
        <pt x="346" y="246" on="1"/>
        <pt x="318" y="267" on="0"/>
        <pt x="290" y="290" on="1"/>
        <pt x="222" y="348" on="0"/>
        <pt x="222" y="403" on="1"/>
        <pt x="222" y="486" on="0"/>
        <pt x="242" y="510" on="1"/>
        <pt x="267" y="540" on="0"/>
        <pt x="313" y="540" on="1"/>
        <pt x="323" y="540" on="0"/>
        <pt x="328" y="544" on="1"/>
        <pt x="339" y="552" on="0"/>
        <pt x="339" y="641" on="1"/>
        <pt x="339" y="679" on="0"/>
        <pt x="265" y="679" on="1"/>
        <pt x="218" y="679" on="1"/>
        <pt x="146" y="679" on="0"/>
        <pt x="122" y="654" on="0"/>
        <pt x="122" y="577" on="1"/>
        <pt x="121" y="58" on="1"/>
        <pt x="120" y="14" on="0"/>
        <pt x="105" y="0" on="0"/>
        <pt x="59" y="0" on="1"/>
        <pt x="60" y="577" on="1"/>
        <pt x="60" y="621" on="0"/>
        <pt x="61" y="656" on="0"/>
        <pt x="72" y="702" on="0"/>
        <pt x="87" y="714" on="0"/>
        <pt x="127" y="730" on="0"/>
        <pt x="175" y="731" on="0"/>
        <pt x="218" y="731" on="1"/>
        <pt x="271" y="731" on="1"/>
        <pt x="347" y="731" on="0"/>
        <pt x="382" y="692" on="1"/>
        <pt x="395" y="676" on="0"/>
        <pt x="395" y="654" on="1"/>
        <pt x="395" y="509" on="0"/>
        <pt x="368" y="493" on="1"/>
        <pt x="356" y="486" on="0"/>
        <pt x="298" y="486" on="0"/>
        <pt x="282" y="455" on="0"/>
        <pt x="282" y="424" on="1"/>
        <pt x="282" y="407" on="1"/>
        <pt x="282" y="372" on="0"/>
        <pt x="352" y="319" on="1"/>
        <pt x="382" y="297" on="0"/>
        <pt x="441" y="249" on="0"/>
        <pt x="482" y="186" on="0"/>
        <pt x="482" y="120" on="0"/>
        <pt x="480" y="87" on="0"/>
        <pt x="466" y="37" on="0"/>
        <pt x="452" y="24" on="1"/>
        <pt x="418" y="-7" on="0"/>
        <pt x="347" y="-7" on="1"/>
        <pt x="223" y="0" on="1"/>
      </contour>
    </TTGlyph>
    <TTGlyph name="grave" xMin="9" yMin="587" xMax="159" yMax="732">
      <contour>
        <pt x="9" y="701" on="1"/>
        <pt x="40" y="732" on="0"/>
        <pt x="58" y="732" on="0"/>
        <pt x="91" y="699" on="1"/>
        <pt x="159" y="623" on="1"/>
        <pt x="124" y="587" on="1"/>
      </contour>
    </TTGlyph>
    <TTGlyph name="greater" xMin="38" yMin="57" xMax="226" yMax="537">
      <contour>
        <pt x="93" y="57" on="1"/>
        <pt x="38" y="57" on="1"/>
        <pt x="177" y="301" on="1"/>
        <pt x="39" y="537" on="1"/>
        <pt x="93" y="537" on="1"/>
        <pt x="226" y="314" on="1"/>
        <pt x="226" y="288" on="1"/>
      </contour>
    </TTGlyph>
    <TTGlyph name="guillemotleft" xMin="35" yMin="135" xMax="273" yMax="470">
      <contour>
        <pt x="160" y="135" on="1"/>
        <pt x="105" y="135" on="1"/>
        <pt x="35" y="289" on="1"/>
        <pt x="35" y="315" on="1"/>
        <pt x="106" y="470" on="1"/>
        <pt x="160" y="470" on="1"/>
        <pt x="84" y="302" on="1"/>
      </contour>
      <contour>
        <pt x="273" y="135" on="1"/>
        <pt x="218" y="135" on="1"/>
        <pt x="148" y="289" on="1"/>
        <pt x="148" y="315" on="1"/>
        <pt x="219" y="470" on="1"/>
        <pt x="273" y="470" on="1"/>
        <pt x="197" y="302" on="1"/>
      </contour>
    </TTGlyph>
    <TTGlyph name="guillemotright" xMin="50" yMin="135" xMax="288" yMax="470">
      <contour>
        <pt x="218" y="135" on="1"/>
        <pt x="163" y="135" on="1"/>
        <pt x="239" y="302" on="1"/>
        <pt x="163" y="470" on="1"/>
        <pt x="217" y="470" on="1"/>
        <pt x="288" y="315" on="1"/>
        <pt x="288" y="289" on="1"/>
      </contour>
      <contour>
        <pt x="105" y="135" on="1"/>
        <pt x="50" y="135" on="1"/>
        <pt x="126" y="302" on="1"/>
        <pt x="50" y="470" on="1"/>
        <pt x="104" y="470" on="1"/>
        <pt x="175" y="315" on="1"/>
        <pt x="175" y="289" on="1"/>
      </contour>
    </TTGlyph>
    <TTGlyph name="guilsinglleft" xMin="18" yMin="135" xMax="143" yMax="470">
      <contour>
        <pt x="143" y="135" on="1"/>
        <pt x="88" y="135" on="1"/>
        <pt x="18" y="289" on="1"/>
        <pt x="18" y="315" on="1"/>
        <pt x="89" y="470" on="1"/>
        <pt x="143" y="470" on="1"/>
        <pt x="67" y="302" on="1"/>
      </contour>
    </TTGlyph>
    <TTGlyph name="guilsinglright" xMin="42" yMin="135" xMax="167" yMax="470">
      <contour>
        <pt x="97" y="135" on="1"/>
        <pt x="42" y="135" on="1"/>
        <pt x="118" y="302" on="1"/>
        <pt x="42" y="470" on="1"/>
        <pt x="96" y="470" on="1"/>
        <pt x="167" y="315" on="1"/>
        <pt x="167" y="289" on="1"/>
      </contour>
    </TTGlyph>
    <TTGlyph name="h" xMin="65" yMin="0" xMax="340" yMax="732">
      <contour>
        <pt x="281" y="46" on="1"/>
        <pt x="281" y="267" on="1"/>
        <pt x="281" y="395" on="0"/>
        <pt x="261" y="491" on="0"/>
        <pt x="218" y="491" on="1"/>
        <pt x="120" y="456" on="1"/>
        <pt x="124" y="431" on="1"/>
        <pt x="124" y="46" on="1"/>
        <pt x="124" y="12" on="0"/>
        <pt x="109" y="0" on="0"/>
        <pt x="65" y="0" on="1"/>
        <pt x="65" y="732" on="1"/>
        <pt x="108" y="732" on="0"/>
        <pt x="123" y="720" on="0"/>
        <pt x="123" y="686" on="1"/>
        <pt x="123" y="507" on="1"/>
        <pt x="218" y="544" on="1"/>
        <pt x="303" y="544" on="0"/>
        <pt x="340" y="434" on="0"/>
        <pt x="340" y="266" on="1"/>
        <pt x="340" y="0" on="1"/>
        <pt x="296" y="0" on="0"/>
        <pt x="281" y="12" on="0"/>
      </contour>
    </TTGlyph>
    <TTGlyph name="hungarumlaut" xMin="32" yMin="587" xMax="353" yMax="732">
      <contour>
        <pt x="100" y="699" on="1"/>
        <pt x="133" y="732" on="0"/>
        <pt x="141" y="732" on="1"/>
        <pt x="151" y="732" on="0"/>
        <pt x="182" y="701" on="1"/>
        <pt x="67" y="587" on="1"/>
        <pt x="32" y="623" on="1"/>
      </contour>
      <contour>
        <pt x="271" y="699" on="1"/>
        <pt x="304" y="732" on="0"/>
        <pt x="312" y="732" on="1"/>
        <pt x="322" y="732" on="0"/>
        <pt x="353" y="701" on="1"/>
        <pt x="238" y="587" on="1"/>
        <pt x="203" y="623" on="1"/>
      </contour>
    </TTGlyph>
    <TTGlyph name="hyphen" xMin="60" yMin="300" xMax="274" yMax="351">
      <contour>
        <pt x="274" y="300" on="1"/>
        <pt x="60" y="300" on="1"/>
        <pt x="60" y="351" on="1"/>
        <pt x="274" y="351" on="1"/>
      </contour>
    </TTGlyph>
    <TTGlyph name="i" xMin="55" yMin="-4" xMax="148" yMax="720">
      <contour>
        <pt x="121" y="629" on="0"/>
        <pt x="83" y="629" on="0"/>
        <pt x="56" y="656" on="0"/>
        <pt x="56" y="695" on="0"/>
        <pt x="83" y="720" on="0"/>
        <pt x="121" y="720" on="0"/>
        <pt x="148" y="694" on="0"/>
        <pt x="148" y="656" on="0"/>
      </contour>
      <contour>
        <pt x="73" y="42" on="1"/>
        <pt x="73" y="537" on="1"/>
        <pt x="117" y="537" on="0"/>
        <pt x="132" y="526" on="0"/>
        <pt x="132" y="491" on="1"/>
        <pt x="132" y="-4" on="1"/>
        <pt x="88" y="-4" on="0"/>
        <pt x="73" y="8" on="0"/>
      </contour>
    </TTGlyph>
    <TTGlyph name="iacute" xMin="60" yMin="-4" xMax="210" yMax="740">
      <contour>
        <pt x="75" y="42" on="1"/>
        <pt x="75" y="537" on="1"/>
        <pt x="119" y="537" on="0"/>
        <pt x="134" y="526" on="0"/>
        <pt x="134" y="491" on="1"/>
        <pt x="134" y="-4" on="1"/>
        <pt x="90" y="-4" on="0"/>
        <pt x="75" y="8" on="0"/>
      </contour>
      <contour>
        <pt x="128" y="707" on="1"/>
        <pt x="161" y="740" on="0"/>
        <pt x="169" y="740" on="1"/>
        <pt x="179" y="740" on="0"/>
        <pt x="210" y="709" on="1"/>
        <pt x="95" y="595" on="1"/>
        <pt x="60" y="631" on="1"/>
      </contour>
    </TTGlyph>
    <TTGlyph name="icircumflex" xMin="5" yMin="-4" xMax="240" yMax="740">
      <contour>
        <pt x="90" y="42" on="1"/>
        <pt x="90" y="537" on="1"/>
        <pt x="134" y="537" on="0"/>
        <pt x="149" y="526" on="0"/>
        <pt x="149" y="491" on="1"/>
        <pt x="149" y="-4" on="1"/>
        <pt x="105" y="-4" on="0"/>
        <pt x="90" y="8" on="0"/>
      </contour>
      <contour>
        <pt x="240" y="625" on="1"/>
        <pt x="122" y="691" on="1"/>
        <pt x="5" y="625" on="1"/>
        <pt x="5" y="680" on="1"/>
        <pt x="109" y="740" on="1"/>
        <pt x="135" y="740" on="1"/>
        <pt x="240" y="679" on="1"/>
      </contour>
    </TTGlyph>
    <TTGlyph name="idieresis" xMin="20" yMin="-4" xMax="255" yMax="713">
      <contour>
        <pt x="108" y="42" on="1"/>
        <pt x="108" y="537" on="1"/>
        <pt x="152" y="537" on="0"/>
        <pt x="167" y="526" on="0"/>
        <pt x="167" y="491" on="1"/>
        <pt x="167" y="-4" on="1"/>
        <pt x="123" y="-4" on="0"/>
        <pt x="108" y="8" on="0"/>
      </contour>
      <contour>
        <pt x="85" y="622" on="0"/>
        <pt x="47" y="622" on="0"/>
        <pt x="20" y="649" on="0"/>
        <pt x="20" y="687" on="0"/>
        <pt x="47" y="713" on="0"/>
        <pt x="85" y="713" on="0"/>
        <pt x="112" y="687" on="0"/>
        <pt x="112" y="649" on="0"/>
      </contour>
      <contour>
        <pt x="228" y="622" on="0"/>
        <pt x="190" y="622" on="0"/>
        <pt x="163" y="649" on="0"/>
        <pt x="163" y="687" on="0"/>
        <pt x="190" y="713" on="0"/>
        <pt x="228" y="713" on="0"/>
        <pt x="255" y="687" on="0"/>
        <pt x="255" y="649" on="0"/>
      </contour>
    </TTGlyph>
    <TTGlyph name="igrave" xMin="6" yMin="-4" xMax="156" yMax="742">
      <contour>
        <pt x="72" y="42" on="1"/>
        <pt x="72" y="537" on="1"/>
        <pt x="116" y="537" on="0"/>
        <pt x="131" y="526" on="0"/>
        <pt x="131" y="491" on="1"/>
        <pt x="131" y="-4" on="1"/>
        <pt x="87" y="-4" on="0"/>
        <pt x="72" y="8" on="0"/>
      </contour>
      <contour>
        <pt x="6" y="711" on="1"/>
        <pt x="37" y="742" on="0"/>
        <pt x="55" y="742" on="0"/>
        <pt x="88" y="709" on="1"/>
        <pt x="156" y="633" on="1"/>
        <pt x="121" y="597" on="1"/>
      </contour>
    </TTGlyph>
    <TTGlyph name="j" xMin="-49" yMin="-200" xMax="133" yMax="720">
      <contour>
        <pt x="106" y="629" on="0"/>
        <pt x="68" y="629" on="0"/>
        <pt x="41" y="656" on="0"/>
        <pt x="41" y="694" on="0"/>
        <pt x="68" y="720" on="0"/>
        <pt x="106" y="720" on="0"/>
        <pt x="133" y="694" on="0"/>
        <pt x="133" y="656" on="0"/>
      </contour>
      <contour>
        <pt x="-49" y="-200" on="1"/>
        <pt x="-49" y="-156" on="1"/>
        <pt x="8" y="-156" on="0"/>
        <pt x="36" y="-132" on="1"/>
        <pt x="56" y="-114" on="0"/>
        <pt x="59" y="-57" on="1"/>
        <pt x="60" y="-38" on="0"/>
        <pt x="60" y="0" on="1"/>
        <pt x="60" y="537" on="1"/>
        <pt x="104" y="537" on="0"/>
        <pt x="117" y="526" on="0"/>
        <pt x="117" y="491" on="1"/>
        <pt x="117" y="0" on="1"/>
        <pt x="117" y="-95" on="0"/>
        <pt x="104" y="-123" on="1"/>
        <pt x="84" y="-166" on="0"/>
        <pt x="56" y="-180" on="1"/>
        <pt x="14" y="-200" on="0"/>
      </contour>
    </TTGlyph>
    <TTGlyph name="k" xMin="65" yMin="0" xMax="335" yMax="732">
      <contour>
        <pt x="65" y="46" on="1"/>
        <pt x="65" y="732" on="1"/>
        <pt x="109" y="732" on="0"/>
        <pt x="124" y="720" on="0"/>
        <pt x="124" y="686" on="1"/>
        <pt x="124" y="0" on="1"/>
        <pt x="80" y="0" on="0"/>
        <pt x="65" y="12" on="0"/>
      </contour>
      <contour>
        <pt x="335" y="0" on="1"/>
        <pt x="270" y="0" on="1"/>
        <pt x="136" y="293" on="1"/>
        <pt x="256" y="537" on="1"/>
        <pt x="317" y="537" on="1"/>
        <pt x="196" y="293" on="1"/>
      </contour>
    </TTGlyph>
    <TTGlyph name="l" xMin="65" yMin="-4" xMax="124" yMax="732">
      <contour>
        <pt x="65" y="42" on="1"/>
        <pt x="65" y="732" on="1"/>
        <pt x="109" y="732" on="0"/>
        <pt x="124" y="720" on="0"/>
        <pt x="124" y="686" on="1"/>
        <pt x="124" y="-4" on="1"/>
        <pt x="80" y="-4" on="0"/>
        <pt x="65" y="8" on="0"/>
      </contour>
    </TTGlyph>
    <TTGlyph name="less" xMin="10" yMin="57" xMax="198" yMax="537">
      <contour>
        <pt x="198" y="57" on="1"/>
        <pt x="143" y="57" on="1"/>
        <pt x="10" y="288" on="1"/>
        <pt x="10" y="314" on="1"/>
        <pt x="143" y="537" on="1"/>
        <pt x="197" y="537" on="1"/>
        <pt x="59" y="301" on="1"/>
      </contour>
    </TTGlyph>
    <TTGlyph name="logicalnot" xMin="29" yMin="222" xMax="295" yMax="355">
      <contour>
        <pt x="249" y="222" on="1"/>
        <pt x="249" y="302" on="1"/>
        <pt x="29" y="302" on="1"/>
        <pt x="29" y="355" on="1"/>
        <pt x="295" y="355" on="1"/>
        <pt x="295" y="275" on="1"/>
        <pt x="295" y="235" on="0"/>
        <pt x="284" y="222" on="0"/>
      </contour>
    </TTGlyph>
    <TTGlyph name="lslash" xMin="6" yMin="-4" xMax="279" yMax="732">
      <contour>
        <pt x="113" y="42" on="1"/>
        <pt x="113" y="732" on="1"/>
        <pt x="157" y="732" on="0"/>
        <pt x="172" y="720" on="0"/>
        <pt x="172" y="686" on="1"/>
        <pt x="172" y="-4" on="1"/>
        <pt x="128" y="-4" on="0"/>
        <pt x="113" y="8" on="0"/>
      </contour>
      <contour>
        <pt x="279" y="300" on="1"/>
        <pt x="6" y="300" on="1"/>
        <pt x="6" y="351" on="1"/>
        <pt x="279" y="351" on="1"/>
      </contour>
    </TTGlyph>
    <TTGlyph name="m" xMin="60" yMin="0" xMax="548" yMax="544">
      <contour>
        <pt x="488" y="46" on="1"/>
        <pt x="488" y="267" on="1"/>
        <pt x="488" y="267" on="0"/>
        <pt x="488" y="275" on="1"/>
        <pt x="488" y="423" on="0"/>
        <pt x="470" y="491" on="0"/>
        <pt x="422" y="491" on="1"/>
        <pt x="329" y="460" on="1"/>
        <pt x="333" y="435" on="1"/>
        <pt x="333" y="0" on="1"/>
        <pt x="290" y="0" on="0"/>
        <pt x="275" y="12" on="0"/>
        <pt x="275" y="46" on="1"/>
        <pt x="274" y="267" on="1"/>
        <pt x="274" y="271" on="0"/>
        <pt x="274" y="318" on="0"/>
        <pt x="274" y="352" on="0"/>
        <pt x="273" y="383" on="0"/>
        <pt x="270" y="435" on="0"/>
        <pt x="262" y="457" on="0"/>
        <pt x="255" y="470" on="1"/>
        <pt x="243" y="491" on="0"/>
        <pt x="209" y="491" on="1"/>
        <pt x="115" y="456" on="1"/>
        <pt x="119" y="431" on="1"/>
        <pt x="119" y="0" on="1"/>
        <pt x="75" y="0" on="0"/>
        <pt x="60" y="12" on="0"/>
        <pt x="60" y="46" on="1"/>
        <pt x="60" y="537" on="1"/>
        <pt x="104" y="537" on="0"/>
        <pt x="119" y="530" on="0"/>
        <pt x="119" y="507" on="1"/>
        <pt x="209" y="544" on="1"/>
        <pt x="281" y="544" on="0"/>
        <pt x="315" y="502" on="1"/>
        <pt x="422" y="544" on="1"/>
        <pt x="513" y="544" on="0"/>
        <pt x="548" y="459" on="0"/>
        <pt x="548" y="266" on="1"/>
        <pt x="548" y="0" on="1"/>
        <pt x="503" y="0" on="0"/>
        <pt x="488" y="12" on="0"/>
      </contour>
    </TTGlyph>
    <TTGlyph name="macron" xMin="60" yMin="669" xMax="274" yMax="720">
      <contour>
        <pt x="274" y="669" on="1"/>
        <pt x="60" y="669" on="1"/>
        <pt x="60" y="720" on="1"/>
        <pt x="274" y="720" on="1"/>
      </contour>
    </TTGlyph>
    <TTGlyph name="minus" xMin="60" yMin="300" xMax="274" yMax="351">
      <contour>
        <pt x="274" y="300" on="1"/>
        <pt x="60" y="300" on="1"/>
        <pt x="60" y="351" on="1"/>
        <pt x="274" y="351" on="1"/>
      </contour>
    </TTGlyph>
    <TTGlyph name="mu" xMin="60" yMin="-193" xMax="355" yMax="539">
      <contour>
        <pt x="60" y="-193" on="1"/>
        <pt x="60" y="539" on="1"/>
        <pt x="104" y="539" on="0"/>
        <pt x="119" y="528" on="0"/>
        <pt x="119" y="493" on="1"/>
        <pt x="119" y="107" on="1"/>
        <pt x="113" y="85" on="1"/>
        <pt x="213" y="48" on="1"/>
        <pt x="246" y="48" on="0"/>
        <pt x="270" y="72" on="0"/>
        <pt x="282" y="88" on="0"/>
        <pt x="289" y="125" on="0"/>
        <pt x="294" y="150" on="0"/>
        <pt x="296" y="204" on="0"/>
        <pt x="296" y="220" on="1"/>
        <pt x="296" y="220" on="0"/>
        <pt x="296" y="493" on="1"/>
        <pt x="296" y="528" on="0"/>
        <pt x="311" y="539" on="0"/>
        <pt x="355" y="539" on="1"/>
        <pt x="355" y="273" on="1"/>
        <pt x="355" y="199" on="0"/>
        <pt x="353" y="134" on="0"/>
        <pt x="339" y="49" on="0"/>
        <pt x="324" y="34" on="1"/>
        <pt x="285" y="-5" on="0"/>
        <pt x="213" y="-5" on="1"/>
        <pt x="112" y="34" on="1"/>
        <pt x="118" y="4" on="1"/>
        <pt x="118" y="-147" on="1"/>
        <pt x="118" y="-182" on="0"/>
        <pt x="104" y="-193" on="0"/>
      </contour>
    </TTGlyph>
    <TTGlyph name="multiply" xMin="21" yMin="224" xMax="222" yMax="426">
      <contour>
        <pt x="186" y="224" on="1"/>
        <pt x="139" y="271" on="1"/>
        <pt x="124" y="292" on="1"/>
        <pt x="57" y="225" on="1"/>
        <pt x="21" y="261" on="1"/>
        <pt x="88" y="328" on="1"/>
        <pt x="68" y="343" on="1"/>
        <pt x="21" y="389" on="1"/>
        <pt x="57" y="425" on="1"/>
        <pt x="104" y="379" on="1"/>
        <pt x="118" y="358" on="1"/>
        <pt x="186" y="426" on="1"/>
        <pt x="222" y="390" on="1"/>
        <pt x="155" y="322" on="1"/>
        <pt x="175" y="307" on="1"/>
        <pt x="222" y="260" on="1"/>
      </contour>
    </TTGlyph>
    <TTGlyph name="n" xMin="60" yMin="0" xMax="335" yMax="544">
      <contour>
        <pt x="276" y="46" on="1"/>
        <pt x="276" y="267" on="1"/>
        <pt x="276" y="420" on="0"/>
        <pt x="258" y="491" on="0"/>
        <pt x="213" y="491" on="1"/>
        <pt x="115" y="456" on="1"/>
        <pt x="119" y="431" on="1"/>
        <pt x="119" y="0" on="1"/>
        <pt x="75" y="0" on="0"/>
        <pt x="60" y="12" on="0"/>
        <pt x="60" y="46" on="1"/>
        <pt x="60" y="537" on="1"/>
        <pt x="104" y="537" on="0"/>
        <pt x="119" y="530" on="0"/>
        <pt x="119" y="507" on="1"/>
        <pt x="209" y="544" on="1"/>
        <pt x="299" y="544" on="0"/>
        <pt x="335" y="452" on="0"/>
        <pt x="335" y="266" on="1"/>
        <pt x="335" y="0" on="1"/>
        <pt x="291" y="0" on="0"/>
        <pt x="276" y="12" on="0"/>
      </contour>
    </TTGlyph>
    <TTGlyph name="nine" xMin="60" yMin="0" xMax="335" yMax="732">
      <contour>
        <pt x="270" y="326" on="1"/>
        <pt x="272" y="364" on="0"/>
        <pt x="272" y="441" on="0"/>
        <pt x="272" y="452" on="1"/>
        <pt x="272" y="605" on="0"/>
        <pt x="253" y="679" on="0"/>
        <pt x="147" y="679" on="0"/>
        <pt x="123" y="613" on="0"/>
        <pt x="123" y="357" on="0"/>
        <pt x="147" y="294" on="0"/>
        <pt x="206" y="294" on="1"/>
      </contour>
      <contour>
        <pt x="64" y="57" on="1"/>
        <pt x="184" y="57" on="1"/>
        <pt x="218" y="57" on="0"/>
        <pt x="256" y="160" on="0"/>
        <pt x="266" y="275" on="1"/>
        <pt x="206" y="241" on="1"/>
        <pt x="155" y="241" on="0"/>
        <pt x="120" y="252" on="0"/>
        <pt x="100" y="259" on="0"/>
        <pt x="83" y="281" on="0"/>
        <pt x="73" y="294" on="0"/>
        <pt x="66" y="332" on="0"/>
        <pt x="62" y="355" on="0"/>
        <pt x="60" y="411" on="0"/>
        <pt x="60" y="428" on="1"/>
        <pt x="60" y="484" on="1"/>
        <pt x="60" y="644" on="0"/>
        <pt x="103" y="732" on="0"/>
        <pt x="206" y="732" on="1"/>
        <pt x="276" y="732" on="0"/>
        <pt x="296" y="709" on="1"/>
        <pt x="305" y="698" on="0"/>
        <pt x="319" y="681" on="0"/>
        <pt x="327" y="638" on="0"/>
        <pt x="332" y="605" on="0"/>
        <pt x="333" y="571" on="1"/>
        <pt x="335" y="503" on="0"/>
        <pt x="335" y="446" on="1"/>
        <pt x="335" y="363" on="1"/>
        <pt x="335" y="276" on="0"/>
        <pt x="328" y="210" on="0"/>
        <pt x="321" y="145" on="0"/>
        <pt x="310" y="107" on="0"/>
        <pt x="294" y="60" on="0"/>
        <pt x="271" y="35" on="0"/>
        <pt x="257" y="22" on="1"/>
        <pt x="232" y="0" on="0"/>
        <pt x="184" y="0" on="1"/>
        <pt x="64" y="10" on="1"/>
      </contour>
    </TTGlyph>
    <TTGlyph name="ntilde" xMin="60" yMin="0" xMax="335" yMax="692">
      <component glyphName="n" x="0" y="0" flags="0x1004"/>
      <component glyphName="tilde" x="17" y="-28" flags="0x1004"/>
    </TTGlyph>
    <TTGlyph name="numbersign" xMin="22" yMin="0" xMax="634" yMax="732">
      <contour>
        <pt x="591" y="239" on="1"/>
        <pt x="417" y="239" on="1"/>
        <pt x="321" y="0" on="1"/>
        <pt x="253" y="0" on="1"/>
        <pt x="349" y="239" on="1"/>
        <pt x="204" y="239" on="1"/>
        <pt x="108" y="0" on="1"/>
        <pt x="40" y="0" on="1"/>
        <pt x="136" y="239" on="1"/>
        <pt x="22" y="239" on="1"/>
        <pt x="22" y="302" on="1"/>
        <pt x="161" y="302" on="1"/>
        <pt x="218" y="444" on="1"/>
        <pt x="65" y="444" on="1"/>
        <pt x="65" y="507" on="1"/>
        <pt x="244" y="507" on="1"/>
        <pt x="334" y="732" on="1"/>
        <pt x="402" y="732" on="1"/>
        <pt x="312" y="507" on="1"/>
        <pt x="457" y="507" on="1"/>
        <pt x="547" y="732" on="1"/>
        <pt x="615" y="732" on="1"/>
        <pt x="525" y="507" on="1"/>
        <pt x="634" y="507" on="1"/>
        <pt x="634" y="444" on="1"/>
        <pt x="499" y="444" on="1"/>
        <pt x="442" y="302" on="1"/>
        <pt x="591" y="302" on="1"/>
      </contour>
      <contour>
        <pt x="374" y="302" on="1"/>
        <pt x="431" y="444" on="1"/>
        <pt x="286" y="444" on="1"/>
        <pt x="229" y="302" on="1"/>
      </contour>
    </TTGlyph>
    <TTGlyph name="o" xMin="50" yMin="-7" xMax="324" yMax="544">
      <contour>
        <pt x="245" y="0" on="0"/>
        <pt x="210" y="-7" on="0"/>
        <pt x="161" y="-7" on="0"/>
        <pt x="122" y="-1" on="0"/>
        <pt x="93" y="19" on="0"/>
        <pt x="74" y="36" on="0"/>
        <pt x="61" y="80" on="0"/>
        <pt x="54" y="110" on="0"/>
        <pt x="51" y="179" on="0"/>
        <pt x="50" y="223" on="0"/>
        <pt x="50" y="319" on="0"/>
        <pt x="51" y="362" on="0"/>
        <pt x="54" y="431" on="0"/>
        <pt x="61" y="460" on="0"/>
        <pt x="74" y="503" on="0"/>
        <pt x="93" y="519" on="0"/>
        <pt x="108" y="528" on="1"/>
        <pt x="131" y="544" on="0"/>
        <pt x="210" y="544" on="0"/>
        <pt x="245" y="537" on="0"/>
        <pt x="273" y="529" on="0"/>
        <pt x="293" y="504" on="0"/>
        <pt x="307" y="487" on="0"/>
        <pt x="315" y="444" on="0"/>
        <pt x="320" y="417" on="0"/>
        <pt x="323" y="353" on="0"/>
        <pt x="323" y="333" on="1"/>
        <pt x="323" y="271" on="1"/>
        <pt x="323" y="271" on="0"/>
        <pt x="323" y="267" on="1"/>
        <pt x="323" y="267" on="0"/>
        <pt x="323" y="206" on="1"/>
        <pt x="323" y="138" on="0"/>
        <pt x="315" y="95" on="0"/>
        <pt x="307" y="51" on="0"/>
        <pt x="293" y="34" on="0"/>
        <pt x="273" y="9" on="0"/>
      </contour>
      <contour>
        <pt x="264" y="248" on="1"/>
        <pt x="264" y="282" on="1"/>
        <pt x="264" y="413" on="0"/>
        <pt x="253" y="447" on="1"/>
        <pt x="237" y="490" on="0"/>
        <pt x="187" y="491" on="1"/>
        <pt x="146" y="491" on="0"/>
        <pt x="132" y="470" on="1"/>
        <pt x="124" y="456" on="0"/>
        <pt x="114" y="432" on="0"/>
        <pt x="112" y="402" on="1"/>
        <pt x="109" y="358" on="0"/>
        <pt x="109" y="276" on="0"/>
        <pt x="109" y="193" on="0"/>
        <pt x="111" y="133" on="0"/>
        <pt x="126" y="66" on="0"/>
        <pt x="158" y="46" on="0"/>
        <pt x="206" y="46" on="0"/>
        <pt x="232" y="55" on="0"/>
        <pt x="249" y="80" on="0"/>
        <pt x="258" y="105" on="0"/>
        <pt x="260" y="132" on="1"/>
        <pt x="264" y="171" on="0"/>
      </contour>
    </TTGlyph>
    <TTGlyph name="o_t" xMin="50" yMin="-7" xMax="593" yMax="616">
      <contour>
        <pt x="426" y="228" on="1"/>
        <pt x="426" y="458" on="1"/>
        <pt x="430" y="490" on="1"/>
        <pt x="293" y="490" on="1"/>
        <pt x="311" y="450" on="0"/>
        <pt x="312" y="368" on="1"/>
        <pt x="313" y="337" on="0"/>
        <pt x="313" y="304" on="1"/>
        <pt x="313" y="267" on="1"/>
        <pt x="313" y="127" on="0"/>
        <pt x="303" y="79" on="0"/>
        <pt x="290" y="36" on="0"/>
        <pt x="272" y="19" on="0"/>
        <pt x="258" y="9" on="1"/>
        <pt x="236" y="-7" on="0"/>
        <pt x="182" y="-7" on="1"/>
        <pt x="112" y="-7" on="0"/>
        <pt x="89" y="22" on="1"/>
        <pt x="79" y="34" on="0"/>
        <pt x="66" y="52" on="0"/>
        <pt x="57" y="96" on="0"/>
        <pt x="52" y="124" on="0"/>
        <pt x="50" y="189" on="0"/>
        <pt x="50" y="208" on="1"/>
        <pt x="50" y="334" on="1"/>
        <pt x="50" y="406" on="0"/>
        <pt x="57" y="444" on="0"/>
        <pt x="66" y="488" on="0"/>
        <pt x="79" y="505" on="0"/>
        <pt x="99" y="529" on="0"/>
        <pt x="112" y="533" on="1"/>
        <pt x="150" y="544" on="0"/>
        <pt x="182" y="544" on="1"/>
        <pt x="430" y="544" on="1"/>
        <pt x="426" y="572" on="1"/>
        <pt x="426" y="616" on="1"/>
        <pt x="470" y="616" on="0"/>
        <pt x="485" y="604" on="0"/>
        <pt x="485" y="570" on="1"/>
        <pt x="481" y="544" on="1"/>
        <pt x="573" y="544" on="1"/>
        <pt x="573" y="507" on="0"/>
        <pt x="560" y="490" on="0"/>
        <pt x="525" y="490" on="1"/>
        <pt x="481" y="490" on="1"/>
        <pt x="485" y="458" on="1"/>
        <pt x="485" y="228" on="1"/>
        <pt x="485" y="114" on="0"/>
        <pt x="497" y="46" on="0"/>
        <pt x="525" y="46" on="1"/>
        <pt x="593" y="46" on="1"/>
        <pt x="593" y="0" on="1"/>
        <pt x="524" y="-5" on="1"/>
        <pt x="455" y="-5" on="0"/>
        <pt x="426" y="80" on="0"/>
      </contour>
      <contour>
        <pt x="254" y="248" on="1"/>
        <pt x="254" y="316" on="1"/>
        <pt x="254" y="425" on="0"/>
        <pt x="244" y="453" on="1"/>
        <pt x="230" y="491" on="0"/>
        <pt x="182" y="491" on="1"/>
        <pt x="155" y="491" on="0"/>
        <pt x="125" y="474" on="0"/>
        <pt x="111" y="417" on="0"/>
        <pt x="109" y="366" on="0"/>
        <pt x="109" y="328" on="1"/>
        <pt x="109" y="282" on="1"/>
        <pt x="109" y="136" on="0"/>
        <pt x="114" y="108" on="1"/>
        <pt x="123" y="55" on="0"/>
        <pt x="162" y="48" on="1"/>
        <pt x="171" y="46" on="0"/>
        <pt x="200" y="46" on="0"/>
        <pt x="225" y="53" on="0"/>
        <pt x="241" y="78" on="0"/>
        <pt x="249" y="99" on="0"/>
        <pt x="251" y="126" on="1"/>
        <pt x="254" y="168" on="0"/>
        <pt x="254" y="206" on="1"/>
      </contour>
    </TTGlyph>
    <TTGlyph name="oacute" xMin="50" yMin="-7" xMax="324" yMax="744">
      <contour>
        <pt x="245" y="0" on="0"/>
        <pt x="210" y="-7" on="0"/>
        <pt x="161" y="-7" on="0"/>
        <pt x="122" y="-1" on="0"/>
        <pt x="93" y="19" on="0"/>
        <pt x="74" y="36" on="0"/>
        <pt x="61" y="80" on="0"/>
        <pt x="54" y="110" on="0"/>
        <pt x="51" y="179" on="0"/>
        <pt x="50" y="223" on="0"/>
        <pt x="50" y="319" on="0"/>
        <pt x="51" y="362" on="0"/>
        <pt x="54" y="431" on="0"/>
        <pt x="61" y="460" on="0"/>
        <pt x="74" y="503" on="0"/>
        <pt x="93" y="519" on="0"/>
        <pt x="108" y="528" on="1"/>
        <pt x="131" y="544" on="0"/>
        <pt x="210" y="544" on="0"/>
        <pt x="245" y="537" on="0"/>
        <pt x="273" y="529" on="0"/>
        <pt x="293" y="504" on="0"/>
        <pt x="307" y="487" on="0"/>
        <pt x="315" y="444" on="0"/>
        <pt x="320" y="417" on="0"/>
        <pt x="323" y="353" on="0"/>
        <pt x="323" y="333" on="1"/>
        <pt x="323" y="271" on="1"/>
        <pt x="323" y="271" on="0"/>
        <pt x="323" y="267" on="1"/>
        <pt x="323" y="267" on="0"/>
        <pt x="323" y="206" on="1"/>
        <pt x="323" y="138" on="0"/>
        <pt x="315" y="95" on="0"/>
        <pt x="307" y="51" on="0"/>
        <pt x="293" y="34" on="0"/>
        <pt x="273" y="9" on="0"/>
      </contour>
      <contour>
        <pt x="264" y="248" on="1"/>
        <pt x="264" y="282" on="1"/>
        <pt x="264" y="413" on="0"/>
        <pt x="253" y="447" on="1"/>
        <pt x="237" y="490" on="0"/>
        <pt x="187" y="491" on="1"/>
        <pt x="146" y="491" on="0"/>
        <pt x="132" y="470" on="1"/>
        <pt x="124" y="456" on="0"/>
        <pt x="114" y="432" on="0"/>
        <pt x="112" y="402" on="1"/>
        <pt x="109" y="358" on="0"/>
        <pt x="109" y="276" on="0"/>
        <pt x="109" y="193" on="0"/>
        <pt x="111" y="133" on="0"/>
        <pt x="126" y="66" on="0"/>
        <pt x="158" y="46" on="0"/>
        <pt x="206" y="46" on="0"/>
        <pt x="232" y="55" on="0"/>
        <pt x="249" y="80" on="0"/>
        <pt x="258" y="105" on="0"/>
        <pt x="260" y="132" on="1"/>
        <pt x="264" y="171" on="0"/>
      </contour>
      <contour>
        <pt x="212" y="711" on="1"/>
        <pt x="245" y="744" on="0"/>
        <pt x="253" y="744" on="1"/>
        <pt x="263" y="744" on="0"/>
        <pt x="294" y="713" on="1"/>
        <pt x="179" y="599" on="1"/>
        <pt x="144" y="635" on="1"/>
      </contour>
    </TTGlyph>
    <TTGlyph name="ocircumflex" xMin="50" yMin="-7" xMax="323" yMax="744">
      <component glyphName="o" x="0" y="0" flags="0x1004"/>
      <component glyphName="circumflex" x="12" y="12" flags="0x1004"/>
    </TTGlyph>
    <TTGlyph name="odieresis" xMin="50" yMin="-7" xMax="324" yMax="711">
      <contour>
        <pt x="245" y="0" on="0"/>
        <pt x="210" y="-7" on="0"/>
        <pt x="161" y="-7" on="0"/>
        <pt x="122" y="-1" on="0"/>
        <pt x="93" y="19" on="0"/>
        <pt x="74" y="36" on="0"/>
        <pt x="61" y="80" on="0"/>
        <pt x="54" y="110" on="0"/>
        <pt x="51" y="179" on="0"/>
        <pt x="50" y="223" on="0"/>
        <pt x="50" y="319" on="0"/>
        <pt x="51" y="362" on="0"/>
        <pt x="54" y="431" on="0"/>
        <pt x="61" y="460" on="0"/>
        <pt x="74" y="503" on="0"/>
        <pt x="93" y="519" on="0"/>
        <pt x="108" y="528" on="1"/>
        <pt x="131" y="544" on="0"/>
        <pt x="210" y="544" on="0"/>
        <pt x="245" y="537" on="0"/>
        <pt x="273" y="529" on="0"/>
        <pt x="293" y="504" on="0"/>
        <pt x="307" y="487" on="0"/>
        <pt x="315" y="444" on="0"/>
        <pt x="320" y="417" on="0"/>
        <pt x="323" y="353" on="0"/>
        <pt x="323" y="333" on="1"/>
        <pt x="323" y="271" on="1"/>
        <pt x="323" y="271" on="0"/>
        <pt x="323" y="267" on="1"/>
        <pt x="323" y="267" on="0"/>
        <pt x="323" y="206" on="1"/>
        <pt x="323" y="138" on="0"/>
        <pt x="315" y="95" on="0"/>
        <pt x="307" y="51" on="0"/>
        <pt x="293" y="34" on="0"/>
        <pt x="273" y="9" on="0"/>
      </contour>
      <contour>
        <pt x="264" y="248" on="1"/>
        <pt x="264" y="282" on="1"/>
        <pt x="264" y="413" on="0"/>
        <pt x="253" y="447" on="1"/>
        <pt x="237" y="490" on="0"/>
        <pt x="187" y="491" on="1"/>
        <pt x="146" y="491" on="0"/>
        <pt x="132" y="470" on="1"/>
        <pt x="124" y="456" on="0"/>
        <pt x="114" y="432" on="0"/>
        <pt x="112" y="402" on="1"/>
        <pt x="109" y="358" on="0"/>
        <pt x="109" y="276" on="0"/>
        <pt x="109" y="193" on="0"/>
        <pt x="111" y="133" on="0"/>
        <pt x="126" y="66" on="0"/>
        <pt x="158" y="46" on="0"/>
        <pt x="206" y="46" on="0"/>
        <pt x="232" y="55" on="0"/>
        <pt x="249" y="80" on="0"/>
        <pt x="258" y="105" on="0"/>
        <pt x="260" y="132" on="1"/>
        <pt x="264" y="171" on="0"/>
      </contour>
      <contour>
        <pt x="137" y="620" on="0"/>
        <pt x="99" y="620" on="0"/>
        <pt x="72" y="647" on="0"/>
        <pt x="72" y="685" on="0"/>
        <pt x="99" y="711" on="0"/>
        <pt x="137" y="711" on="0"/>
        <pt x="164" y="685" on="0"/>
        <pt x="164" y="647" on="0"/>
      </contour>
      <contour>
        <pt x="280" y="620" on="0"/>
        <pt x="242" y="620" on="0"/>
        <pt x="215" y="647" on="0"/>
        <pt x="215" y="685" on="0"/>
        <pt x="242" y="711" on="0"/>
        <pt x="280" y="711" on="0"/>
        <pt x="307" y="685" on="0"/>
        <pt x="307" y="647" on="0"/>
      </contour>
    </TTGlyph>
    <TTGlyph name="oe" xMin="56" yMin="-7" xMax="559" yMax="544">
      <contour>
        <pt x="345" y="233" on="1"/>
        <pt x="345" y="213" on="0"/>
        <pt x="345" y="207" on="1"/>
        <pt x="345" y="111" on="0"/>
        <pt x="355" y="85" on="1"/>
        <pt x="373" y="46" on="0"/>
        <pt x="493" y="46" on="0"/>
        <pt x="552" y="59" on="1"/>
        <pt x="552" y="10" on="1"/>
        <pt x="476" y="-7" on="0"/>
        <pt x="386" y="-7" on="0"/>
        <pt x="336" y="13" on="0"/>
        <pt x="319" y="37" on="1"/>
        <pt x="288" y="-7" on="0"/>
        <pt x="203" y="-7" on="1"/>
        <pt x="143" y="-7" on="0"/>
        <pt x="103" y="19" on="0"/>
        <pt x="82" y="37" on="0"/>
        <pt x="68" y="80" on="0"/>
        <pt x="60" y="110" on="0"/>
        <pt x="58" y="144" on="1"/>
        <pt x="56" y="201" on="0"/>
        <pt x="56" y="257" on="1"/>
        <pt x="56" y="334" on="1"/>
        <pt x="56" y="399" on="0"/>
        <pt x="64" y="445" on="0"/>
        <pt x="74" y="487" on="0"/>
        <pt x="89" y="505" on="0"/>
        <pt x="111" y="529" on="0"/>
        <pt x="126" y="533" on="1"/>
        <pt x="165" y="544" on="0"/>
        <pt x="203" y="544" on="1"/>
        <pt x="289" y="544" on="0"/>
        <pt x="319" y="504" on="1"/>
        <pt x="336" y="526" on="0"/>
        <pt x="386" y="544" on="0"/>
        <pt x="456" y="544" on="0"/>
        <pt x="491" y="538" on="0"/>
        <pt x="516" y="520" on="0"/>
        <pt x="534" y="504" on="0"/>
        <pt x="545" y="468" on="0"/>
        <pt x="552" y="443" on="0"/>
        <pt x="553" y="416" on="1"/>
        <pt x="555" y="364" on="0"/>
        <pt x="555" y="322" on="1"/>
        <pt x="559" y="268" on="1"/>
        <pt x="340" y="262" on="1"/>
      </contour>
      <contour>
        <pt x="350" y="391" on="0"/>
        <pt x="350" y="358" on="0"/>
        <pt x="351" y="339" on="1"/>
        <pt x="346" y="317" on="1"/>
        <pt x="501" y="317" on="1"/>
        <pt x="496" y="367" on="1"/>
        <pt x="495" y="448" on="0"/>
        <pt x="473" y="491" on="0"/>
        <pt x="401" y="491" on="0"/>
        <pt x="365" y="472" on="0"/>
        <pt x="352" y="434" on="0"/>
      </contour>
      <contour>
        <pt x="181" y="46" on="0"/>
        <pt x="225" y="46" on="0"/>
        <pt x="255" y="55" on="0"/>
        <pt x="274" y="85" on="0"/>
        <pt x="284" y="110" on="0"/>
        <pt x="286" y="142" on="1"/>
        <pt x="290" y="188" on="0"/>
        <pt x="290" y="321" on="0"/>
        <pt x="289" y="366" on="0"/>
        <pt x="284" y="429" on="0"/>
        <pt x="274" y="454" on="0"/>
        <pt x="255" y="483" on="0"/>
        <pt x="225" y="491" on="0"/>
        <pt x="203" y="491" on="1"/>
        <pt x="142" y="491" on="0"/>
        <pt x="115" y="406" on="0"/>
        <pt x="115" y="220" on="0"/>
        <pt x="116" y="175" on="0"/>
        <pt x="121" y="110" on="0"/>
        <pt x="131" y="85" on="0"/>
        <pt x="151" y="55" on="0"/>
      </contour>
    </TTGlyph>
    <TTGlyph name="ogonek" xMin="27" yMin="-200" xMax="186" yMax="0">
      <contour>
        <pt x="186" y="-200" on="1"/>
        <pt x="121" y="-200" on="1"/>
        <pt x="27" y="-113" on="1"/>
        <pt x="27" y="-87" on="1"/>
        <pt x="67" y="0" on="1"/>
        <pt x="121" y="0" on="1"/>
        <pt x="76" y="-100" on="1"/>
      </contour>
    </TTGlyph>
    <TTGlyph name="ograve" xMin="50" yMin="-7" xMax="324" yMax="744">
      <contour>
        <pt x="245" y="0" on="0"/>
        <pt x="210" y="-7" on="0"/>
        <pt x="161" y="-7" on="0"/>
        <pt x="122" y="-1" on="0"/>
        <pt x="93" y="19" on="0"/>
        <pt x="74" y="36" on="0"/>
        <pt x="61" y="80" on="0"/>
        <pt x="54" y="110" on="0"/>
        <pt x="51" y="179" on="0"/>
        <pt x="50" y="223" on="0"/>
        <pt x="50" y="319" on="0"/>
        <pt x="51" y="362" on="0"/>
        <pt x="54" y="431" on="0"/>
        <pt x="61" y="460" on="0"/>
        <pt x="74" y="503" on="0"/>
        <pt x="93" y="519" on="0"/>
        <pt x="108" y="528" on="1"/>
        <pt x="131" y="544" on="0"/>
        <pt x="210" y="544" on="0"/>
        <pt x="245" y="537" on="0"/>
        <pt x="273" y="529" on="0"/>
        <pt x="293" y="504" on="0"/>
        <pt x="307" y="487" on="0"/>
        <pt x="315" y="444" on="0"/>
        <pt x="320" y="417" on="0"/>
        <pt x="323" y="353" on="0"/>
        <pt x="323" y="333" on="1"/>
        <pt x="323" y="271" on="1"/>
        <pt x="323" y="271" on="0"/>
        <pt x="323" y="267" on="1"/>
        <pt x="323" y="267" on="0"/>
        <pt x="323" y="206" on="1"/>
        <pt x="323" y="138" on="0"/>
        <pt x="315" y="95" on="0"/>
        <pt x="307" y="51" on="0"/>
        <pt x="293" y="34" on="0"/>
        <pt x="273" y="9" on="0"/>
      </contour>
      <contour>
        <pt x="264" y="248" on="1"/>
        <pt x="264" y="282" on="1"/>
        <pt x="264" y="413" on="0"/>
        <pt x="253" y="447" on="1"/>
        <pt x="237" y="490" on="0"/>
        <pt x="187" y="491" on="1"/>
        <pt x="146" y="491" on="0"/>
        <pt x="132" y="470" on="1"/>
        <pt x="124" y="456" on="0"/>
        <pt x="114" y="432" on="0"/>
        <pt x="112" y="402" on="1"/>
        <pt x="109" y="358" on="0"/>
        <pt x="109" y="276" on="0"/>
        <pt x="109" y="193" on="0"/>
        <pt x="111" y="133" on="0"/>
        <pt x="126" y="66" on="0"/>
        <pt x="158" y="46" on="0"/>
        <pt x="206" y="46" on="0"/>
        <pt x="232" y="55" on="0"/>
        <pt x="249" y="80" on="0"/>
        <pt x="258" y="105" on="0"/>
        <pt x="260" y="132" on="1"/>
        <pt x="264" y="171" on="0"/>
      </contour>
      <contour>
        <pt x="113" y="713" on="1"/>
        <pt x="144" y="744" on="0"/>
        <pt x="162" y="744" on="0"/>
        <pt x="195" y="711" on="1"/>
        <pt x="263" y="635" on="1"/>
        <pt x="228" y="599" on="1"/>
      </contour>
    </TTGlyph>
    <TTGlyph name="one" xMin="60" yMin="0" xMax="343" yMax="720">
      <contour>
        <pt x="118" y="57" on="1"/>
        <pt x="173" y="57" on="1"/>
        <pt x="173" y="667" on="1"/>
        <pt x="110" y="657" on="1"/>
        <pt x="110" y="710" on="1"/>
        <pt x="173" y="720" on="1"/>
        <pt x="178" y="720" on="1"/>
        <pt x="221" y="720" on="0"/>
        <pt x="236" y="708" on="0"/>
        <pt x="236" y="674" on="1"/>
        <pt x="236" y="57" on="1"/>
        <pt x="343" y="57" on="1"/>
        <pt x="343" y="0" on="1"/>
        <pt x="60" y="0" on="1"/>
        <pt x="60" y="41" on="0"/>
        <pt x="75" y="57" on="0"/>
      </contour>
    </TTGlyph>
    <TTGlyph name="onehalf" xMin="59" yMin="0" xMax="262" yMax="733">
      <contour>
        <pt x="233" y="0" on="1"/>
        <pt x="85" y="0" on="1"/>
        <pt x="85" y="97" on="1"/>
        <pt x="85" y="135" on="0"/>
        <pt x="182" y="206" on="0"/>
        <pt x="182" y="232" on="1"/>
        <pt x="182" y="244" on="0"/>
        <pt x="180" y="250" on="1"/>
        <pt x="176" y="268" on="0"/>
        <pt x="147" y="268" on="1"/>
        <pt x="116" y="268" on="1"/>
        <pt x="92" y="268" on="0"/>
        <pt x="84" y="277" on="0"/>
        <pt x="84" y="307" on="1"/>
        <pt x="149" y="312" on="1"/>
        <pt x="203" y="311" on="0"/>
        <pt x="231" y="273" on="0"/>
        <pt x="231" y="200" on="0"/>
        <pt x="184" y="152" on="0"/>
        <pt x="135" y="112" on="0"/>
        <pt x="133" y="94" on="1"/>
        <pt x="133" y="44" on="1"/>
        <pt x="233" y="44" on="1"/>
      </contour>
      <contour>
        <pt x="188" y="423" on="1"/>
        <pt x="139" y="423" on="1"/>
        <pt x="139" y="687" on="1"/>
        <pt x="95" y="676" on="1"/>
        <pt x="95" y="722" on="1"/>
        <pt x="128" y="733" on="1"/>
        <pt x="156" y="733" on="1"/>
        <pt x="180" y="733" on="0"/>
        <pt x="188" y="722" on="0"/>
        <pt x="188" y="690" on="1"/>
      </contour>
      <contour>
        <pt x="262" y="342" on="1"/>
        <pt x="59" y="342" on="1"/>
        <pt x="59" y="389" on="1"/>
        <pt x="262" y="389" on="1"/>
      </contour>
    </TTGlyph>
    <TTGlyph name="onequarter" xMin="17" yMin="0" xMax="242" yMax="733">
      <contour>
        <pt x="177" y="0" on="1"/>
        <pt x="137" y="0" on="1"/>
        <pt x="137" y="57" on="1"/>
        <pt x="142" y="75" on="1"/>
        <pt x="17" y="75" on="1"/>
        <pt x="129" y="306" on="1"/>
        <pt x="177" y="306" on="1"/>
        <pt x="177" y="128" on="1"/>
        <pt x="172" y="113" on="1"/>
        <pt x="200" y="113" on="1"/>
        <pt x="200" y="75" on="1"/>
        <pt x="172" y="75" on="1"/>
        <pt x="177" y="57" on="1"/>
      </contour>
      <contour>
        <pt x="142" y="113" on="1"/>
        <pt x="137" y="128" on="1"/>
        <pt x="137" y="229" on="1"/>
        <pt x="77" y="113" on="1"/>
      </contour>
      <contour>
        <pt x="171" y="423" on="1"/>
        <pt x="122" y="423" on="1"/>
        <pt x="122" y="687" on="1"/>
        <pt x="77" y="676" on="1"/>
        <pt x="77" y="722" on="1"/>
        <pt x="111" y="733" on="1"/>
        <pt x="139" y="733" on="1"/>
        <pt x="163" y="733" on="0"/>
        <pt x="171" y="722" on="0"/>
        <pt x="171" y="690" on="1"/>
      </contour>
      <contour>
        <pt x="242" y="342" on="1"/>
        <pt x="39" y="342" on="1"/>
        <pt x="39" y="389" on="1"/>
        <pt x="242" y="389" on="1"/>
      </contour>
    </TTGlyph>
</ttFont>
